<svg
   viewBox="0 0 677.26203 1024"
   version="1.1"
   id="svg18"
   sodipodi:docname="logo.svg"
   xml:space="preserve"
   inkscape:version="1.3.2 (091e20ef0f, 2023-11-25, custom)"
   xmlns:inkscape="http://www.inkscape.org/namespaces/inkscape"
   xmlns:sodipodi="http://sodipodi.sourceforge.net/DTD/sodipodi-0.dtd"
   xmlns="http://www.w3.org/2000/svg"
   xmlns:svg="http://www.w3.org/2000/svg"><sodipodi:namedview
     id="namedview18"
     pagecolor="#ffffff"
     bordercolor="#666666"
     borderopacity="1.0"
     inkscape:showpageshadow="2"
     inkscape:pageopacity="0.0"
     inkscape:pagecheckerboard="0"
     inkscape:deskcolor="#d1d1d1"
     inkscape:zoom="1.2239518"
     inkscape:cx="672.4121"
     inkscape:cy="454.26625"
     inkscape:window-width="3840"
     inkscape:window-height="2078"
     inkscape:window-x="1920"
     inkscape:window-y="45"
     inkscape:window-maximized="1"
     inkscape:current-layer="svg18" /><defs
     id="defs18" /><path
     id="path1-6"
     d="M 44.4567,0.00264315 C 20.3234,0.29876315 0,25.431803 0,50.251864 V 173.39122 c 0,30.78481 0,46.17729 61.5697,76.9621 L 338.61012,388.84717 92.3545,511.97543 C -11.5442,563.92479 -27.7784,659.70683 43.652,725.35376 v 0 c 2.6454,2.43124 5.4106,4.82138 8.2965,7.16619 v 0 c 2.8859,2.34476 5.8917,4.64519 9.0181,6.89604 v 0 c 3.1264,2.25084 6.3728,4.45348 9.7396,6.60287 v 0 c 3.367,2.14935 6.8538,4.24604 10.4612,6.28646 3.6076,2.04056 7.3354,4.02476 11.1835,5.94881 v 0 l 246.27782,123.13936 277.0636,138.53181 c 30.7848,15.3924 61.5697,-15.6293 61.5697,-46.17729 V 850.60865 c 0,-30.78479 -10e-5,-46.17726 -61.5697,-76.9621 L 338.62872,635.11479 584.90752,511.97543 c 61.5696,-30.78481 92.3545,-76.96214 92.3545,-123.13936 0,-2.88608 -0.1203,-5.77222 -0.3608,-8.65453 -3.6076,-43.23477 -34.2722,-85.62407 -91.9937,-114.48483 L 338.62872,142.55735 c 0.5253,0.26261 1.0056,0.54734 1.5264,0.81218 l -1.5264,-0.76315 L 61.5652,4.0746031 C 55.793,1.1885331 50.0214,-0.06569685 44.4522,0.00264315 Z" /></svg>
