<svg
   viewBox="0 0 2712.5664 1500"
   version="1.1"
   xmlns="http://www.w3.org/2000/svg"
   xmlns:svg="http://www.w3.org/2000/svg">
   <path
      d="M 65.640625 0.00390625 C 30.007029 0.43774914 0 37.253817 0 73.611328 L 0 253.99023 C 5.6843362e-14 299.08814 0.00087725937 321.63061 90.910156 366.72852 L 499.96484 569.59961 L 136.35938 749.96289 L 136.36133 749.96484 C 45.437322 795.06795 -0.014688554 862.72485 0.001953125 930.37891 C -0.014688701 998.03357 45.437669 1065.6918 136.36328 1110.7949 L 500.00391 1291.1016 L 909.09375 1494.0312 C 954.54685 1516.5802 1000 1471.1376 1000 1426.3887 L 1000 1246.0098 C 1000 1200.9119 999.99996 1178.3693 909.09375 1133.2715 L 499.96289 930.36328 C 499.97698 930.35629 499.98982 930.34879 500.00391 930.3418 L 863.63477 749.96289 C 903.40758 730.23389 934.47935 706.18864 956.85156 679.7168 C 960.04726 675.93544 963.06755 672.10539 965.9082 668.23047 L 965.9082 668.22852 C 968.74912 664.35318 971.41264 660.43447 973.89844 656.47656 C 976.38424 652.51873 978.69158 648.52158 980.82227 644.49219 C 982.95267 640.46324 984.90625 636.40198 986.68164 632.3125 L 986.68164 632.31055 C 988.45697 628.22109 990.05625 624.10383 991.47656 619.96484 L 991.47656 619.96289 C 992.89682 615.82392 994.13984 611.66382 995.20508 607.48633 L 995.20508 607.48438 C 996.27026 603.3069 997.15701 599.1132 997.86719 594.9082 L 997.86719 594.90625 C 998.57731 590.70127 999.11168 586.48517 999.4668 582.26367 L 999.4668 582.26172 C 999.82186 578.04023 999.99799 573.81293 999.99805 569.58594 C 999.99805 565.35711 999.82213 561.12957 999.4668 556.90625 C 999.11179 552.6854 998.57709 548.46998 997.86719 544.26562 C 997.86698 544.26437 997.8674 544.26297 997.86719 544.26172 C 997.15717 540.05735 996.27 535.86437 995.20508 531.6875 C 995.20477 531.6863 995.20538 531.68479 995.20508 531.68359 C 981.35561 477.3683 937.49857 425.84269 863.63477 389.20312 L 825.35742 370.22266 L 500.00391 208.82812 C 500.71913 209.18291 501.37244 209.56821 502.08203 209.92578 L 500.00391 208.89453 L 90.910156 5.96875 C 82.387354 1.7411653 73.863763 -0.09621134 65.640625 0.00390625 z M 2048.8008 375 C 2030.7544 375 2017.0508 380.18291 2007.6895 390.54688 C 1998.6663 400.90481 1994.1543 413.6059 1994.1543 428.64453 C 1994.1543 443.0188 1998.6663 455.38213 2007.6895 465.74609 C 2017.0508 475.77188 2030.7544 480.7832 2048.8008 480.7832 C 2066.515 480.7832 2080.0489 475.77188 2089.4043 465.74609 C 2099.0979 455.38213 2103.9473 443.0188 2103.9473 428.64453 C 2103.9473 413.6059 2099.0979 400.90481 2089.4043 390.54688 C 2080.0489 380.18291 2066.515 375 2048.8008 375 z M 1375.002 385.03125 L 1375.002 1114.9746 L 1471.7637 1114.9746 L 1471.7637 819.18359 L 1642.9863 819.18359 L 1801.6406 1114.9746 L 1904.918 1114.9746 L 1904.918 1108.959 L 1733.3613 798.82227 C 1755.8617 790.23133 1776.046 779.40072 1793.6211 766.04688 C 1819.0237 746.65967 1838.4037 723.26327 1851.7754 695.85547 C 1865.4794 668.11554 1872.3281 637.53647 1872.3281 604.11328 C 1872.3281 556.654 1862.3035 516.71361 1842.252 484.29297 C 1822.5327 451.54007 1793.6195 426.80731 1755.5156 410.0957 C 1717.7498 393.38411 1671.462 385.03125 1616.6465 385.03125 L 1375.002 385.03125 z M 1471.7637 464.24219 L 1616.6465 464.24219 C 1653.7478 464.24219 1683.9952 470.08846 1707.3867 481.78711 C 1731.1224 493.15371 1748.499 509.36383 1759.5273 530.41797 C 1770.5556 551.47201 1776.0742 576.0412 1776.0742 604.11328 C 1776.0742 629.17772 1770.2222 652.07303 1758.5234 672.79492 C 1746.8248 693.51682 1729.4502 710.06053 1706.3848 722.42969 C 1683.3256 734.46058 1654.4123 740.47461 1619.6543 740.47461 L 1471.7637 740.47461 L 1471.7637 464.24219 z M 2464.9062 562.5 C 2427.1404 562.5 2393.0522 569.52446 2362.6367 583.56055 C 2332.2212 597.26449 2306.3179 616.6444 2284.9316 641.71484 C 2263.5393 666.44704 2247.1593 695.69183 2235.7988 729.44727 C 2224.4323 762.87046 2218.748 799.13183 2218.748 838.23828 L 2218.748 849.76758 C 2218.748 888.86802 2224.4323 925.13734 2235.7988 958.56055 C 2247.1593 991.97776 2263.5393 1021.2266 2284.9316 1046.291 C 2306.6561 1071.0233 2332.7232 1090.4112 2363.1387 1104.4473 C 2393.5541 1118.1512 2427.8102 1125 2465.9082 1125 C 2504.0121 1125 2538.1002 1118.1512 2568.1836 1104.4473 C 2598.5991 1090.4112 2624.4962 1071.0233 2645.8887 1046.291 C 2667.6132 1021.2266 2684.1569 991.97776 2695.5234 958.56055 C 2706.884 925.13734 2712.5664 888.86802 2712.5664 849.76758 L 2712.5664 838.23828 C 2712.5664 799.13183 2706.884 762.87046 2695.5234 729.44727 C 2684.1569 695.69183 2667.6132 666.44704 2645.8887 641.71484 C 2624.4962 616.6444 2598.4293 597.26449 2567.6816 583.56055 C 2537.2662 569.52446 2503.0101 562.5 2464.9062 562.5 z M 2001.1719 572.53125 L 2001.1719 1114.9746 L 2094.4238 1114.9746 L 2094.4238 572.53125 L 2001.1719 572.53125 z M 2464.9062 638.70703 C 2490.6409 638.70703 2513.0351 644.0539 2532.084 654.75 C 2551.4712 665.4462 2567.5136 680.15235 2580.2148 698.86914 C 2593.2483 717.24768 2602.9413 738.47117 2609.2949 762.53906 C 2615.9748 786.26871 2619.3203 811.50089 2619.3203 838.23828 L 2619.3203 849.76758 C 2619.3203 876.83711 2615.9748 902.41077 2609.2949 926.47266 C 2602.9413 950.20229 2593.4161 971.25597 2580.7148 989.64062 C 2568.0136 1008.0252 2551.9731 1022.5616 2532.5859 1033.2578 C 2513.537 1043.6158 2491.3108 1048.7988 2465.9082 1048.7988 C 2440.1734 1048.7988 2417.6157 1043.6158 2398.2285 1033.2578 C 2378.8474 1022.5616 2362.637 1008.0252 2349.6035 989.64062 C 2336.9022 971.25597 2327.371 950.20229 2321.0234 926.47266 C 2314.6757 902.41077 2311.5 876.83711 2311.5 849.76758 L 2311.5 838.23828 C 2311.5 811.50089 2314.6757 786.26871 2321.0234 762.53906 C 2327.371 738.47117 2336.9022 717.24768 2349.6035 698.86914 C 2362.637 680.15235 2378.6777 665.4462 2397.7266 654.75 C 2417.1136 644.0539 2439.5097 638.70703 2464.9062 638.70703 z " />
</svg>