<svg
   viewBox="0 0 1337.5646 2438.002"
   version="1.1"
   xmlns="http://www.w3.org/2000/svg"
   xmlns:svg="http://www.w3.org/2000/svg">
   <path
      d="M 234.42383 0.00390625 C 198.79023 0.43774914 168.7832 37.253817 168.7832 73.611328 L 168.7832 253.99023 C 168.7832 299.08814 168.78213 321.63061 259.69141 366.72852 L 668.74609 569.59961 L 305.14062 749.96289 L 305.14453 749.96484 C 214.22052 795.06795 168.76851 862.72485 168.78516 930.37891 C 168.76851 998.03357 214.22087 1065.6918 305.14648 1110.7949 L 668.78516 1291.1016 L 1077.875 1494.0312 C 1123.3282 1516.5802 1168.7832 1471.1376 1168.7832 1426.3887 L 1168.7832 1246.0098 C 1168.7832 1200.9119 1168.7813 1178.3693 1077.875 1133.2715 L 668.74414 930.36328 C 668.75823 930.35629 668.77107 930.34879 668.78516 930.3418 L 1032.416 749.96289 C 1072.1888 730.23389 1103.2626 706.18864 1125.6348 679.7168 C 1128.8305 675.93544 1131.8488 672.10539 1134.6895 668.23047 L 1134.6895 668.22852 C 1137.5304 664.35318 1140.1939 660.43447 1142.6797 656.47656 C 1145.1655 652.51873 1147.4748 648.52158 1149.6055 644.49219 C 1151.7359 640.46324 1153.6895 636.40198 1155.4648 632.3125 L 1155.4648 632.31055 C 1157.2402 628.22109 1158.8375 624.10383 1160.2578 619.96484 L 1160.2578 619.96289 C 1161.6781 615.82392 1162.9211 611.66382 1163.9863 607.48633 L 1163.9863 607.48438 C 1165.0515 603.3069 1165.9402 599.1132 1166.6504 594.9082 L 1166.6504 594.90625 C 1167.3605 590.70127 1167.8929 586.48517 1168.248 582.26367 L 1168.248 582.26172 C 1168.6031 578.04023 1168.7812 573.81293 1168.7812 569.58594 C 1168.7812 565.35711 1168.6034 561.12957 1168.248 556.90625 C 1167.893 552.6854 1167.3603 548.46998 1166.6504 544.26562 C 1166.6502 544.26438 1166.6506 544.26297 1166.6504 544.26172 C 1165.9404 540.05735 1165.0512 535.86437 1163.9863 531.6875 C 1163.986 531.6863 1163.9866 531.68479 1163.9863 531.68359 C 1150.1369 477.3683 1106.2798 425.84269 1032.416 389.20312 L 994.13867 370.22266 L 668.78516 208.82812 C 669.50216 209.1838 670.15779 209.56926 670.86914 209.92773 L 668.78516 208.89453 L 259.69141 5.96875 C 251.1686 1.7411653 242.64697 -0.09621134 234.42383 0.00390625 z M 673.79883 1688.002 C 655.75245 1688.002 642.04694 1693.1848 632.68555 1703.5488 C 623.66236 1713.9067 619.15234 1726.6078 619.15234 1741.6465 C 619.15234 1756.0208 623.66236 1768.3841 632.68555 1778.748 C 642.04694 1788.7738 655.75245 1793.7852 673.79883 1793.7852 C 691.51301 1793.7852 705.04695 1788.7738 714.40234 1778.748 C 724.09593 1768.3841 728.94531 1756.0208 728.94531 1741.6465 C 728.94531 1726.6078 724.09593 1713.9067 714.40234 1703.5488 C 705.04695 1693.1848 691.51301 1688.002 673.79883 1688.002 z M 0 1698.0332 L 0 2427.9766 L 96.761719 2427.9766 L 96.761719 2132.1855 L 267.98438 2132.1855 L 426.63867 2427.9766 L 529.91602 2427.9766 L 529.91602 2421.9609 L 358.35938 2111.8242 C 380.85976 2103.2333 401.04206 2092.4026 418.61719 2079.0488 C 444.01976 2059.6616 463.40175 2036.2652 476.77344 2008.8574 C 490.47742 1981.1175 497.32617 1950.5384 497.32617 1917.1152 C 497.32617 1869.656 487.30158 1829.7156 467.25 1797.2949 C 447.53072 1764.5421 418.61753 1739.8092 380.51367 1723.0977 C 342.74781 1706.3861 296.46008 1698.0332 241.64453 1698.0332 L 0 1698.0332 z M 96.761719 1777.2441 L 241.64453 1777.2441 C 278.74589 1777.2441 308.99334 1783.0904 332.38477 1794.7891 C 356.12044 1806.1557 373.497 1822.3657 384.52539 1843.4199 C 395.55368 1864.4739 401.07227 1889.0432 401.07227 1917.1152 C 401.07227 1942.1796 395.22027 1965.0749 383.52148 1985.7969 C 371.8229 2006.5188 354.44634 2023.0625 331.38086 2035.4316 C 308.32173 2047.4625 279.41031 2053.4785 244.65234 2053.4785 L 96.761719 2053.4785 L 96.761719 1777.2441 z M 1089.9043 1875.502 C 1052.1383 1875.502 1018.0503 1882.5264 987.63477 1896.5625 C 957.2193 1910.2665 931.31597 1929.6463 909.92969 1954.7168 C 888.53731 1979.449 872.15736 2008.6939 860.79688 2042.4492 C 849.43039 2075.8725 843.74609 2112.1338 843.74609 2151.2402 L 843.74609 2162.7695 C 843.74609 2201.87 849.43039 2238.1393 860.79688 2271.5625 C 872.15736 2304.9798 888.53731 2334.2286 909.92969 2359.293 C 931.65417 2384.0252 957.72125 2403.4131 988.13672 2417.4492 C 1018.5522 2431.1531 1052.8082 2438.002 1090.9062 2438.002 C 1129.0101 2438.002 1163.0983 2431.1531 1193.1816 2417.4492 C 1223.5971 2403.4131 1249.4942 2384.0252 1270.8867 2359.293 C 1292.6111 2334.2286 1309.1549 2304.9798 1320.5215 2271.5625 C 1331.8821 2238.1393 1337.5645 2201.87 1337.5645 2162.7695 L 1337.5645 2151.2402 C 1337.5645 2112.1338 1331.8821 2075.8725 1320.5215 2042.4492 C 1309.155 2008.6939 1292.6112 1979.449 1270.8867 1954.7168 C 1249.4942 1929.6463 1223.4273 1910.2665 1192.6797 1896.5625 C 1162.2641 1882.5264 1128.0083 1875.502 1089.9043 1875.502 z M 626.16992 1885.5332 L 626.16992 2427.9766 L 719.42188 2427.9766 L 719.42188 1885.5332 L 626.16992 1885.5332 z M 1089.9043 1951.709 C 1115.639 1951.709 1138.0332 1957.0559 1157.082 1967.752 C 1176.4692 1978.4482 1192.5116 1993.1543 1205.2129 2011.8711 C 1218.2464 2030.2496 1227.9394 2051.4731 1234.293 2075.541 C 1240.9729 2099.2707 1244.3184 2124.5029 1244.3184 2151.2402 L 1244.3184 2162.7695 C 1244.3184 2189.8391 1240.9729 2215.4127 1234.293 2239.4746 C 1227.9394 2263.2043 1218.4142 2284.2579 1205.7129 2302.6426 C 1193.0116 2321.0272 1176.9712 2335.5636 1157.584 2346.2598 C 1138.535 2356.6178 1116.3088 2361.8008 1090.9062 2361.8008 C 1065.1714 2361.8008 1042.6137 2356.6178 1023.2266 2346.2598 C 1003.8455 2335.5636 987.63505 2321.0272 974.60156 2302.6426 C 961.90028 2284.2579 952.36908 2263.2043 946.02148 2239.4746 C 939.67379 2215.4127 936.49805 2189.8391 936.49805 2162.7695 L 936.49805 2151.2402 C 936.49805 2124.5029 939.67379 2099.2707 946.02148 2075.541 C 952.36908 2051.4731 961.90028 2030.2496 974.60156 2011.8711 C 987.63505 1993.1543 1003.6757 1978.4482 1022.7246 1967.752 C 1042.1117 1957.0559 1064.5076 1951.709 1089.9043 1951.709 z " />
</svg>