<svg
  viewBox="0 0 1000 1500"
  version="1.1"
  xmlns="http://www.w3.org/2000/svg"
  xmlns:svg="http://www.w3.org/2000/svg">
  <path
    d="M 65.641805,0.00387179 C 30.008179,0.43764131 0,37.253616 0,73.611126 V 253.99104 c 0,45.09493 0,67.64251 90.909721,112.73744 L 499.96917,569.60033 136.36451,749.96398 C -17.045398,826.06168 -41.015736,966.36739 64.453638,1062.5299 v 0 c 3.906022,3.5614 7.988932,7.0626 12.25006,10.4973 v 0 c 4.261127,3.4347 8.699292,6.8045 13.315526,10.1017 v 0 c 4.616234,3.2971 9.409652,6.5236 14.380846,9.6721 v 0 c 4.97149,3.1485 10.11987,6.2198 15.44631,9.2087 5.32674,2.9891 10.83097,5.8957 16.51281,8.7141 v 0 l 363.63744,180.3799 409.09368,202.9275 C 954.54509,1516.5786 1000,1471.1367 1000,1426.3886 v -180.3799 c 0,-45.0949 -1.2e-4,-67.6424 -90.90969,-112.7374 L 499.99663,930.3439 863.63552,749.96398 C 954.54509,704.86905 1000,637.22648 1000,569.58407 c 0,-4.22766 -0.17761,-8.4554 -0.53271,-12.67754 C 994.14055,493.57435 948.86324,431.48065 863.63552,389.20415 L 499.99663,208.82424 c 0.77562,0.38468 1.4848,0.80176 2.25378,1.18971 L 499.99663,208.89606 90.903077,5.9686567 C 82.380231,1.7410152 73.85827,-0.09623563 65.63516,0.00387179 Z"
  />
</svg>