<svg
   viewBox="0 0 703.77643 1024.0001"
   version="1.1"
   id="svg18"
   sodipodi:docname="logo.svg"
   xml:space="preserve"
   inkscape:version="1.3.2 (091e20ef0f, 2023-11-25, custom)"
   xmlns:inkscape="http://www.inkscape.org/namespaces/inkscape"
   xmlns:sodipodi="http://sodipodi.sourceforge.net/DTD/sodipodi-0.dtd"
   xmlns="http://www.w3.org/2000/svg"
   xmlns:svg="http://www.w3.org/2000/svg"><sodipodi:namedview
     id="namedview18"
     pagecolor="#ffffff"
     bordercolor="#666666"
     borderopacity="1.0"
     inkscape:showpageshadow="2"
     inkscape:pageopacity="0.0"
     inkscape:pagecheckerboard="0"
     inkscape:deskcolor="#d1d1d1"
     inkscape:zoom="1.7309293"
     inkscape:cx="463.33493"
     inkscape:cy="502.04246"
     inkscape:window-width="3840"
     inkscape:window-height="2078"
     inkscape:window-x="1920"
     inkscape:window-y="45"
     inkscape:window-maximized="1"
     inkscape:current-layer="svg18" /><defs
     id="defs18" /><path
     id="path1"
     d="m 79.213884,0.00389908 c -1.806197,0.0264022 -3.440798,0.0999606 -5.259188,0.2539291 -2.019702,0.1676169 -3.867565,0.4094482 -5.881998,0.7401894 C 66.064496,1.3438585 64.24684,1.7184549 62.286627,2.2194111 59.972117,2.8095377 57.654569,3.5187743 55.484093,4.3080915 51.645219,5.6956626 47.926077,7.4063374 44.355032,9.3823384 44.030203,9.5649704 43.309186,9.9817644 42.832659,10.254055 28.731092,18.519455 17.320368,31.05034 9.7157862,45.46472 3.3413724,57.583599 -0.01953913,71.258389 0.00291817,84.9509 c 0.00601,39.43206 -0.016371,78.86425 0.011223,118.29626 0.027622,9.94844 0.7844577,20.08907 3.37413063,29.7992 1.2010276,4.5366 2.7799429,8.9757 4.7628084,13.23029 0.376783,0.80506 0.894176,1.85972 1.355597,2.74702 4.1129128,7.88257 9.6198728,14.99109 15.8766008,21.28594 6.114551,6.12702 13.150683,11.49597 20.301166,16.17687 15.714293,10.24674 32.765386,18.16346 49.474019,26.60794 56.845927,28.41774 113.692227,56.83474 170.537927,85.25294 -53.39543,26.70515 -106.80186,53.38853 -160.19034,80.10746 -25.612743,12.9746 -49.249654,30.31223 -67.978805,52.1798 -12.462355,14.56019 -22.650186,31.17101 -29.2251848,49.207 -0.202819,0.56468 -0.5134132,1.45158 -0.757569,2.13985 -4.3176112,12.44313 -6.87124773,25.50659 -7.42675113,38.67 -0.01845,0.48992 -0.042541,1.33838 -0.063153,1.96567 -0.098702,3.07433 -0.052356,6.15135 0.063153,9.22453 0.030852,0.48939 0.071137,1.33718 0.1056029,1.9639 0.7454436,13.2555 3.55135303,26.37255 8.09048223,38.84201 0.215635,0.56001 0.542198,1.44109 0.80038,2.12423 8.7790018,22.96819 23.3817678,43.42971 41.0376298,60.42582 17.125185,16.49474 37.108168,29.86515 58.414795,40.34014 160.97095,80.48369 321.93664,160.97807 482.91266,241.45153 12.71417,6.2831 27.35074,8.2218 41.34679,6.3012 4.20498,-0.5656 8.36346,-1.4708 12.42945,-2.6819 0.71771,-0.2154 1.72398,-0.5333 2.5451,-0.8059 6.90763,-2.3208 13.52417,-5.5471 19.52355,-9.6921 0.66581,-0.4754 1.57158,-1.1084 2.31164,-1.6767 7.72916,-5.9572 14.49288,-13.17684 19.91779,-21.28997 0.93721,-1.41423 1.95336,-3.03169 2.84142,-4.57422 4.83235,-8.32941 8.19941,-17.501 9.93113,-26.97287 0.21019,-1.14807 0.43791,-2.54908 0.60863,-3.80298 0.80283,-5.51172 0.88175,-11.09034 0.82863,-16.64958 -0.008,-37.89478 0.0165,-75.78966 -0.0123,-113.68437 -0.0269,-4.09341 -0.12883,-7.97141 -0.45038,-12.04426 -0.80222,-10.68613 -3.12433,-21.34564 -7.6863,-31.0817 -0.75692,-1.62603 -1.67047,-3.40831 -2.59362,-5.04107 -0.68972,-1.22868 -1.50602,-2.57271 -2.21226,-3.66874 -6.35294,-9.86429 -14.69079,-18.34936 -24.04353,-25.3922 -12.02694,-9.08604 -25.37208,-16.21657 -38.77805,-23.0235 -63.31029,-31.67173 -126.63239,-63.31989 -189.94727,-94.98246 53.37528,-26.69416 106.76114,-53.3675 160.12978,-80.07468 25.64805,-12.98013 49.31616,-30.33369 68.06863,-52.22643 7.54957,-8.83177 14.26313,-18.39008 19.85475,-28.57941 0.31436,-0.59864 0.78991,-1.47533 1.16613,-2.18067 3.14486,-5.95526 5.88957,-12.12162 8.2025,-18.4468 0.20267,-0.56473 0.51307,-1.4517 0.75706,-2.14001 4.32108,-12.44127 6.87206,-25.50515 7.42726,-38.66787 0.0185,-0.48992 0.0426,-1.33838 0.0631,-1.96567 0.10325,-3.07499 0.0518,-6.15263 -0.0631,-9.22649 -0.0308,-0.48939 -0.0711,-1.33719 -0.10561,-1.96389 -1.14697,-20.65825 -7.33784,-40.90418 -17.23468,-59.03031 -10.12255,-18.61094 -23.98014,-35.04265 -39.88917,-48.9706 -0.83915,-0.71074 -1.85651,-1.61254 -2.77925,-2.38272 -5.62386,-4.74986 -11.49513,-9.20444 -17.56391,-13.37024 -1.1809,-0.79829 -2.54746,-1.73847 -3.82103,-2.56234 C 613.0233,258.346 603.33135,252.98374 593.403,248.12393 519.25178,211.04866 445.10059,173.9734 370.94942,136.89812 c -1.32768,-0.56346 -2.73689,-1.35416 -4.09583,-2.00477 C 281.90607,92.425074 196.96719,49.93919 112.01426,7.4819086 101.84386,2.5463818 90.529967,-0.11630272 79.213884,0.00389908 Z M 81.915846,78.584356 C 166.02048,120.63602 250.12514,162.68769 334.22978,204.73936 c 1.20781,0.49652 2.49891,1.23433 3.73861,1.82323 75.24857,37.63046 150.50668,75.24229 225.74929,112.8844 14.20885,7.22824 27.7969,16.00748 39.14047,27.2891 9.30179,9.2524 17.01171,20.39544 20.95422,32.99557 3.27875,10.32636 3.799,21.51788 1.37923,32.08547 -2.86959,12.80955 -9.76234,24.43772 -18.51914,34.10423 -10.38371,11.48783 -23.19326,20.53092 -36.69468,27.98847 -6.88431,3.78056 -13.99202,7.13125 -20.99294,10.68756 -94.41967,47.20953 -188.83935,94.41906 -283.25904,141.62859 108.85445,54.4317 217.71663,108.84806 326.56625,163.28935 9.60257,4.88984 19.06583,10.16138 27.72228,16.60884 2.1656,1.67724 4.36278,3.35668 6.19608,5.40393 0.62106,1.39211 0.3551,2.97194 0.45481,4.45368 0.0831,17.60606 0.0192,35.21264 0.0394,52.81891 0,23.66015 0,47.3203 0,70.98046 -0.5175,2.20388 -1.6981,4.18781 -2.78712,6.15163 -0.25762,0.65341 -0.57182,1.12165 -1.21342,0.51828 C 461.9993,866.0934 301.28648,785.74983 140.58534,705.3864 c -14.31791,-7.23557 -28.01606,-16.0308 -39.46579,-27.34918 -9.34231,-9.25123 -17.111248,-20.38804 -21.101253,-33.00481 -3.405311,-10.59981 -3.899314,-22.1249 -1.286762,-32.95523 2.916606,-12.42153 9.61978,-23.69845 18.090653,-33.13671 10.339152,-11.53052 23.128512,-20.61174 36.615782,-28.09684 6.9027,-3.81474 14.0443,-7.17261 21.07324,-10.74482 C 249.01546,492.84637 343.51973,445.59392 438.02398,398.34148 329.22456,343.95187 220.42503,289.56247 111.62567,235.17272 c -9.7279,-4.96932 -19.353631,-10.3004 -28.110903,-16.8763 -2.082693,-1.6138 -4.18563,-3.24327 -5.947944,-5.21195 -0.623944,-1.32154 -0.360767,-2.8444 -0.462392,-4.26076 -0.08347,-17.0365 -0.01942,-34.07356 -0.03956,-51.11027 0,-24.27832 0,-48.55665 0,-72.834961 0.452858,-2.594879 1.774275,-4.943264 3.233336,-7.101967 0.539216,0.269282 1.078433,0.538563 1.617648,0.807844 z"/></svg>
