<svg
   viewBox="0 0 253.64453 659.94138"
   version="1.1"
   id="svg896"
   inkscape:version="1.3.2 (091e20ef0f, 2023-11-25, custom)"
   sodipodi:docname="icons-showcase.svg"
   xml:space="preserve"
   xmlns:inkscape="http://www.inkscape.org/namespaces/inkscape"
   xmlns:sodipodi="http://sodipodi.sourceforge.net/DTD/sodipodi-0.dtd"
   xmlns="http://www.w3.org/2000/svg"
   xmlns:svg="http://www.w3.org/2000/svg"
   xmlns:rdf="http://www.w3.org/1999/02/22-rdf-syntax-ns#"
   xmlns:cc="http://creativecommons.org/ns#"
   xmlns:dc="http://purl.org/dc/elements/1.1/"><defs
     id="defs890" /><sodipodi:namedview
     id="base"
     pagecolor="#535353"
     bordercolor="#666666"
     borderopacity="1.0"
     inkscape:pageopacity="0"
     inkscape:pageshadow="2"
     inkscape:zoom="1.6642435"
     inkscape:cx="61.88998"
     inkscape:cy="316.05951"
     inkscape:document-units="px"
     inkscape:current-layer="layer1"
     inkscape:document-rotation="0"
     showgrid="false"
     units="px"
     inkscape:pagecheckerboard="true"
     inkscape:window-width="3840"
     inkscape:window-height="2078"
     inkscape:window-x="1920"
     inkscape:window-y="45"
     inkscape:window-maximized="1"
     inkscape:showpageshadow="2"
     inkscape:deskcolor="#d1d1d1" /><metadata
     id="metadata893"><rdf:RDF><cc:Work
         rdf:about=""><dc:format>image/svg+xml</dc:format><dc:type
           rdf:resource="http://purl.org/dc/dcmitype/StillImage" /></cc:Work></rdf:RDF></metadata><g
     inkscape:label="Layer 1"
     inkscape:groupmode="layer"
     id="layer1"
     transform="translate(-27.185547,-27.324219)"><path
       id="path1"
       style="fill:#000000"
       d="m 215.71725,43.409005 -0.16016,0.417968 c -0.0883,0.230182 -0.16016,0.692969 -0.16016,1.029297 v 0.611328 l -0.41406,0.158204 -0.41406,0.160156 -0.81055,-0.419922 -0.80859,-0.417969 -0.32227,0.355469 c -0.17708,0.194992 -0.63824,0.910648 -1.02539,1.591797 l -0.70508,1.238281 0.79493,0.566406 0.79492,0.564453 v 0.494141 0.492188 l -0.79492,0.566406 -0.79493,0.564453 0.70508,1.238281 c 0.38715,0.681146 0.84831,1.398758 1.02539,1.59375 l 0.32227,0.355469 0.80859,-0.419922 0.81055,-0.417969 0.41406,0.158203 0.41406,0.158204 v 0.611328 c 0,0.336328 0.0719,0.801068 0.16016,1.03125 l 0.16016,0.417968 h 1.79101 1.78906 l 0.16602,-1.035156 0.16602,-1.037109 0.33007,-0.121094 0.33204,-0.119141 0.90039,0.365235 c 0.49528,0.201289 0.92793,0.335165 0.96093,0.296875 0.033,-0.03829 0.45256,-0.714255 0.9336,-1.501953 l 0.875,-1.431641 -0.84375,-0.703125 c -0.46364,-0.387062 -0.8418,-0.846176 -0.8418,-1.019531 0,-0.173354 0.37016,-0.64703 0.82422,-1.052735 l 0.82617,-0.738281 -0.85156,-1.507812 c -0.46795,-0.829169 -0.88273,-1.507813 -0.92383,-1.507813 -0.0411,0 -0.47803,0.163907 -0.96875,0.363281 l -0.89062,0.363282 -0.33204,-0.121094 -0.33007,-0.119141 -0.16602,-1.037109 -0.16602,-1.035156 h -1.78906 z m -124.880863,0.738281 -2.542969,1.912109 -2.542969,1.910157 v 3.804687 3.804688 h 2.38086 2.382812 v -1.851563 -1.851562 h 0.529297 0.529297 v 1.851562 1.851563 h 2.248047 2.248047 l -0.0078,-3.902344 -0.0098,-3.902344 -2.142578,-1.587891 c -1.179077,-0.873121 -2.352365,-1.688387 -2.607422,-1.8125 z m -44.84375,0.05469 -0.876953,0.542969 -0.878906,0.541016 -0.542969,0.878906 -0.541016,0.876953 v 1.240235 1.238281 l 0.398438,0.771484 0.40039,0.773438 0.984375,0.669922 0.984375,0.669921 h 1.25 1.248047 l 0.689453,-0.314453 0.689453,-0.314453 1.900391,1.902344 c 1.045687,1.045684 1.972747,1.90039 2.060547,1.900391 0.0879,0 0.354687,-0.21456 0.591797,-0.476563 l 0.429687,-0.476562 -1.9375,-1.923829 -1.9375,-1.925781 0.398438,-1.107422 0.398437,-1.107422 L 51.518028,47.58088 51.334434,46.598458 50.65084,45.787911 C 50.2755,45.341839 49.631199,44.801746 49.219199,44.588692 L 48.471153,44.201973 H 47.232871 Z M 217.00826,44.73127 h 0.51758 0.51563 v 0.767578 0.767579 l 0.96289,0.568359 0.96289,0.568359 0.74218,-0.257812 0.74024,-0.257813 0.33398,0.402344 0.33399,0.402344 -0.64844,0.488281 -0.64844,0.488281 -0.0449,1.007813 -0.043,1.007812 0.70117,0.589844 0.70313,0.587891 -0.41797,0.417968 -0.41602,0.416016 -0.65625,-0.298828 -0.65429,-0.298828 -0.97461,0.576172 -0.97656,0.576172 v 0.767578 0.767578 h -0.51563 -0.51758 l -0.16601,-0.861328 -0.16602,-0.859375 -1.02539,-0.478516 -1.02344,-0.478516 -0.57617,0.306641 -0.57422,0.308594 -0.22656,-0.357422 c -0.12479,-0.196924 -0.23042,-0.44208 -0.23242,-0.542969 -0.002,-0.100888 0.22435,-0.342673 0.50195,-0.537109 l 0.50391,-0.351563 0.082,-1.11914 0.0801,-1.119141 -0.58594,-0.410156 c -0.322,-0.225546 -0.58208,-0.492861 -0.58008,-0.59375 0.002,-0.100889 0.0998,-0.335898 0.21875,-0.523438 l 0.2168,-0.341797 0.67383,0.25586 0.67578,0.257812 0.93359,-0.445312 0.93359,-0.44336 0.16797,-0.861328 z m -38.14844,0.425782 -1.76953,1.769531 -1.76953,1.769531 -1.77539,-1.763672 -1.77539,-1.761719 -0.41211,0.341797 c -0.22632,0.187834 -0.41211,0.472645 -0.41211,0.632813 0,0.160167 0.7412,1.037756 1.64649,1.951172 l 1.64648,1.662109 -1.64648,1.660156 c -0.90529,0.913417 -1.64649,1.782759 -1.64649,1.931641 0,0.148881 0.14373,0.413266 0.31836,0.587891 0.17462,0.174622 0.3865,0.318359 0.4707,0.318359 0.0842,0 0.91968,-0.774547 1.85743,-1.720703 l 1.70507,-1.720703 1.78321,1.769531 1.78515,1.771484 0.54688,-0.498047 0.54883,-0.496093 -1.78907,-1.802735 -1.7871,-1.800781 1.7871,-1.802734 1.78907,-1.802735 -0.55078,-0.498047 z m -131.939449,0.320312 0.878907,0.166016 0.876953,0.164062 0.677734,0.804688 0.677734,0.804687 v 0.902344 0.902344 l -0.728515,0.80664 -0.726563,0.806641 -0.925781,0.136719 -0.925781,0.134765 -0.837891,-0.523437 -0.835937,-0.523438 -0.19336,-0.613281 c -0.10688,-0.336763 -0.184928,-0.932441 -0.173828,-1.324219 0.0111,-0.391776 0.150727,-0.95722 0.310547,-1.255859 l 0.291016,-0.542969 0.816406,-0.421875 z m 216.986329,0.341797 -2.88281,2.894531 -2.88477,2.892578 -1.3457,-1.330078 -1.34766,-1.330078 -0.49609,0.548828 -0.49414,0.546875 1.83008,1.84375 1.83007,1.84375 3.37891,-3.371094 3.37891,-3.371093 v -0.324219 c 0,-0.178881 -0.21682,-0.441838 -0.48243,-0.583984 z M 90.99459,46.053536 c 0.12838,0 1.024598,0.599553 1.992188,1.332031 l 1.759765,1.332031 v 2.769532 2.769531 h -0.925781 -0.925781 v -1.853516 -1.851562 h -1.984375 -1.984375 v 1.851562 1.853516 H 88.131309 87.33834 l 0.0098,-2.845703 0.01172,-2.84375 1.701172,-1.25586 c 0.935347,-0.691221 1.805214,-1.257812 1.933594,-1.257812 z m 36.56055,0 v 0.662109 0.66211 h 5.82031 5.82031 v -0.66211 -0.662109 h -5.82031 z m 90.18359,1.289062 -0.77148,0.169922 -0.77149,0.169922 -0.53125,0.675781 -0.5332,0.677735 v 0.699219 0.699218 l 0.42578,0.607422 c 0.23385,0.333871 0.68034,0.71009 0.99219,0.835938 0.31185,0.125845 0.74461,0.23544 0.96289,0.24414 0.21828,0.0087 0.77337,-0.21423 1.23242,-0.49414 l 0.83398,-0.507813 0.16797,-0.767578 0.16993,-0.767578 -0.26368,-0.693359 -0.26562,-0.695313 -0.82422,-0.425781 z m -90.18359,1.886719 v 0.66211 0.660156 h 5.82031 5.82031 v -0.660156 -0.66211 h -5.82031 z m 0,3.173828 v 0.66211 0.662109 h 5.82031 5.82031 v -0.662109 -0.660157 h -5.82031 z m 87.31836,39.035156 -0.59375,0.591797 -0.5918,0.591797 2.63477,2.646485 2.63476,2.644531 -2.625,2.634769 -2.625,2.63476 0.48828,0.53906 c 0.26867,0.29688 0.56149,0.54102 0.65039,0.54102 0.0889,0 1.58762,-1.42877 3.33008,-3.17578 l 3.16797,-3.177735 -3.23633,-3.234375 z m 43.70117,0.06641 -0.91211,0.300781 -0.91406,0.300781 -1.10743,0.947266 -1.10546,0.947265 -0.56641,1.095704 -0.56836,1.095703 v 1.720703 1.71875 l 0.56055,1.083986 0.5625,1.08398 0.98633,0.86523 c 0.54294,0.47673 1.35486,1.03372 1.80273,1.23633 l 0.81445,0.36719 1.87696,-0.0723 1.87695,-0.0723 1.29101,-0.79883 1.29102,-0.79687 0.79883,-1.29493 0.80273,-1.294916 V 97.912844 95.8855 l -0.80273,-1.294922 -0.79883,-1.294922 -1.2793,-0.789062 -1.27734,-0.791016 -1.66602,-0.105469 z m -167.566408,0.06055 c -0.0916,-0.0016 -0.553071,0.932177 -1.025391,2.076171 l -0.859375,2.080079 -2.121093,0.164062 c -1.167327,0.09002 -2.175835,0.21689 -2.240235,0.28125 -0.0644,0.06436 0.339798,0.528751 0.898438,1.033203 0.558647,0.504455 1.309831,1.155532 1.667968,1.445313 l 0.650391,0.527343 -0.457031,1.949228 c -0.25087,1.07244 -0.453172,2.10638 -0.451172,2.29687 l 0.0039,0.3457 0.197266,-0.11718 c 0.10914,-0.064 0.990347,-0.59802 1.958984,-1.1875 l 1.761719,-1.07227 1.914062,1.17969 c 1.052527,0.64893 1.959725,1.13403 2.015625,1.07812 0.0559,-0.0559 -0.125646,-1.07342 -0.402343,-2.26172 l -0.501953,-2.160156 1.714843,-1.50586 1.714844,-1.505859 -0.253906,-0.08594 c -0.13947,-0.04649 -1.17932,-0.169286 -2.310547,-0.273437 L 92.826621,95.662911 92.000449,93.616036 C 91.545932,92.48987 91.099862,91.566855 91.008262,91.565255 Z m 79.249998,0.52539 -0.31836,0.31836 -0.3164,0.318359 v 5.185547 5.185553 l 0.3164,0.3164 0.31836,0.31836 h 2.59375 2.5918 v -0.66211 -0.66015 h -2.24805 -2.25 V 97.912917 93.41487 h 2.25 2.24805 v -0.662109 -0.660157 h -2.5918 z m -121.316404,0.439453 -2.63086,2.619141 -2.628906,2.621094 2.576172,2.585941 2.574219,2.58594 0.25,-0.084 c 0.137167,-0.0457 0.375467,-0.28152 0.529297,-0.52539 l 0.279296,-0.44336 -1.707031,-1.72461 -1.708984,-1.722656 h 3.761719 3.763671 v -0.66211 -0.662109 h -3.763671 -3.761719 l 1.646484,-1.660156 c 0.905307,-0.913417 1.646485,-1.791004 1.646485,-1.951172 0,-0.160167 -0.187113,-0.446414 -0.414063,-0.634766 z M 259.63912,92.88752 c 0.33209,8.12e-4 1.08003,0.132162 1.66211,0.292969 l 1.05859,0.292969 0.9668,1.013672 0.96875,1.015625 0.25586,1.205078 0.25781,1.205078 -0.25781,1.205078 -0.25586,1.205081 -0.96875,1.01367 -0.9668,1.01562 -1.05859,0.29102 c -0.58208,0.16081 -1.3569,0.29146 -1.7207,0.28906 -0.3638,-0.002 -1.13667,-0.22354 -1.71875,-0.49219 -0.58208,-0.26865 -1.32015,-0.77444 -1.64063,-1.12304 -0.32047,-0.34861 -0.76699,-1.07424 -0.99218,-1.613284 l -0.41016,-0.980468 0.006,-0.869141 0.006,-0.867187 0.48828,-1.058594 c 0.26864,-0.582083 0.77445,-1.322104 1.12305,-1.642578 0.34861,-0.320476 1.07424,-0.766962 1.61328,-0.992188 0.53904,-0.225226 1.25188,-0.407061 1.58398,-0.40625 z m -127.96875,1.056641 -0.5293,0.527344 -0.52734,0.529296 1.4375,1.455079 1.4375,1.457031 -1.42773,1.445312 -1.42969,1.447267 0.49805,0.55078 0.49804,0.54883 1.99414,-1.994142 1.99414,-1.994141 -1.97265,-1.986328 z m 46.10547,0.792969 c -0.10823,0 -0.33046,0.250797 -0.49414,0.55664 l -0.29688,0.556641 0.73438,0.765625 0.73437,0.767578 h -2.5625 -2.56445 v 0.662109 0.660157 h 2.56445 2.5625 l -0.75585,0.789062 -0.75586,0.789058 0.49023,0.54297 0.49219,0.54297 1.66992,-1.654295 1.67187,-1.65625 -1.64648,-1.660156 c -0.90545,-0.913562 -1.73553,-1.662109 -1.84375,-1.662109 z m 81.27734,0 v 1.175781 1.177734 l -1.25781,0.08008 -1.25586,0.08008 v 0.66211 0.660156 l 1.25586,0.08203 1.25781,0.08008 v 1.175782 1.175777 h 0.79297 0.79297 V 99.897286 98.70588 h 1.19141 1.1914 v -0.792969 -0.794922 h -1.1914 -1.19141 V 95.928536 94.73713 h -0.79297 z m -168.080074,0.396484 0.433593,0.992187 0.435547,0.992188 1.121094,0.0078 1.121094,0.0078 -0.886719,0.806641 -0.886719,0.80664 0.263672,1.03711 c 0.14495,0.57085 0.245507,1.03755 0.22461,1.03516 -0.0209,-0.002 -0.434978,-0.26057 -0.921875,-0.57226 l -0.886719,-0.566416 -0.78711,0.464846 c -0.432667,0.25559 -0.832725,0.41725 -0.890625,0.35938 -0.0579,-0.0579 -0.0065,-0.45553 0.115235,-0.884773 l 0.220703,-0.78125 -0.810547,-0.859375 -0.810547,-0.861328 h 1.074219 1.074219 l 0.398437,-0.992188 z M 217.47897,139.98322 c -0.0916,-0.002 -0.55307,0.93414 -1.0254,2.07813 l -0.85937,2.08008 -2.12109,0.16211 c -1.16733,0.09 -2.17584,0.21685 -2.24024,0.28125 -0.0644,0.0643 0.3398,0.5307 0.89844,1.03515 0.55864,0.50446 1.30983,1.15358 1.66797,1.44336 l 0.65039,0.52735 -0.45703,1.94921 c -0.25087,1.07246 -0.45317,2.10639 -0.45117,2.29688 l 0.004,0.3457 0.19727,-0.11523 c 0.10914,-0.064 0.99231,-0.59998 1.96093,-1.18946 l 1.75977,-1.07226 1.91406,1.17969 c 1.05253,0.64893 1.95973,1.13402 2.01563,1.07812 0.0559,-0.0559 -0.12565,-1.07343 -0.40235,-2.26172 l -0.50195,-2.16015 1.71484,-1.50586 1.71485,-1.50586 -0.25391,-0.084 c -0.13948,-0.0465 -1.17735,-0.17124 -2.30859,-0.27539 l -2.0586,-0.18945 -0.82617,-2.04688 c -0.45452,-1.12613 -0.90061,-2.04918 -0.99218,-2.05078 z m -83.04493,0.52539 v 0.66211 0.66211 h 1.11914 1.11914 l -2.38671,2.44727 c -1.3129,1.34607 -2.60633,2.71241 -2.875,3.03711 l -0.49024,0.58984 0.33399,0.40235 c 0.18342,0.22101 0.41,0.40234 0.5039,0.40234 0.0939,0 1.41998,-1.25276 2.94531,-2.78516 l 2.77344,-2.78711 0.13086,1 0.13281,1 h 0.66211 0.66211 l 0.0762,-2.31445 0.0762,-2.31641 h -2.39258 z m -48.578122,0.002 -0.316406,0.3164 -0.318359,0.31836 v 5.18555 5.18555 l 0.318359,0.31836 0.316406,0.3164 h 5.087891 5.08789 l 0.416016,-0.41601 0.416016,-0.41602 v -4.91992 -4.92188 l -0.439453,-0.48242 -0.4375,-0.48437 h -5.064454 z m 42.333982,0 -0.31836,0.3164 -0.3164,0.31836 v 5.18555 5.18555 l 0.3164,0.31836 0.31836,0.3164 h 5.08789 5.08789 l 0.41407,-0.41601 0.41601,-0.41602 v -2.49414 -2.49414 h -0.79297 -0.79492 v 2.24805 2.25 h -4.36523 -4.36524 v -4.49805 -4.49805 h 2.25 2.24805 v -0.66211 -0.66015 h -2.59375 z m 130.92383,0.46679 -0.96289,0.31836 c -0.52998,0.17491 -1.33354,0.63006 -1.78711,1.01172 l -0.82617,0.69336 -0.48438,1.07031 -0.48632,1.06836 -0.006,1.00196 -0.006,1 0.41015,0.98437 c 0.226,0.54103 0.73253,1.32429 1.125,1.74219 0.39246,0.41791 1.07125,0.92036 1.50782,1.11523 l 0.79296,0.35352 1.43165,0.01 1.43164,0.0117 1.14062,-0.66992 1.14063,-0.66797 0.66992,-1.14062 c 0.36767,-0.62738 0.66797,-1.22001 0.66797,-1.31641 0,-0.0964 -0.34539,-0.17383 -0.76758,-0.17383 h -0.76758 l -0.51758,0.87696 -0.51953,0.8789 -0.99805,0.47266 -0.99804,0.47461 -0.91797,-0.14844 c -0.50553,-0.082 -1.21105,-0.34138 -1.56641,-0.57422 -0.35536,-0.23284 -0.8766,-0.80254 -1.16015,-1.26758 l -0.51563,-0.8457 v -1.05859 -1.0586 l 0.51563,-0.8457 c 0.28355,-0.46504 0.78867,-1.02091 1.12304,-1.23633 0.33437,-0.21543 1.02388,-0.46481 1.53321,-0.55469 l 0.92578,-0.16406 1.17773,0.60742 c 0.64757,0.33377 1.2235,0.75559 1.2793,0.9375 l 0.10156,0.33008 h -1.21289 -1.21289 v 0.66211 0.66016 h 2.24805 2.25 v -2.24805 -2.25 h -0.66211 -0.66016 v 0.66211 c 0,0.36381 -0.0639,0.66211 -0.14258,0.66211 -0.0786,0 -0.48882,-0.25491 -0.91015,-0.56641 l -0.76563,-0.5664 -1.30859,-0.12696 z m -172.570312,0.85547 h 4.367188 4.365234 v 4.49805 4.49805 h -4.365234 -4.367188 v -4.49805 z m -33.507812,0.56055 -2.884766,2.89258 -2.884766,2.89258 -1.345703,-1.33008 -1.347656,-1.32813 -0.496094,0.54688 -0.49414,0.54687 1.830078,1.84375 1.830078,1.84571 3.378906,-3.37305 3.378906,-3.37109 v -0.32422 c 0,-0.17888 -0.216824,-0.44184 -0.482421,-0.58399 z m 118.042964,0.23437 -0.86328,0.52735 -0.86132,0.52539 -0.5254,0.86133 -0.52734,0.86328 v 1.05664 1.05859 l 0.52734,0.86328 0.5254,0.86133 0.86132,0.52735 0.86328,0.52539 h 4.36524 4.36523 l 0.875,-0.53321 0.87696,-0.53515 0.50781,-1.11914 c 0.27938,-0.61545 0.50781,-1.35739 0.50781,-1.64844 0,-0.29104 -0.22843,-1.03103 -0.50781,-1.64649 l -0.50781,-1.11914 -0.87696,-0.5332 -0.875,-0.53516 h -4.36523 z m 46.36524,0.92383 0.43359,0.99219 0.43555,0.99219 1.12109,0.008 1.1211,0.008 -0.88672,0.80664 -0.88672,0.80664 0.26367,1.03907 c 0.14484,0.57049 0.2455,1.03325 0.22461,1.03125 -0.0209,-0.002 -0.43497,-0.2586 -0.92187,-0.57032 l -0.88672,-0.5664 -0.78516,0.46484 c -0.43268,0.25559 -0.83468,0.41728 -0.89258,0.35938 -0.0579,-0.0579 -0.007,-0.45747 0.11524,-0.88672 l 0.2207,-0.7793 -0.81055,-0.85937 -0.81054,-0.86133 h 1.07422 1.07421 l 0.39844,-0.99219 z m -123.775392,0.0352 -1.787109,1.77344 -1.78711,1.77148 -0.904296,-0.93164 -0.904297,-0.93359 -0.53125,0.53125 -0.53125,0.53125 1.304687,1.32422 c 0.717377,0.72829 1.429775,1.32421 1.583985,1.32421 0.154197,0 1.263822,-0.98998 2.466796,-2.19921 l 2.1875,-2.19922 -0.548828,-0.4961 z m 77.765622,0.36328 h 3.71289 3.71094 l 0.69531,0.31445 0.69336,0.31641 0.37696,0.73047 c 0.20737,0.401 0.37695,0.91766 0.37695,1.15039 0,0.23274 -0.16958,0.75133 -0.37695,1.15234 l -0.37696,0.73047 -0.69336,0.31641 -0.69531,0.31445 h -3.71094 -3.71289 l -0.77343,-0.77148 -0.77344,-0.77539 v -0.9668 -0.96484 l 0.77344,-0.77344 z m 6.36719,0.52734 -0.65039,0.65039 -0.64844,0.6504 v 0.68359 0.6875 l 0.64844,0.64844 0.65039,0.64843 h 0.75586 0.75586 l 0.57812,-0.53906 0.58008,-0.53906 v -0.90625 -0.9043 l -0.58008,-0.53906 -0.57812,-0.54102 h -0.75586 z m 38.44141,43.59961 -0.91407,0.30078 -0.91406,0.30274 -1.10547,0.94726 -1.10547,0.94532 -0.56835,1.0957 -0.56836,1.09766 v 1.71875 1.7207 l 0.5625,1.08203 0.56054,1.08399 0.98828,0.86718 c 0.54297,0.47673 1.35291,1.03177 1.80079,1.23438 l 0.81445,0.36914 1.87695,-0.0742 1.87891,-0.0723 1.28906,-0.79687 1.29102,-0.79688 0.80078,-1.29687 0.80078,-1.29492 v -2.02539 -2.02539 l -0.80078,-1.29493 -0.80078,-1.29492 -1.27735,-0.79101 -1.27929,-0.78907 -1.66407,-0.10742 z m -82.5918,1.00977 -0.73242,0.25781 -0.73438,0.25586 -0.084,0.73828 -0.0859,0.74024 0.32813,0.39257 0.32617,0.39454 0.8125,-0.0781 0.81055,-0.0801 0.25585,-0.73437 0.25782,-0.73242 -0.57617,-0.57618 z m 3.17969,0.01 -0.53711,0.48633 -0.53711,0.48633 v 0.56836 0.56641 l 0.31836,0.31836 0.3164,0.31836 h 0.70899 0.70898 l 0.31641,-0.38086 0.31445,-0.38086 -0.084,-0.74024 -0.0859,-0.73828 -0.71875,-0.25195 z m -46.582034,0.0625 v 2.58008 2.58008 l -0.785156,-0.75 -0.783203,-0.75195 -0.40625,0.33789 c -0.22354,0.18553 -0.40625,0.46744 -0.40625,0.62695 0,0.15948 0.620079,0.91909 1.378906,1.6875 0.759007,0.76856 1.50706,1.39649 1.66211,1.39649 0.155037,0 0.983456,-0.70684 1.839843,-1.57227 l 1.556641,-1.57422 -0.341797,-0.41015 c -0.18755,-0.22598 -0.486155,-0.41211 -0.664062,-0.41211 -0.17791,0 -0.550908,0.25112 -0.828125,0.55859 l -0.503907,0.56055 -0.130859,-2.34571 -0.132813,-2.34375 -0.728515,-0.084 z m 38.802734,0.0352 -0.48437,0.4375 -0.48243,0.4375 v 0.46875 0.4707 l 0.41407,0.41602 0.41601,0.41602 h 0.63672 0.63672 l 0.43359,-0.66211 0.4336,-0.66211 -0.4336,-0.66016 -0.43359,-0.66211 h -0.56836 z m 88.25391,0.26563 c 0.33208,8.1e-4 1.08003,0.13215 1.66211,0.29296 l 1.05859,0.29297 0.96875,1.01563 0.9668,1.01367 0.25781,1.20508 0.25586,1.20508 -0.25586,1.20507 -0.25781,1.20508 -0.9668,1.01563 -0.96875,1.01367 -1.05859,0.29297 c -0.58208,0.16081 -1.35495,0.28911 -1.71875,0.28711 -0.3638,-0.002 -1.13863,-0.22354 -1.72071,-0.49219 -0.58209,-0.26865 -1.32014,-0.77445 -1.64062,-1.12305 -0.32048,-0.34861 -0.76696,-1.07424 -0.99219,-1.61328 l -0.41016,-0.98047 0.006,-0.86718 0.006,-0.86914 0.48828,-1.0586 c 0.26864,-0.58208 0.77445,-1.32014 1.12305,-1.64062 0.34861,-0.32047 1.07423,-0.76697 1.61328,-0.99219 0.53904,-0.22523 1.25189,-0.40901 1.58399,-0.4082 z m -40.52539,0.96289 -0.54297,0.49218 -0.54492,0.49219 1.12304,1.14258 1.1211,1.14258 h -3.89258 -3.89063 v 0.66211 0.66015 h 3.89063 3.89258 l -1.08789,1.125 -1.08789,1.125 0.30273,0.46289 c 0.16692,0.25466 0.42795,0.46289 0.57812,0.46289 0.15017,0 1.09027,-0.82473 2.08985,-1.83203 l 1.81836,-1.83203 -0.81055,-1.01172 c -0.44543,-0.55705 -1.29407,-1.48112 -1.88476,-2.05273 z m 39.45117,0.88867 -0.79688,0.66992 -0.79687,0.66992 -0.30274,0.91602 -0.30273,0.91797 0.30273,0.91797 0.30274,0.91601 0.79687,0.67188 0.79688,0.66992 h 1.05078 1.05078 l 0.77539,-0.40235 0.77735,-0.40039 0.40039,-0.77734 0.40234,-0.77539 v -0.82031 -0.82032 l -0.40234,-0.77539 -0.40039,-0.77539 -0.77735,-0.40234 -0.77539,-0.40039 h -1.05078 z m -166.982424,1.74414 -0.732422,0.25781 -0.732421,0.25586 -0.08594,0.73828 -0.08594,0.74024 0.328125,0.39257 0.326171,0.39454 0.8125,-0.0781 0.810547,-0.0801 0.25586,-0.73437 0.257812,-0.73242 -0.576172,-0.57618 z m 3.179688,0.01 -0.53711,0.48633 -0.537109,0.48633 v 0.56836 0.56641 l 0.318359,0.31836 0.31836,0.31836 h 0.707031 0.708984 l 0.316407,-0.38086 0.316406,-0.38086 -0.08594,-0.74024 -0.08594,-0.73828 -0.71875,-0.25195 z m 77.324216,0.0195 -0.69726,0.17578 -0.69922,0.17383 -0.16797,0.66992 -0.16797,0.66797 0.4707,0.51757 0.46875,0.51954 h 0.61329 0.61523 l 0.45117,-0.68946 0.45117,-0.6875 -0.26367,-0.41992 c -0.14523,-0.23024 -0.44751,-0.53158 -0.66992,-0.67187 z m 3.0625,0.0391 -0.38086,0.3164 -0.38086,0.31641 v 0.74805 0.74804 l 0.46289,0.26954 c 0.25466,0.14833 0.65266,0.27334 0.88477,0.27734 l 0.42188,0.01 0.48632,-0.53907 0.48633,-0.53711 -0.25195,-0.71875 -0.25195,-0.71875 -0.73829,-0.0859 z m -88.166013,0.0391 -0.484375,0.4375 -0.482422,0.4375 v 0.46875 0.4707 l 0.416016,0.41602 0.416015,0.41602 h 0.634766 0.636719 l 0.433593,-0.66211 0.433594,-0.66211 -0.433594,-0.66016 -0.433593,-0.66211 h -0.56836 z m 91.742183,0 -0.3164,0.31641 c -0.17462,0.17463 -0.31836,0.55298 -0.31836,0.83984 v 0.52149 l 0.4375,0.48437 c 0.24084,0.26612 0.6072,0.48438 0.8125,0.48438 0.20529,0 0.60329,-0.12476 0.88476,-0.2754 l 0.51172,-0.27343 v -0.73047 -0.73242 l -0.31836,-0.31836 -0.3164,-0.31641 h -0.6875 z m 118.95704,0.5293 v 0.66211 0.66015 h 4.49804 4.49805 v -0.66015 -0.66211 h -4.49805 z m -169.597661,2.64648 v 1.16992 1.17188 l 0.416016,0.41601 0.416016,0.41602 h 4.425781 4.425781 l 0.31836,-0.31836 0.316406,-0.31641 v -1.26953 -1.26953 h -0.660156 -0.66211 v 0.92578 0.92578 H 91.041465 87.33834 v -0.92578 -0.92578 h -0.794922 z m 47.900391,0.42188 -0.73242,0.25586 -0.73438,0.25781 -0.084,0.73828 -0.0859,0.73828 0.32813,0.39453 0.32617,0.39453 0.8125,-0.0801 0.81055,-0.0801 0.25585,-0.73242 0.25782,-0.73243 -0.57617,-0.57812 z m 3.17969,0.01 -0.53711,0.48633 -0.53711,0.48633 v 0.56836 0.5664 l 0.31836,0.31836 0.3164,0.31641 h 0.70899 0.70898 l 0.31641,-0.38086 0.31445,-0.38086 -0.084,-0.73828 -0.0859,-0.73828 -0.71875,-0.25195 z m -7.7793,0.0977 -0.48437,0.4375 -0.48243,0.4375 v 0.46875 0.4707 l 0.41407,0.41406 0.41601,0.41602 h 0.63672 0.63672 l 0.43359,-0.66016 0.4336,-0.66211 -0.4336,-0.6621 -0.43359,-0.66016 h -0.56836 z m -80.062499,38.79492 -0.539063,0.48828 -0.539062,0.48828 0.392578,0.4336 0.392578,0.43359 -1.226563,0.32617 -1.224609,0.32813 -0.988281,0.98828 -0.988281,0.98828 -0.291016,1.05273 c -0.16069,0.5788 -0.292159,1.36177 -0.292969,1.74024 -8.2e-4,0.37847 0.129303,1.0632 0.289063,1.52148 l 0.289062,0.83399 h 0.31836 c 0.174937,0 0.450911,-0.13452 0.613281,-0.29688 l 0.294922,-0.29492 -0.140625,-1.375 -0.142578,-1.37695 0.40039,-0.77539 c 0.22098,-0.42732 0.635985,-0.98933 0.921875,-1.24805 0.28589,-0.25873 0.908153,-0.58067 1.382813,-0.7168 l 0.863281,-0.24804 -0.466797,0.51562 -0.464844,0.51367 0.333985,0.40235 c 0.183417,0.221 0.471075,0.40234 0.640625,0.40234 0.169547,0 0.870653,-0.57112 1.55664,-1.26758 l 1.246094,-1.26562 -1.314453,-1.29492 z m 125.185549,0.83203 -0.91406,0.30274 -0.91407,0.30078 -1.10547,0.94726 -1.10742,0.94727 -0.5664,1.0957 -0.56836,1.09571 v 1.71875 1.7207 l 0.56054,1.08398 0.5625,1.08203 0.98633,0.86719 c 0.54297,0.47673 1.35487,1.03177 1.80274,1.23438 l 0.81445,0.36914 1.87695,-0.0723 1.87696,-0.0723 1.29101,-0.79883 1.29102,-0.79688 0.80078,-1.29492 0.80078,-1.29492 v -2.02734 -2.0254 l -0.80078,-1.29492 -0.80078,-1.29492 -1.2793,-0.79101 -1.27734,-0.78907 -1.66602,-0.10547 z m -39.74024,1.11719 v 1.98437 1.98438 h 0.79493 0.79296 l 0.008,-0.5957 0.008,-0.59375 0.38476,0.50781 c 0.2118,0.27995 0.45693,0.89218 0.54493,1.36133 l 0.16015,0.85351 -0.52343,1.18555 -0.5254,1.18555 -0.82226,0.48632 -0.82227,0.48633 v 0.60352 0.60547 h 0.43164 c 0.23748,0 0.83478,-0.24903 1.32618,-0.55274 l 0.89257,-0.55273 0.66016,-1.125 0.6582,-1.12305 v -1.54101 -1.54102 l -0.67187,-1.14844 -0.67383,-1.14843 h 0.67383 0.67187 v -0.66016 -0.66211 h -1.98437 z m 40.47266,0.19531 1.08984,0.17578 c 0.59951,0.0959 1.42998,0.34854 1.84375,0.5625 0.41376,0.21397 1.04904,0.7779 1.41211,1.25391 l 0.66016,0.86523 0.24805,1.11133 0.25,1.10938 -0.25196,1.18164 -0.25195,1.18164 -0.32813,0.27344 -0.32617,0.27148 -3.35937,-3.36719 c -1.84748,-1.85159 -3.35938,-3.44396 -3.35938,-3.53906 0,-0.0951 0.53482,-0.37769 1.1875,-0.62695 z m -43.13281,0.0703 c -0.15274,0 -0.63029,0.18275 -1.0625,0.40625 l -0.78711,0.40625 -0.77344,1.07032 -0.77734,1.07031 -0.16993,1.14453 -0.17187,1.14453 0.17773,0.8086 c 0.0978,0.44515 0.46163,1.23194 0.81055,1.74609 l 0.63477,0.93359 h -0.78516 -0.78516 v 0.66211 0.66211 h 1.98438 1.98437 v -1.98437 -1.98438 h -0.64453 -0.64453 l -0.0859,0.72656 -0.0879,0.72852 -0.45898,-0.84766 -0.45899,-0.8457 v -1.00586 -1.00586 l 0.51563,-0.8457 c 0.28355,-0.46503 0.8187,-1.04418 1.18945,-1.28711 l 0.67578,-0.44141 v -0.63086 -0.63086 z m 84.94531,0 v 3.76172 3.76172 l -1.71094,-1.69531 -1.71094,-1.69336 -0.54882,0.49609 -0.54883,0.4961 2.58789,2.59765 2.58594,2.59571 2.63086,-2.62891 2.6289,-2.63086 -0.34375,-0.41406 c -0.18918,-0.22794 -0.49492,-0.41406 -0.67969,-0.41406 h -0.33593 l -1.48438,1.60351 -1.48242,1.60156 v -3.71875 -3.71875 h -0.79492 z m 37.30664,1.32227 v 0.66211 0.66211 h 5.82031 5.82032 v -0.66211 -0.66211 h -5.82032 z m -167.349609,0.002 -0.861328,0.52539 -0.863282,0.52539 -0.52539,0.86329 -0.525391,0.86132 v 1.0586 1.05859 l 0.525391,0.86133 0.52539,0.86328 0.863282,0.52539 0.861328,0.52539 1.138672,0.002 h 1.136718 l 0.763672,-0.39454 c 0.42051,-0.21745 0.952208,-0.66155 1.179688,-0.98632 l 0.412109,-0.58985 0.929688,0.5 0.927734,0.5 0.658203,-0.35351 0.658203,-0.35157 0.669922,0.35743 0.669922,0.35937 1.445312,-1.42773 1.447266,-1.42969 -0.978516,-1.00195 -0.978515,-1.00196 h -2.828125 -2.830078 l -0.150391,-0.39453 c -0.0834,-0.21745 -0.543657,-0.63445 -1.021484,-0.92578 l -0.869141,-0.5293 h -1.189453 z m 84.666019,0.77539 3.4082,3.41797 3.40625,3.41992 -0.17578,0.28321 c -0.0964,0.15604 -0.61778,0.40655 -1.1582,0.55664 -0.54044,0.1501 -1.28074,0.26958 -1.64454,0.26758 -0.36381,-0.002 -1.13667,-0.22354 -1.71875,-0.49219 -0.58208,-0.26865 -1.32015,-0.77445 -1.64062,-1.12305 -0.32048,-0.34861 -0.76696,-1.07423 -0.99219,-1.61328 l -0.41015,-0.98047 0.008,-0.86719 0.006,-0.86914 0.45703,-1 z m -118.087894,0.1543 -0.523438,0.47461 -0.523437,0.47461 0.27539,0.89844 0.275391,0.90039 -0.457031,1.19922 -0.458985,1.19922 -0.707031,0.49804 c -0.38885,0.27379 -0.981762,0.58293 -1.318359,0.6875 l -0.613282,0.18946 0.34375,-0.54688 0.341797,-0.54883 -0.457031,-0.45703 -0.458984,-0.45703 -1.322266,1.30273 -1.324219,1.30469 1.248047,1.26563 c 0.685977,0.69646 1.325075,1.26757 1.421875,1.26757 0.0968,0 0.326346,-0.18133 0.509766,-0.40234 l 0.333984,-0.40234 -0.474609,-0.52344 -0.47461,-0.52539 h 0.783204 0.783203 l 1.230468,-0.7793 1.228516,-0.78125 0.542969,-1.06054 0.541015,-1.0625 v -1.54688 -1.54687 l -0.373046,-0.50977 z m 33.777343,0.39063 h 0.564454 c 0.309457,0 0.905191,0.17784 1.324218,0.39453 l 0.761719,0.39258 0.167969,0.5332 0.169922,0.53125 h 2.992187 2.992188 l 0.294922,0.35742 0.296875,0.35742 -0.494141,0.44531 -0.494141,0.44727 -0.693359,-0.31641 -0.695313,-0.3164 -0.537109,0.48633 -0.537109,0.48437 -0.310547,-0.31055 -0.310547,-0.31054 h -1.251953 -1.251953 l -0.169922,0.53125 -0.167969,0.5332 -0.761719,0.39258 c -0.419027,0.21668 -1.014761,0.39453 -1.324218,0.39453 h -0.564454 l -0.773437,-0.77344 -0.771484,-0.77344 v -0.96679 -0.9668 l 0.771484,-0.77344 z m 0.273438,1.28515 -0.380859,0.31641 -0.38086,0.3164 v 0.74805 0.74805 l 0.462891,0.26953 c 0.254657,0.14833 0.652658,0.27334 0.884765,0.27734 l 0.423829,0.008 0.486328,-0.53711 0.484375,-0.53711 -0.25,-0.72071 -0.251953,-0.71875 -0.738282,-0.0859 z m 166.720703,0.56641 v 0.66211 0.66211 h 3.83594 3.83594 v -0.66211 -0.66211 h -3.83594 z m 0,3.17578 v 0.66211 0.66016 h 1.98438 1.98437 v -0.66016 -0.66211 h -1.98437 z m -206.322266,39.09961 -0.914062,0.30273 -0.914063,0.30078 -1.105468,0.94532 -1.107422,0.94726 -0.566406,1.09571 -0.56836,1.09765 v 1.71875 1.72071 l 0.560547,1.08203 0.5625,1.08398 0.986328,0.86719 c 0.54296,0.47673 1.354865,1.03176 1.802735,1.23437 l 0.814453,0.36914 1.876953,-0.0723 1.876953,-0.0742 1.291016,-0.79688 1.291015,-0.79687 0.800781,-1.29492 0.800782,-1.29688 v -2.02539 -2.02539 l -0.800782,-1.29492 -0.800781,-1.29492 -1.279297,-0.79102 -1.277343,-0.78906 -1.666016,-0.10742 z m 126.470706,0 -0.91406,0.30273 -0.91407,0.30078 -1.10547,0.94532 -1.10742,0.94726 -0.5664,1.09571 -0.56836,1.09765 v 1.71875 1.72071 l 0.56054,1.08203 0.5625,1.08398 0.98633,0.86719 c 0.54297,0.47673 1.35487,1.03176 1.80274,1.23437 l 0.81445,0.36914 1.87695,-0.0723 1.87696,-0.0742 1.29101,-0.79688 1.29102,-0.79687 0.80078,-1.29492 0.80078,-1.29688 v -2.02539 -2.02539 l -0.80078,-1.29492 -0.80078,-1.29492 -1.2793,-0.79102 -1.27734,-0.78906 -1.66602,-0.10742 z m -85.083987,1.09766 -1.669922,1.65625 -1.669922,1.65625 1.646485,1.66015 1.646484,1.66211 0.523438,-0.52539 0.52539,-0.52344 -0.765625,-0.79883 -0.765625,-0.79882 h 1.96875 l 1.966797,0.002 0.910156,0.46094 0.91211,0.46289 0.232422,0.71875 0.232422,0.71875 -0.34961,0.72851 -0.349609,0.72852 -0.660156,0.33594 -0.66211,0.33398 -2.580078,0.004 -2.580078,0.004 v 0.66211 0.66016 h 2.923828 2.923828 l 0.757813,-0.39063 c 0.416487,-0.21537 1.004706,-0.70742 1.308593,-1.09375 l 0.552735,-0.70312 v -1.3125 -1.3125 l -0.56836,-0.79883 -0.568359,-0.79883 -0.878906,-0.36718 -0.876953,-0.36524 h -2.308594 -2.306641 l 0.75586,-0.78906 0.757812,-0.79102 -0.492187,-0.54297 z m -40.324219,0.28515 c 0.3321,8.1e-4 1.08003,0.13411 1.66211,0.29492 l 1.058594,0.29102 0.966796,1.01562 0.96875,1.01368 0.25586,1.20507 0.257812,1.20508 -0.257812,1.20508 -0.25586,1.20508 -0.96875,1.01562 -0.966796,1.01368 -1.058594,0.29296 c -0.58207,0.16081 -1.356896,0.28911 -1.720703,0.28711 -0.3638,-0.002 -1.136673,-0.22353 -1.71875,-0.49218 -0.58208,-0.26865 -1.320148,-0.77444 -1.640625,-1.12305 -0.32047,-0.34859 -0.766968,-1.07424 -0.992188,-1.61328 l -0.410156,-0.98047 0.0059,-0.86719 0.0059,-0.86914 0.488281,-1.05859 c 0.26865,-0.58208 0.774437,-1.32015 1.123047,-1.64063 0.348597,-0.32048 1.074244,-0.76696 1.613281,-0.99219 0.539037,-0.22522 1.251887,-0.40902 1.583984,-0.4082 z m 126.470706,0 c 0.33209,8.1e-4 1.08003,0.13411 1.66211,0.29492 l 1.05859,0.29102 0.9668,1.01562 0.96875,1.01368 0.25781,1.20507 0.25586,1.20508 -0.25586,1.20508 -0.25781,1.20508 -0.96875,1.01562 -0.9668,1.01368 -1.05859,0.29296 c -0.58208,0.16081 -1.35691,0.28911 -1.72071,0.28711 -0.3638,-0.002 -1.13668,-0.22353 -1.71875,-0.49218 -0.58208,-0.26865 -1.32014,-0.77444 -1.64062,-1.12305 -0.32048,-0.34859 -0.76696,-1.07424 -0.99219,-1.61328 l -0.41015,-0.98047 0.006,-0.86719 0.006,-0.86914 0.48829,-1.05859 c 0.26862,-0.58208 0.77444,-1.32015 1.12304,-1.64063 0.34861,-0.32048 1.07423,-0.76696 1.61328,-0.99219 0.53904,-0.22522 1.2519,-0.40902 1.58399,-0.4082 z m -44.51367,0.5293 -1.58399,2.16211 c -0.87164,1.18994 -1.58398,2.24189 -1.58398,2.33789 0,0.0961 0.49471,0.8798 1.09961,1.74023 0.60489,0.86043 1.33921,1.83274 1.63281,2.16016 l 0.5332,0.5957 h 3.77149 3.77343 l 0.41407,-0.41601 0.41601,-0.41602 v -3.59961 -3.59765 l -0.4375,-0.48438 -0.4375,-0.48242 h -3.79883 z m 92.77343,0.50586 -2.93359,2.92578 -2.93164,2.92383 -1.30664,-1.32813 -1.3086,-1.32617 -0.53125,0.5293 -0.52929,0.53125 1.83984,1.85547 1.8418,1.85546 3.42969,-3.43164 3.42968,-3.42968 -0.5,-0.55274 z m -3.42773,0.28711 c -0.15986,0 -0.97681,0.67888 -1.81445,1.50781 l -1.52344,1.50586 0.43164,0.47851 c 0.23754,0.26248 0.50656,0.47657 0.59766,0.47657 0.0911,0 0.86625,-0.70879 1.72265,-1.57422 l 1.55664,-1.57227 -0.33984,-0.41211 c -0.18755,-0.22598 -0.47099,-0.41015 -0.63086,-0.41015 z m 38.45508,0.40234 v 3.30274 3.30078 l 1.65039,-1.65039 1.65039,-1.65039 -1.65039,-1.65235 z m -126.95117,0.12695 h 3.01757 3.01758 v 3.17579 3.17382 h -3.02734 -3.02735 l -1.08203,-1.50781 -1.08008,-1.50976 0.1211,-0.31641 c 0.0669,-0.17434 0.55874,-0.92405 1.0918,-1.66602 z m 4.61914,0.51563 -0.82813,0.80273 -0.82617,0.80274 -0.76758,-0.80078 -0.76758,-0.80078 -0.52929,0.52929 -0.5293,0.5293 0.76562,0.79883 0.76563,0.79883 -0.75781,0.78906 -0.75586,0.78906 0.49023,0.53906 0.48828,0.54102 0.82227,-0.79688 0.82226,-0.79687 0.83399,0.83594 0.83594,0.83593 0.41211,-0.34375 c 0.22687,-0.1883 0.41406,-0.46888 0.41406,-0.625 0,-0.15612 -0.32186,-0.61725 -0.71289,-1.02539 l -0.71094,-0.74218 0.75781,-0.79102 0.75586,-0.78906 -0.49023,-0.53907 z m 39.15039,0.0234 -0.48047,0.43359 -0.48047,0.43555 0.43945,0.48633 0.44141,0.48632 h -1.23242 -1.23047 v 0.79297 0.79297 h 1.23047 1.23242 l -0.4336,0.47852 -0.43164,0.47851 0.45118,0.45117 0.45117,0.45118 1.32226,-1.32227 1.32227,-1.32227 -1.30078,-1.32226 z m -124.511722,0.93554 -1.007813,0.98438 -1.007812,0.98242 -0.902344,-0.92969 -0.902344,-0.93164 -0.53125,0.53125 -0.533203,0.53125 1.439453,1.45703 1.439453,1.45703 1.529297,-1.51367 1.53125,-1.51367 -0.527344,-0.52734 z m 160.490232,0.91993 -0.47656,0.43359 -0.47852,0.43164 1.6543,1.74219 c 0.90941,0.95903 1.77102,1.8279 1.91406,1.92968 l 0.25977,0.18555 0.47851,-0.43359 0.47852,-0.4336 -1.91406,-1.92773 z m 48.49024,42.58789 c -0.0916,-0.002 -0.55307,0.93217 -1.02539,2.07617 l -0.85743,2.08008 -2.12304,0.16406 c -1.16733,0.09 -2.17388,0.21695 -2.23828,0.28125 -0.0644,0.0644 0.33979,0.52874 0.89843,1.0332 0.55865,0.50445 1.30787,1.15358 1.66602,1.44336 l 0.65234,0.52734 -0.45703,1.95118 c -0.25086,1.07246 -0.45512,2.10443 -0.45312,2.29492 l 0.004,0.34765 0.19922,-0.11718 c 0.10914,-0.064 0.99035,-0.59801 1.95899,-1.1875 l 1.76171,-1.07227 1.91407,1.17969 c 1.05253,0.64892 1.95972,1.13402 2.01562,1.07812 0.0559,-0.0559 -0.12566,-1.07345 -0.40234,-2.26171 l -0.50391,-2.16016 1.7168,-1.50586 1.71484,-1.50586 -0.2539,-0.0859 c -0.13947,-0.0465 -1.17932,-0.16928 -2.31055,-0.27343 l -2.05664,-0.18946 -0.82617,-2.04687 c -0.45452,-1.12617 -0.90059,-2.04878 -0.99219,-2.05078 z m -90.1875,0.52539 v 1.7207 1.71875 h 0.66211 0.66015 v -1.05859 -1.05664 h 1.0586 1.05859 v -0.66211 -0.66211 h -1.7207 z m 8.20117,0 v 0.66211 0.66211 h 0.92773 0.92578 v 1.07421 1.07618 l 0.72657,-0.084 0.72851,-0.082 0.0781,-1.6543 0.0781,-1.65429 h -1.73242 z m -131.832033,0.26562 -0.876953,0.54297 -0.878906,0.54102 -0.542969,0.8789 -0.541016,0.87696 v 1.23828 1.24023 l 0.398438,0.77149 0.40039,0.77343 0.984375,0.66992 0.984375,0.66797 h 1.25 1.248047 l 0.689453,-0.3125 0.689453,-0.31445 1.900391,1.90039 c 1.045687,1.04569 1.953125,1.90234 2.015625,1.90234 0.0626,0 0.335752,-0.2014 0.607422,-0.44726 l 0.494141,-0.44727 -2.001954,-2.01172 -2,-2.01367 0.433594,-0.87304 0.435547,-0.8711 -0.144531,-1.07617 -0.144531,-1.07812 -0.50586,-0.6836 c -0.27869,-0.3764 -0.901725,-0.95187 -1.382812,-1.2793 l -0.875,-0.5957 h -1.31836 z m 49.208984,0 c -0.12387,0 -1.457809,1.2794 -2.964843,2.84375 l -2.740235,2.84375 -1.287109,-1.25586 c -0.70789,-0.69122 -1.397686,-1.25781 -1.533203,-1.25781 -0.13553,0 -0.809317,0.55402 -1.496094,1.23047 l -1.248047,1.23047 2.546875,2.73828 c 1.400777,1.50636 2.674238,2.73828 2.830078,2.73828 0.15583,0 2.184799,-1.90404 4.507813,-4.23047 l 4.222656,-4.22851 -1.306641,-1.32618 c -0.718527,-0.7295 -1.40738,-1.32617 -1.53125,-1.32617 z m 39.810549,0.21875 -0.55469,0.29688 -0.55273,0.29687 v 0.73047 0.73242 l 0.32812,0.32813 0.33008,0.33008 0.76758,-0.0781 0.76953,-0.0781 0.26367,-0.42188 0.26367,-0.42187 -0.17383,-0.69922 -0.17578,-0.69727 -0.63281,-0.16016 z m -3.18164,0.002 -0.60742,0.0879 -0.60743,0.0879 -0.39843,0.70898 -0.39649,0.70898 0.4961,0.54883 0.49414,0.54688 h 0.60156 0.60156 l 0.41602,-0.41602 0.41601,-0.41601 v -0.46875 -0.47071 l -0.50781,-0.45898 z m -84.910159,1.05469 0.878907,0.16406 0.876953,0.16602 0.677734,0.80469 0.677734,0.80469 v 0.90234 0.90039 l -0.728515,0.80664 -0.726563,0.80859 -0.925781,0.13477 -0.925781,0.13672 -0.837891,-0.52344 -0.835937,-0.52539 -0.19336,-0.61133 c -0.10688,-0.33676 -0.184928,-0.93244 -0.173828,-1.32422 0.0111,-0.39178 0.150727,-0.95722 0.310547,-1.25586 l 0.291016,-0.54296 0.816406,-0.42188 z m 167.035159,0.3125 -0.5293,0.52735 -0.52734,0.52734 1.4375,1.45703 1.43945,1.45703 -1.42969,1.44531 -1.42968,1.44727 0.49804,0.54883 0.49805,0.55078 1.99414,-1.99414 1.99414,-1.99414 -1.97266,-1.98633 z m 4.23242,0 -0.52734,0.52735 -0.5293,0.52734 1.43945,1.45703 1.4375,1.45703 -1.42773,1.44531 -1.42969,1.44727 0.49805,0.54883 0.49804,0.55078 1.99414,-1.99414 1.99415,-1.99414 -1.97461,-1.98633 z m -122.945313,0.30274 0.328125,0.39453 0.328125,0.39453 -3.292969,3.29297 -3.292969,3.29297 -1.693359,-1.70899 -1.693359,-1.70703 0.353515,-0.42578 0.351563,-0.42578 1.429687,1.4043 1.427735,1.40234 2.876953,-2.95703 z m -48.650391,0.22461 v 0.66211 0.6621 h -0.662109 -0.660156 v 0.66016 0.66211 h 0.660156 0.662109 v 0.67969 0.67773 l 0.726563,-0.082 0.728515,-0.084 0.08398,-0.59571 0.08398,-0.5957 h 0.511719 0.511719 v -0.66211 -0.66016 h -0.529297 -0.529297 v -0.6621 -0.66211 h -0.794922 z m 213.296874,0.92578 0.37695,0.86133 0.375,0.85937 1.12305,0.008 1.125,0.008 -0.88672,0.80664 -0.88672,0.80664 0.26368,1.03711 c 0.14483,0.5705 0.24547,1.0352 0.22461,1.0332 -0.0209,-0.002 -0.4255,-0.25181 -0.89844,-0.55469 l -0.85938,-0.55078 0.0215,-2.1582 z m -128.71289,1.11328 -0.4043,0.25586 c -0.22242,0.1403 -0.52276,0.44359 -0.66796,0.67383 l -0.26368,0.41796 0.45118,0.6875 0.44921,0.68946 h 0.61524 0.61523 l 0.46875,-0.51953 0.46875,-0.51758 -0.16797,-0.66797 -0.16796,-0.66797 -0.69727,-0.17578 z m 3.36328,0.0781 -0.31836,0.31836 -0.3164,0.31641 v 0.72851 0.72657 l 0.46289,0.27148 c 0.25466,0.14833 0.66199,0.27335 0.90625,0.27735 0.24427,0.004 0.63265,-0.17953 0.86133,-0.40821 l 0.41601,-0.41601 v -0.58985 -0.58984 l -0.31836,-0.31641 -0.31836,-0.31836 h -0.6875 z m 0.47266,3.66016 -0.55469,0.29492 -0.55273,0.29688 v 0.73242 0.73047 l 0.32812,0.33008 0.33008,0.33007 0.76758,-0.0781 0.76953,-0.0781 0.26367,-0.42382 0.26367,-0.42188 -0.17383,-0.69727 -0.17578,-0.69921 -0.63281,-0.15821 z m -3.18164,0.002 -0.60742,0.0879 -0.60743,0.0859 -0.39843,0.71094 -0.39649,0.70898 0.4961,0.54688 0.49414,0.54687 h 0.60156 0.60156 l 0.41602,-0.41601 0.41601,-0.41407 v -0.4707 -0.46875 l -0.50781,-0.45898 z m 37.92578,0.17383 -0.0801,1.6543 -0.0781,1.65429 h 1.73242 1.73242 v -0.6621 -0.66211 h -1.04297 -1.04297 l -0.0801,-0.99219 -0.084,-0.99219 h -0.52734 z m 10.05273,0 -0.082,0.99219 -0.082,0.99219 h -0.91016 -0.91015 v 0.66211 0.6621 h 1.73242 1.73242 l -0.0781,-1.65429 -0.0781,-1.6543 h -0.66211 z m 78.76563,39.49609 -0.91211,0.30274 -0.91406,0.30078 -1.10743,0.94727 -1.10546,0.94726 -0.56641,1.0957 -0.56836,1.09571 v 1.7207 1.71875 l 0.56055,1.08399 0.5625,1.08398 0.98633,0.86523 c 0.54294,0.47673 1.35486,1.03372 1.80273,1.23633 l 0.81445,0.36719 1.87696,-0.0723 1.87695,-0.0723 1.29101,-0.79688 1.29102,-0.79882 0.79883,-1.29493 0.80273,-1.29492 v -2.02539 -2.02734 l -0.80273,-1.29492 -0.79883,-1.29493 -1.2793,-0.78906 -1.27734,-0.79101 -1.66602,-0.10547 z m -170.867189,0.0586 -0.316407,0.31836 -0.318359,0.31836 v 4.39062 4.39258 l 0.318359,0.31836 0.316407,0.31641 h 4.52539 4.523438 l 0.318359,-0.31641 0.31836,-0.31836 v -4.39258 -4.39062 l -0.31836,-0.31836 -0.318359,-0.31836 h -4.523438 z m -38.882813,0.5293 -1.429687,1.44726 -1.429688,1.44727 0.496094,0.54882 0.496094,0.54688 0.933593,-0.93164 0.933594,-0.93555 1.003906,0.98047 1.001954,0.97852 0.527343,-0.52735 0.527344,-0.52734 -1.53125,-1.51367 z m 163.501952,0.002 -0.3164,0.3164 -0.31836,0.31836 v 5.18555 5.18555 l 0.31836,0.31836 0.3164,0.3164 h 5.08789 5.08789 l 0.41602,-0.41601 0.41601,-0.41602 v -3.02344 -3.02343 h -0.18164 c -0.0998,0 -0.45812,0.25781 -0.79492,0.57422 l -0.61133,0.57617 v 2.20312 2.20313 h -4.36523 -4.36719 v -4.49805 -4.49805 h 4.14649 4.14648 l 0.48438,-0.4375 c 0.26609,-0.24083 0.48437,-0.53914 0.48437,-0.66211 v -0.22265 h -4.97461 z m -78.86328,0.52734 c -0.58718,0 -1.44211,0.13127 -1.90039,0.29102 -0.45828,0.15976 -0.83399,0.358 -0.83398,0.4414 0,0.0835 0.18491,0.35659 0.41015,0.60547 l 0.41016,0.45313 1.01562,-0.25977 1.01758,-0.25781 1.20117,0.53125 1.19922,0.53125 0.38281,0.75 c 0.21017,0.41294 0.47346,1.04831 0.58399,1.41211 l 0.20117,0.66211 -0.56055,-0.5 -0.55859,-0.5 -0.40234,0.33398 c -0.22101,0.18343 -0.40235,0.46252 -0.40235,0.6211 0,0.15857 0.5009,0.79988 1.11328,1.42382 0.61238,0.62397 1.2427,1.13477 1.40039,1.13477 0.15768,0 0.78801,-0.5108 1.40039,-1.13477 0.61238,-0.62394 1.11329,-1.26525 1.11329,-1.42382 0,-0.15858 -0.18134,-0.43767 -0.40235,-0.6211 l -0.40234,-0.33398 -0.52344,0.47461 -0.52344,0.47461 v -0.78321 -0.78125 l -0.76367,-1.20507 -0.76367,-1.20508 -1.17188,-0.56641 -1.17187,-0.56836 z m 36.18945,0 -0.41211,0.58789 -0.41015,0.58985 v 4.08593 4.08789 l 0.4375,0.48438 0.4375,0.48437 h 5.72656 5.72656 l 0.31836,-0.31835 0.31641,-0.31836 v -4.42579 -4.42578 l -0.41602,-0.41601 -0.41601,-0.41602 h -5.6543 z m -80.992184,0.26563 h 3.705078 3.703125 v 3.70312 3.70508 h -3.703125 -3.705078 v -3.70508 z m 170.978514,0.002 c 0.33209,8.2e-4 1.08003,0.13216 1.66211,0.29297 l 1.05859,0.29297 0.9668,1.01367 0.96875,1.01562 0.25586,1.20508 0.25781,1.20508 -0.25781,1.20508 -0.25586,1.20508 -0.96875,1.01562 -0.9668,1.01367 -1.05859,0.29297 c -0.58208,0.1608 -1.3569,0.28911 -1.7207,0.28711 -0.3638,-0.002 -1.13667,-0.22354 -1.71875,-0.49219 -0.58208,-0.26865 -1.32015,-0.77443 -1.64063,-1.12304 -0.32047,-0.3486 -0.76699,-1.07424 -0.99218,-1.61328 l -0.41016,-0.98047 0.006,-0.86719 0.006,-0.86914 0.48828,-1.05859 c 0.26864,-0.58209 0.77445,-1.32015 1.12305,-1.64063 0.34861,-0.32048 1.07424,-0.76696 1.61328,-0.99219 0.53904,-0.22523 1.25188,-0.40901 1.58398,-0.4082 z m -36.60156,0.43555 -2.96875,2.95898 -2.9668,2.95899 -1.30664,-1.32618 c -0.71825,-0.72921 -1.39444,-1.32421 -1.5039,-1.32421 -0.10949,0 -0.32004,0.22381 -0.4668,0.49804 l -0.26563,0.49805 1.60352,1.75 c 0.88214,0.9627 1.73934,1.75 1.90625,1.75 0.16691,0 1.76409,-1.45589 3.54883,-3.23633 1.78473,-1.78045 3.24609,-3.3728 3.24609,-3.53906 0,-0.16627 -0.18692,-0.45602 -0.41406,-0.64453 z m 36.8125,0.0625 -0.92774,0.70703 -0.92773,0.70898 v 0.31446 c 0,0.17378 0.34947,0.65257 0.77734,1.0625 l 0.77735,0.74414 0.41406,-0.15821 0.41211,-0.1582 v -0.4043 c 0,-0.22284 0.0997,-0.40625 0.22266,-0.40625 0.12297,0 0.44468,0.2427 0.71289,0.53907 l 0.48632,0.53906 0.0176,0.98242 c 0.009,0.54038 0.11278,1.1306 0.23047,1.3125 0.11769,0.1819 0.31224,0.33203 0.4336,0.33203 0.12134,0 0.29255,-0.18974 0.38085,-0.41992 0.0883,-0.23019 0.16211,-0.89574 0.16211,-1.48047 v -1.0625 l -0.90039,-0.90039 -0.90039,-0.90039 h -0.52929 -0.53125 l 0.13086,-0.49805 0.13085,-0.5 -0.2871,-0.17578 z m -173.835939,0.52343 -0.726562,0.084 -0.728516,0.084 -0.07227,4.60157 -0.07227,4.60156 0.445312,0.49219 0.44336,0.49023 h 4.853515 4.853516 v -0.66211 -0.66016 h -4.498047 -4.498047 v -4.51562 z m 5.556641,0.0352 v 0.92578 0.92578 h -0.925781 -0.925782 v 0.79493 0.79296 h 0.925782 0.925781 v 0.92579 0.92578 h 0.662109 0.66211 v -0.91016 -0.91016 l 0.992187,-0.082 0.992188,-0.082 v -0.66211 -0.66015 l -0.992188,-0.082 -0.992187,-0.082 v -0.91015 -0.91016 h -0.66211 z m 37.306638,1.21094 -1.32422,1.30469 -1.32421,1.30273 0.51562,0.51563 0.51563,0.51757 0.37109,-0.30664 0.36914,-0.30859 0.31836,1.06055 0.31836,1.0625 0.7793,0.88671 c 0.42843,0.48799 1.16614,1.07862 1.64062,1.3125 l 0.86328,0.42579 1.2168,0.006 1.2168,0.006 0.84765,-0.29492 0.8457,-0.29492 -0.45312,-0.50195 -0.45508,-0.50196 -1.21289,0.14844 -1.21289,0.14844 -0.91992,-0.47656 -0.92188,-0.47657 -0.59961,-0.89843 c -0.33032,-0.49446 -0.60156,-1.07449 -0.60156,-1.28907 v -0.39062 l 0.41211,0.3418 0.41016,0.34179 0.51758,-0.51757 0.51562,-0.51563 -1.32422,-1.30273 z m 41.53907,0.11133 h 5.02734 5.02734 v 3.17578 3.17383 h -5.02734 -5.02734 v -3.17383 z m 2.14062,0.42578 -0.54687,0.49609 -0.54688,0.49414 0.85156,0.88086 0.85157,0.87891 -0.84375,0.87109 -0.84375,0.8711 0.45117,0.45117 c 0.24862,0.24861 0.52011,0.45117 0.60351,0.45117 0.0834,0 0.74047,-0.59668 1.45899,-1.32617 l 1.30664,-1.32617 -1.3711,-1.3711 z m 84.62109,0.28515 -0.26367,0.26368 c -0.14464,0.14464 -0.32404,0.66925 -0.39844,1.16601 l -0.13476,0.90235 0.47461,0.92187 0.47656,0.92188 0.99414,0.55273 0.99414,0.55469 -0.17187,0.17187 -0.17188,0.17188 0.33399,0.40234 c 0.18408,0.2218 0.42643,0.4043 0.53906,0.4043 0.11263,0 0.58563,-0.43312 1.05078,-0.96289 l 0.8457,-0.96485 -0.93359,-0.93359 -0.93555,-0.93555 -0.41015,0.3418 -0.40821,0.33984 0.14453,0.23438 0.14454,0.23437 h -0.26954 c -0.14844,0 -0.52313,-0.26828 -0.83203,-0.5957 l -0.56054,-0.59375 0.12695,-0.98242 0.12891,-0.98242 -0.38282,-0.31641 z m -206.347652,3.67579 -1.007813,0.98242 -1.007812,0.98437 -0.902344,-0.93164 -0.902344,-0.92969 -0.53125,0.53125 -0.533203,0.53125 1.439453,1.45704 c 0.790877,0.8008 1.505191,1.45507 1.587891,1.45507 0.0827,0 0.797003,-0.65427 1.58789,-1.45507 l 1.439453,-1.45704 -0.585937,-0.58398 z m 124.349612,0.11132 v 0.66211 0.66016 h 2.11523 2.11719 v -0.66016 -0.66211 h -2.11719 z m -43.3086,30.67383 -0.91406,0.30274 -0.91211,0.30078 -1.10742,0.94726 -1.10547,0.94532 -0.56836,1.09765 -0.5664,1.0957 v 1.71875 1.72071 l 0.56054,1.08203 0.56055,1.08398 0.98828,0.86719 c 0.54297,0.47673 1.3529,1.03178 1.80078,1.23438 l 0.81445,0.36914 1.87891,-0.0723 1.87695,-0.0723 1.29102,-0.79883 1.28906,-0.79688 0.80078,-1.29492 0.80078,-1.29492 v -2.02735 -2.02539 l -0.80078,-1.29492 -0.80078,-1.29492 -1.27734,-0.79102 -1.27735,-0.78906 -1.66601,-0.10547 z m 41.46289,0.25781 -1.19531,0.13477 -1.19336,0.13477 -0.67969,0.625 c -0.37349,0.34424 -0.84939,1.02812 -1.05859,1.51953 l -0.38086,0.89453 0.17578,1.03711 0.17383,1.03711 0.91992,1.24414 c 0.50559,0.68402 1.89267,2.15319 3.08203,3.26562 l 2.16211,2.02344 0.66211,-0.47656 c 0.3647,-0.26188 1.64712,-1.48386 2.84766,-2.7168 l 2.18164,-2.24219 0.39648,-0.94922 0.39844,-0.95117 v -0.94726 -0.94727 l -0.41015,-0.79297 -0.41016,-0.79297 -0.84766,-0.51562 -0.8457,-0.51563 h -1.05859 -1.0586 l -0.85937,0.52344 -0.85938,0.52344 -1.07031,-0.55664 z m 84.16211,0.33008 v 0.39649 0.39843 h -1.58789 -1.58593 v 0.66016 0.66211 h 0.39648 0.39648 v 4.44531 4.44336 l 0.31641,0.31836 0.31836,0.31836 h 3.90625 3.90625 l 0.27539,-0.51367 0.27344,-0.51172 v -4.25 -4.25 h 0.26367 0.26562 v -0.66211 -0.66016 h -1.58789 -1.58789 v -0.39843 -0.39649 h -1.98437 z M 132.936,421.54182 c 0.3321,8.1e-4 1.08003,0.13217 1.66211,0.29297 l 1.05859,0.29296 0.9668,1.01368 0.96875,1.01367 0.25586,1.20508 0.25781,1.20703 -0.25781,1.20508 -0.25586,1.20507 -0.96875,1.01368 -0.9668,1.01367 -1.05859,0.29297 c -0.58208,0.16081 -1.35691,0.29146 -1.72071,0.28906 -0.36381,-0.002 -1.13667,-0.22549 -1.71875,-0.49414 -0.58209,-0.26865 -1.32211,-0.7725 -1.64258,-1.1211 -0.32048,-0.34861 -0.76695,-1.07618 -0.99218,-1.61523 l -0.40821,-0.97852 0.006,-0.86914 0.006,-0.86914 0.48828,-1.05664 c 0.26865,-0.58208 0.77445,-1.32211 1.12305,-1.64258 0.3486,-0.32048 1.07423,-0.76695 1.61328,-0.99218 0.53904,-0.22523 1.2519,-0.40706 1.58399,-0.40625 z m 39.60547,0.24414 0.9414,0.39453 0.94141,0.39258 0.1582,0.41015 0.15625,0.40821 h 0.55274 0.55273 l 0.74609,-0.71485 0.74414,-0.71484 h 0.92969 0.92774 l 0.54882,0.55078 0.55079,0.54883 v 0.92773 0.92578 l -0.33204,0.62696 c -0.18249,0.34504 -1.22609,1.54995 -2.32031,2.67773 -1.09422,1.12779 -2.08869,2.05078 -2.20898,2.05078 -0.12028,0 -1.1645,-0.94573 -2.32032,-2.10156 l -2.10156,-2.10156 -0.33008,-1.10352 -0.33203,-1.10351 0.39258,-0.69727 0.39063,-0.69726 0.70507,-0.33985 z m 44.20898,0.2832 v 1.98438 1.98437 h -1.85156 -1.85157 v 0.66016 0.66211 h 1.85157 1.85156 v 1.85156 1.85351 h 0.79492 0.79297 v -1.85351 -1.85156 h 1.85156 1.85352 v -0.66211 -0.66016 h -1.85352 -1.85156 v -1.98437 -1.98438 h -0.79297 z m -163.683594,0.55859 -2.884766,2.89454 -2.884766,2.89257 -1.345703,-1.33007 -1.347656,-1.33008 -0.494141,0.54687 -0.496093,0.54883 1.830078,1.84375 1.830078,1.84375 3.378906,-3.37109 3.378906,-3.3711 v -0.32617 c 0,-0.17888 -0.216814,-0.43988 -0.482421,-0.58203 z m 203.371094,0.23438 h 3.04297 3.04297 v 4.10156 4.10156 h -3.04297 -3.04297 v -4.10156 z m -162.482422,0.9707 -1.521485,1.50586 -1.521484,1.50586 -1.408203,-1.47265 -1.40625,-1.47461 -0.50586,0.45898 -0.507812,0.45703 1.921875,1.93555 c 1.056837,1.06392 1.981987,1.93359 2.054687,1.93359 0.0727,0 0.937911,-0.80096 1.923828,-1.77929 0.985917,-0.97836 1.792969,-1.916 1.792969,-2.08399 0,-0.16798 -0.184176,-0.45893 -0.410156,-0.64648 z m 163.541012,0.0527 v 3.07812 3.07813 l 0.72852,-0.084 0.72656,-0.084 v -2.91016 -2.91015 l -0.72656,-0.084 z m 2.64649,0.0352 v 3.04297 3.04297 h 0.66015 0.66211 v -3.04297 -3.04297 h -0.66211 z m -124.37305,0.16602 -1.78711,1.77148 -1.78711,1.77344 -0.90429,-0.93359 -0.9043,-0.9336 -0.5332,0.53125 -0.53125,0.53321 1.30468,1.32422 c 0.71737,0.72829 1.43174,1.32421 1.58594,1.32421 0.15421,0 1.26382,-0.98998 2.4668,-2.19921 l 2.1875,-2.19922 -0.54883,-0.4961 z m -3.97461,44.17969 -3.22656,3.22461 -3.22656,3.22656 3.16797,3.17578 c 1.74244,1.74702 3.24117,3.17773 3.33007,3.17773 0.0889,0 0.38046,-0.24294 0.64844,-0.53906 l 0.48828,-0.53906 -1.57617,-1.64453 c -0.8661,-0.90443 -1.98206,-2.08996 -2.48047,-2.63477 l -0.90625,-0.99023 2.43164,-2.47852 c 1.33736,-1.36374 2.43164,-2.59766 2.43164,-2.74023 0,-0.14257 -0.2431,-0.47845 -0.54101,-0.74805 z m -84.060546,0.0449 -0.914062,0.30273 -0.914063,0.30078 -1.105468,0.94727 -1.105469,0.94727 -0.568359,1.0957 -0.56836,1.0957 v 1.71875 1.7207 l 0.5625,1.08399 0.560547,1.08203 0.988281,0.86719 c 0.54297,0.47673 1.352912,1.03176 1.800782,1.23437 l 0.814453,0.36914 1.876953,-0.0723 1.878906,-0.0723 1.289063,-0.79883 1.291015,-0.79687 0.800781,-1.29492 0.800782,-1.29492 v -2.02735 -2.02539 l -0.800782,-1.29492 -0.800781,-1.29492 -1.277344,-0.79102 -1.279296,-0.78906 -1.664063,-0.10547 z m 42.06836,0 -0.914063,0.30273 -0.914062,0.30078 -1.105469,0.94727 -1.105469,0.94727 -0.568359,1.0957 -0.568359,1.0957 v 1.71875 1.7207 l 0.5625,1.08399 0.560546,1.08203 0.988282,0.86719 c 0.542967,0.47673 1.352901,1.03176 1.800781,1.23437 l 0.814453,0.36914 1.878906,-0.0723 1.876953,-0.0723 1.289063,-0.79883 1.291016,-0.79687 0.800781,-1.29492 0.800781,-1.29492 v -2.02735 -2.02539 l -0.800781,-1.29492 -0.800781,-1.29492 -1.277344,-0.79102 -1.277344,-0.78906 -1.666016,-0.10547 z m 170.085936,1.01172 -0.73242,0.25586 -0.73438,0.25586 -0.084,0.73828 -0.0859,0.74023 0.32617,0.39453 0.32813,0.39453 0.8125,-0.0801 0.81055,-0.0801 0.25586,-0.73242 0.25586,-0.73438 -0.57618,-0.57617 z m -84.39453,0.008 -0.54883,0.49414 -0.54687,0.49609 1.78711,1.80274 1.78906,1.80273 h -3.89453 -3.89649 v 0.66211 0.66211 h 3.89649 3.89453 l -1.7793,1.79297 -1.78125,1.79492 0.45508,0.45313 c 0.25024,0.25023 0.52076,0.45508 0.60156,0.45508 0.0808,0 1.26407,-1.1197 2.62891,-2.49024 l 2.48242,-2.49219 -0.81445,-1.01367 c -0.44714,-0.5576 -1.5911,-1.78015 -2.54297,-2.7168 z m -126.697266,0.36523 c 0.33209,8.1e-4 1.08003,0.13217 1.66211,0.29297 l 1.058594,0.29297 0.96875,1.01367 0.966796,1.01368 0.257813,1.20507 0.255859,1.20703 -0.255859,1.20508 -0.257813,1.20508 -0.966796,1.01367 -0.96875,1.01563 -1.058594,0.29101 c -0.58208,0.1608 -1.354953,0.29147 -1.71875,0.28907 -0.3638,-0.002 -1.138626,-0.22354 -1.720703,-0.49219 -0.58208,-0.26865 -1.320148,-0.77445 -1.640625,-1.12305 -0.32047,-0.34861 -0.766968,-1.07424 -0.992188,-1.61328 l -0.410156,-0.98047 0.0059,-0.86914 0.0059,-0.86719 0.488281,-1.05859 c 0.26864,-0.58208 0.774447,-1.3221 1.123047,-1.64258 0.348607,-0.32047 1.074244,-0.76697 1.613281,-0.99219 0.539037,-0.22523 1.251887,-0.40706 1.583984,-0.40625 z m 42.070313,0 c 0.33209,8.1e-4 1.080032,0.13217 1.662109,0.29297 l 1.058594,0.29297 0.966797,1.01367 0.966797,1.01368 0.257812,1.20507 0.257813,1.20703 -0.257813,1.20508 -0.257812,1.20508 -0.966797,1.01367 -0.966797,1.01563 -1.058594,0.29101 h -0.002 c -0.582077,0.1608 -1.35495,0.29147 -1.71875,0.28907 -0.3638,-0.002 -1.138626,-0.22354 -1.720703,-0.49219 -0.582087,-0.26865 -1.320155,-0.77445 -1.640625,-1.12305 -0.32048,-0.34861 -0.76696,-1.07424 -0.992187,-1.61328 l -0.410157,-0.98047 0.0078,-0.86914 0.0059,-0.86719 0.488281,-1.05859 c 0.26865,-0.58208 0.772494,-1.3221 1.121094,-1.64258 0.34861,-0.32047 1.076185,-0.76697 1.615235,-0.99219 0.539037,-0.22523 1.251884,-0.40706 1.583984,-0.40625 z m 2.308594,1.75391 -1.125,1.10352 -1.123047,1.10351 -1.101563,-1.10156 -1.101562,-1.10156 -0.414063,0.34375 c -0.22725,0.18861 -0.412109,0.47095 -0.412109,0.6289 0,0.15794 0.441609,0.73918 0.980469,1.29102 l 0.978515,1.0039 -0.978515,1.00196 c -0.53886,0.55184 -0.980469,1.12482 -0.980469,1.27148 0,0.14666 0.141786,0.40937 0.316406,0.58399 0.17463,0.17463 0.389663,0.3164 0.476563,0.3164 0.0869,0 0.624312,-0.47584 1.193359,-1.05859 l 1.033203,-1.06055 1.128906,1.10742 1.128907,1.10743 0.542968,-0.49219 0.544922,-0.49414 -1.121093,-1.14063 -1.121094,-1.14258 1.121094,-1.14257 1.121093,-1.14258 -0.544922,-0.49414 z m -44.964844,0.0957 v 1.17578 1.17774 l -1.255859,0.0801 -1.257813,0.0801 v 0.6621 0.66016 l 1.257813,0.082 1.255859,0.0801 v 1.17578 1.17578 h 0.792969 0.794922 v -1.18945 -1.19141 h 1.189453 1.191406 v -0.79297 -0.79492 h -1.191406 -1.189453 v -1.18945 -1.19141 h -0.794922 z m 210.841793,1.81446 -0.38086,0.3164 -0.38085,0.31446 v 0.75 0.74804 l 0.46289,0.26953 c 0.25466,0.14832 0.65265,0.27295 0.88476,0.27735 l 0.42188,0.008 0.48632,-0.53711 0.48438,-0.53711 -0.25,-0.7207 -0.25195,-0.71875 -0.73828,-0.0859 z m -44.79882,0.0371 1.57031,1.58789 c 0.86402,0.87313 1.6388,1.58789 1.7207,1.58789 0.0819,0 0.85474,-0.71476 1.71875,-1.58789 l 1.57227,-1.58789 h -3.29102 z m 45.63476,3.59765 -0.73242,0.25781 -0.73438,0.25586 -0.084,0.73829 -0.0859,0.74023 0.32617,0.39258 0.32813,0.39453 0.8125,-0.0781 0.81055,-0.0801 0.25586,-0.73438 0.25586,-0.73242 -0.57618,-0.57617 z m -1.54687,39.73633 -0.91407,0.30078 -0.91211,0.30274 -1.10546,0.94531 -1.10743,0.94726 -0.5664,1.09571 -0.56836,1.0957 v 1.7207 1.71875 l 0.56055,1.08399 0.56054,1.08398 0.98828,0.86719 c 0.54297,0.47673 1.3529,1.03176 1.80078,1.23437 l 0.81446,0.36915 1.8789,-0.0742 1.87696,-0.0723 1.29101,-0.79687 1.28907,-0.79883 0.80078,-1.29492 0.80078,-1.29493 v -2.02539 -2.02539 l -0.80078,-1.29492 -0.80078,-1.29687 -1.27735,-0.78907 -1.27734,-0.79101 -1.66602,-0.10547 z m -172.455082,0.58594 -0.316406,0.31836 -0.318359,0.31836 v 5.18554 5.18555 l 0.318359,0.31641 0.316406,0.31836 h 5.087891 5.08789 l 0.416016,-0.41602 0.416016,-0.41602 v -4.91992 -4.92187 l -0.4375,-0.48438 -0.439453,-0.48437 h -5.064454 z m 46.990232,0 v 0.66211 0.66211 h 2.25 2.24805 v 4.49804 4.49805 h -2.24805 -2.25 v 0.66016 0.66211 h 2.62696 2.62695 l 0.41601,-0.41602 0.41602,-0.41602 v -4.91992 -4.92187 l -0.4375,-0.48438 -0.4375,-0.48437 h -2.60547 z m -84.603513,0.46875 -0.964844,0.31836 c -0.529977,0.17491 -1.333542,0.63006 -1.787109,1.01172 l -0.824219,0.69336 -0.486328,1.07031 -0.486328,1.06836 -0.0059,1.00195 -0.0059,1 0.410156,0.98438 c 0.226,0.541 0.732533,1.32428 1.125,1.74218 0.39246,0.41791 1.071243,0.92037 1.507813,1.11524 l 0.792969,0.35351 1.43164,0.01 1.433594,0.01 1.140625,-0.66796 1.140625,-0.66797 0.667969,-1.14063 c 0.367667,-0.62738 0.667968,-1.22 0.667968,-1.3164 0,-0.0964 -0.345388,-0.17579 -0.767578,-0.17579 h -0.767578 l -0.517578,0.87891 -0.517578,0.87891 -0.998047,0.47265 -0.998047,0.47461 -0.919922,-0.14844 c -0.505527,-0.082 -1.209093,-0.34137 -1.564453,-0.57421 -0.35536,-0.23284 -0.878562,-0.80254 -1.162109,-1.26758 l -0.515625,-0.84571 v -1.05859 -1.05859 l 0.515625,-0.84571 c 0.283547,-0.46504 0.788677,-1.0209 1.123047,-1.23632 0.334367,-0.21543 1.023873,-0.46481 1.533203,-0.55469 l 0.927734,-0.16406 1.177735,0.60742 c 0.647567,0.33377 1.221543,0.75559 1.277343,0.9375 l 0.101563,0.33008 h -1.212891 -1.21289 v 0.66211 0.66015 h 2.25 2.248046 v -2.24805 -2.25 h -0.660156 -0.662109 v 0.66211 c 0,0.36381 -0.06385,0.66211 -0.142578,0.66211 -0.0786,0 -0.488827,-0.2549 -0.910157,-0.5664 L 50.890993,518.03855 49.5824,517.9116 Z m 211.132813,0.32812 c 0.33209,8.1e-4 1.08003,0.13217 1.66211,0.29297 l 1.05859,0.29297 0.9668,1.01367 0.96875,1.01563 0.25586,1.20508 0.25781,1.20507 -0.25781,1.20508 -0.25586,1.20508 -0.96875,1.01562 -0.9668,1.01368 -1.05859,0.29297 c -0.58208,0.1608 -1.3569,0.2891 -1.7207,0.2871 -0.3638,-0.002 -1.13667,-0.22353 -1.71875,-0.49218 -0.58209,-0.26865 -1.3221,-0.77444 -1.64258,-1.12305 -0.32048,-0.3486 -0.76696,-1.07424 -0.99219,-1.61328 l -0.4082,-0.98047 0.006,-0.86719 0.006,-0.86914 0.48828,-1.05859 c 0.26865,-0.58209 0.77444,-1.32015 1.12304,-1.64063 0.34861,-0.32048 1.07424,-0.76695 1.61329,-0.99218 0.53901,-0.22523 1.25188,-0.40903 1.58398,-0.40821 z M 86.576621,518.6416 h 4.365235 4.365234 v 4.49804 4.49805 h -4.365234 -4.365235 v -4.49805 z m 90.076169,0.52929 -1.9707,1.98438 -1.9707,1.98437 1.9707,1.98438 1.9707,1.98242 0.52735,-0.52734 0.52734,-0.52735 -1.4375,-1.45703 -1.4375,-1.45508 1.4375,-1.45703 1.4375,-1.45508 -0.52734,-0.52734 z m -44.81054,0.68946 -0.54688,0.49609 -0.54687,0.49609 0.85156,0.87891 0.85351,0.87891 h -2.5664 -2.56445 v 0.66015 0.66211 h 2.5625 2.5625 l -0.75196,0.78516 -0.75,0.7832 0.33594,0.40625 c 0.18552,0.22353 0.41582,0.40625 0.51172,0.40625 0.0959,0 0.88249,-0.71516 1.74805,-1.58984 l 1.57421,-1.58985 -1.63671,-1.63671 z m 85.68359,0.5332 -1.96875,1.95508 -1.9668,1.95508 0.42969,0.47656 c 0.23711,0.262 0.49808,0.47461 0.58008,0.47461 0.082,0 0.77832,-0.61989 1.54687,-1.37891 l 1.39844,-1.38086 1.45313,1.4375 1.45703,1.4375 0.43554,-0.4375 0.4375,-0.4375 -1.33203,-1.53711 c -0.73349,-0.84574 -1.58962,-1.7687 -1.90234,-2.05078 z m -124.521484,44.24219 -0.742188,0.0879 -0.740234,0.0879 -2.824219,4.10156 -2.824219,4.10156 1.56836,0.0781 1.568359,0.0801 -0.148437,0.8457 c -0.0825,0.46562 -0.229582,1.47235 -0.326172,2.23633 l -0.175782,1.38867 h 0.775391 0.775391 l 3.111328,-3.76953 3.109375,-3.77149 -1.894531,-0.0781 -1.894532,-0.0781 0.152344,-0.84765 c 0.0836,-0.46627 0.231978,-1.66031 0.330078,-2.6543 z m 164.492184,0.83789 v 0.39648 0.39649 h -1.58789 -1.58593 v 0.66211 0.66211 h 0.39648 0.39648 v 4.44335 4.44532 l 0.31641,0.31836 0.31836,0.3164 h 3.90625 3.90625 l 0.27539,-0.51172 0.27344,-0.51171 v -4.25 -4.25 h 0.26367 0.26562 v -0.66211 -0.66211 h -1.58789 -1.58789 v -0.39649 -0.39648 h -1.98437 z m -82.14257,0.52929 -2.58399,2.57227 -2.58398,2.57422 0.52929,0.52734 0.52735,0.5293 1.71875,-1.70508 1.7207,-1.70508 v 3.76368 3.76171 h 0.79297 0.79492 v -3.68359 -3.68555 l 1.49609,1.56836 1.49415,1.56836 h 0.32421 c 0.17831,0 0.47767,-0.18711 0.66602,-0.41406 l 0.34375,-0.41211 -2.62109,-2.63086 z m 36.36914,1.5879 v 0.66015 0.66211 h 5.82226 5.82031 v -0.66211 -0.66015 h -5.82031 z m 44.71484,0 h 3.04297 3.04297 v 4.0996 4.10157 h -3.04297 -3.04297 v -4.10157 z m -127.66016,0.002 -0.86328,0.52539 -0.86328,0.52539 -0.52539,0.86133 -0.52539,0.86328 v 1.05859 1.0586 l 0.52539,0.86132 0.52539,0.86329 0.86328,0.52539 0.86328,0.52539 h 4.36524 4.36523 l 0.875,-0.53321 0.875,-0.5332 0.50781,-1.11914 c 0.27938,-0.61546 0.50782,-1.3574 0.50782,-1.64844 0,-0.29104 -0.22844,-1.033 -0.50782,-1.64843 l -0.50781,-1.11915 -0.875,-0.5332 -0.875,-0.5332 h -4.36523 z m -37.685544,0.66601 -0.175781,1.50196 -0.175781,1.50195 1.189453,0.082 1.191406,0.082 -1.40039,1.64258 -1.400391,1.64453 0.148437,-1.44531 0.150391,-1.44531 h -0.964844 c -0.529677,0 -0.96289,-0.0585 -0.96289,-0.13086 0,-0.0724 0.437566,-0.75716 0.972656,-1.52149 0.535107,-0.76432 1.076102,-1.50683 1.201172,-1.65039 z m 38.041014,0.6543 h 3.71094 3.71289 l 0.69336,0.31641 0.69336,0.3164 0.37695,0.72852 c 0.20737,0.40101 0.37891,0.9196 0.37891,1.15234 0,0.23273 -0.17154,0.75135 -0.37891,1.15235 l -0.37695,0.72851 -0.69336,0.31641 -0.69336,0.3164 h -3.71289 -3.71094 l -0.77344,-0.77343 -0.77343,-0.77344 v -0.9668 -0.96679 l 0.77343,-0.77344 z m 132.0586,0.17383 -0.78907,0.75586 -0.78906,0.75586 -0.74219,-0.71094 c -0.40813,-0.39103 -0.87122,-0.71094 -1.02734,-0.71094 -0.15612,0 -0.43498,0.18396 -0.62109,0.40821 l -0.33789,0.4082 0.83007,0.85742 0.83203,0.85742 -0.83593,0.83594 -0.83399,0.83594 0.3418,0.41211 c 0.18831,0.22689 0.46888,0.41211 0.625,0.41211 0.15612,0 0.61921,-0.31991 1.02734,-0.71094 l 0.74219,-0.71094 0.79883,0.76563 0.79687,0.76562 0.5293,-0.5293 0.5293,-0.52929 -0.80078,-0.76758 -0.79883,-0.76758 0.80078,-0.82617 0.80273,-0.82813 -0.54101,-0.49023 z m -132.04297,0.35547 -0.64844,0.64844 -0.65039,0.65039 v 0.68554 0.68555 l 0.65039,0.64844 0.64844,0.65039 h 0.75586 0.75781 l 0.57812,-0.53906 0.57813,-0.54102 v -0.9043 -0.90625 l -0.57813,-0.53906 -0.57812,-0.53906 h -0.75781 z m -84.642581,1.05859 v 0.66016 0.66211 h 4.498047 4.498047 v -0.66211 -0.66016 h -4.498047 z m 169.070311,0.26367 v 0.66211 0.66211 h 3.96875 3.96875 v -0.66211 -0.66211 h -3.96875 z m 2.64453,3.17578 v 0.66211 0.66016 h 1.32422 1.32227 v -0.66016 -0.66211 h -1.32227 z m 1.33985,39.32618 -0.53907,0.48828 -0.54101,0.48828 0.4414,0.48633 0.43946,0.48633 h -1.23047 -1.23242 v 0.66015 0.66211 h 1.23242 1.23047 l -0.43164,0.47656 -0.4336,0.47852 0.44922,0.44726 c 0.24649,0.24649 0.51621,0.44922 0.59961,0.44922 0.0834,0 0.71245,-0.56916 1.39844,-1.26562 l 1.24805,-1.26758 -1.31641,-1.29492 z m -81.88477,0.0957 c -0.16162,0 -1.71731,1.42954 -3.45898,3.17578 l -3.16797,3.17383 3.16797,3.17578 c 1.74167,1.74625 3.29736,3.17578 3.45898,3.17578 0.16163,0 0.51452,-0.24413 0.7832,-0.54101 l 0.48829,-0.53907 -2.625,-2.63476 -2.625,-2.63672 2.625,-2.63477 2.625,-2.63476 -0.48829,-0.54102 c -0.26868,-0.29688 -0.62157,-0.53906 -0.7832,-0.53906 z m 74.72461,0 v 0.66211 0.66211 h 0.64844 0.64844 l 1.08789,2.31445 1.08593,2.31445 -0.41211,0.86915 c -0.22688,0.47785 -0.41211,1.13899 -0.41211,1.46875 v 0.5996 l 0.31641,0.31641 0.31836,0.31836 h 4.17969 4.18164 v -0.66211 -0.66016 h -3.70508 c -2.03729,0 -3.70313,-0.0681 -3.70312,-0.15039 0,-0.0823 0.12279,-0.38064 0.27343,-0.66211 l 0.27344,-0.51171 h 2.5957 2.59571 l 0.39843,-0.46289 c 0.21959,-0.25466 0.95282,-1.45758 1.62891,-2.67383 0.67609,-1.21624 1.22852,-2.32535 1.22852,-2.46485 v -0.2539 l -0.72657,0.084 -0.72851,0.084 -1.28711,2.18164 -1.28906,2.18359 h -2.08594 -2.08789 l -1.38086,-2.77734 -1.38281,-2.7793 h -1.12891 z m -35.21289,0.16211 -1.18164,1.18359 -1.18359,1.1836 1.18164,1.16015 1.18164,1.15821 0.42773,-0.35352 0.42774,-0.35547 -0.12305,-0.47461 -0.125,-0.47265 0.9668,0.39453 c 0.53095,0.21706 1.17273,0.64116 1.42578,0.94336 0.25306,0.3022 0.59969,1.01839 0.77148,1.59179 l 0.3125,1.04297 -0.50781,1.2461 -0.50977,1.24804 -1.11328,0.5293 -1.11523,0.5293 -0.01,0.72656 -0.008,0.72851 h 0.3125 c 0.17234,0 0.84179,-0.25636 1.48633,-0.56835 l 1.17187,-0.56641 0.76367,-1.20508 0.76368,-1.20508 v -1.61523 -1.61719 l -0.76368,-1.20312 -0.76367,-1.20508 -1.17187,-0.56641 c -0.64454,-0.31202 -1.38747,-0.56836 -1.65039,-0.56836 h -0.47852 l 0.29688,-0.35547 0.29492,-0.35742 -0.53906,-0.48828 z m -89.300782,0.36719 -0.316406,0.31836 -0.318359,0.3164 v 5.18555 5.1875 l 0.318359,0.31641 0.316406,0.31835 h 5.087891 5.08789 l 0.416016,-0.41601 0.416016,-0.41602 v -4.92187 -4.92188 l -0.4375,-0.48242 -0.439453,-0.48437 h -5.064454 z m 0.689453,1.32226 h 4.365235 4.365234 v 4.49805 4.49805 h -4.365234 -4.365235 v -4.49805 z m -43.392578,0.79492 v 0.66211 0.66016 h 5.820313 5.822265 v -0.66016 -0.66211 h -5.822265 z m 210.609377,0 v 0.66211 0.66016 h 4.23242 4.23438 v -0.66016 -0.66211 h -4.23438 z m 10.56836,0.4336 -1.07227,1.03906 c -0.59056,0.57162 -1.3173,1.37796 -1.61523,1.79102 l -0.54297,0.75195 1.54687,1.56445 c 0.85127,0.86024 1.62375,1.5625 1.71485,1.5625 0.0911,0 0.36099,-0.21484 0.59961,-0.47851 l 0.43359,-0.48047 -1.05469,-1.0293 c -0.57986,-0.56622 -1.05468,-1.15001 -1.05468,-1.29687 0,-0.14686 0.48,-0.75406 1.0664,-1.35157 l 1.06641,-1.08789 -0.54297,-0.49023 z m -92.44727,0.0508 -0.58789,0.68359 -0.58789,0.6836 -0.27734,0.99218 c -0.15148,0.54546 -0.27458,1.32366 -0.27539,1.72852 -8.1e-4,0.40486 0.18297,1.17776 0.4082,1.7168 0.22523,0.53905 0.67171,1.26467 0.99219,1.61328 0.32047,0.3486 1.05854,0.85439 1.64062,1.12304 0.58209,0.26865 1.20677,0.48919 1.38867,0.49219 l 0.33204,0.008 v -0.64062 -0.64063 l -0.99024,-0.48437 -0.98828,-0.48438 -0.59961,-0.89843 -0.59766,-0.90039 v -1.08399 l 0.002,-1.08594 0.54297,-0.89062 0.54101,-0.88867 -0.4707,-0.52149 z m -81.634764,0.0449 v 1.17578 1.17578 l -1.255859,0.0801 -1.257813,0.082 -0.08398,0.72657 -0.08203,0.72851 h 1.339844 1.339843 v 1.33984 1.33985 l 0.728516,-0.082 0.726562,-0.084 0.08203,-1.25781 0.08008,-1.25586 h 1.175781 1.175781 v -0.79492 -0.79297 h -1.189453 -1.191406 v -1.19141 -1.18945 h -0.792969 z m -47.095703,2.64453 v 0.66211 0.66211 h 3.835938 3.83789 v -0.66211 -0.66211 h -3.83789 z m 210.609377,0 v 0.66211 0.66211 h 3.30664 3.30664 v -0.66211 -0.66211 h -3.30664 z m -210.609377,3.17578 v 0.66211 0.66016 h 1.984375 1.984375 v -0.66016 -0.66211 h -1.984375 z m 210.609377,0 v 0.66211 0.66016 h 4.23242 4.23438 v -0.66016 -0.66211 h -4.23438 z m -39.14844,0.95118 -0.73242,0.25781 -0.73438,0.25586 -0.084,0.73828 -0.0859,0.74023 0.32813,0.39258 0.32617,0.39453 0.8125,-0.0781 0.81055,-0.0801 0.25586,-0.73438 0.25781,-0.73242 -0.57617,-0.57617 z m 6.35156,0 -0.73437,0.25781 -0.73242,0.25586 -0.0859,0.73828 -0.0859,0.74023 0.32813,0.39258 0.32812,0.39453 0.81055,-0.0781 0.81055,-0.0801 0.25781,-0.73438 0.25586,-0.73242 -0.57617,-0.57617 z m -131.193356,38.14843 -0.914063,0.30078 -0.914062,0.30274 -1.105469,0.94531 -1.105469,0.94727 -0.568359,1.0957 -0.568359,1.0957 v 1.72071 1.7207 l 0.5625,1.08203 0.560546,1.08398 0.988282,0.86719 c 0.542967,0.47673 1.352901,1.03177 1.800781,1.23438 l 0.814453,0.36914 1.878906,-0.0723 1.876953,-0.0742 1.289063,-0.79687 1.291016,-0.79688 0.800781,-1.29687 0.800781,-1.29492 v -2.02539 -2.02539 l -0.800781,-1.29493 -0.800781,-1.29687 -1.277344,-0.78906 -1.277344,-0.78907 -1.666016,-0.10742 z m 172.939456,0.54688 -0.51367,0.46484 -0.51172,0.46485 0.85156,0.8789 0.85351,0.87891 h -4.8164 -4.8125 v 0.66211 0.66015 h 4.67773 4.67969 l -0.75,0.78516 -0.75195,0.7832 0.33789,0.40625 c 0.18553,0.22354 0.4759,0.40625 0.64453,0.40625 0.16864,0 0.9812,-0.68279 1.80664,-1.51953 l 1.5,-1.52148 -1.59766,-1.67578 z m -129.07032,0.041 v 0.66211 0.66016 h 1.3418 1.34375 l -3.6582,3.83594 c -2.01178,2.10937 -3.74828,3.83527 -3.85742,3.83593 l -0.19727,0.002 v -1.32422 -1.32227 h -0.66211 -0.66015 v 2.64649 2.64648 h 2.64453 2.64648 v -0.64844 -0.64843 l -1.38867,-0.0801 -1.39063,-0.0801 3.76172,-3.83594 3.76172,-3.83593 0.01,1.38867 0.008,1.38867 h 0.79492 0.79297 v -2.64453 -2.64649 h -2.64648 z m -42.804683,0.79493 c 0.33209,8.1e-4 1.080032,0.13215 1.662109,0.29296 l 1.058594,0.29297 0.966797,1.01563 0.966797,1.01367 0.257812,1.20508 0.257813,1.20508 -0.257813,1.20507 -0.257812,1.20508 -0.966797,1.01563 -0.966797,1.01367 -1.058594,0.29297 h -0.002 c -0.582077,0.16081 -1.35495,0.28911 -1.71875,0.28711 -0.3638,-0.002 -1.138626,-0.22354 -1.720703,-0.49219 -0.582087,-0.26865 -1.320155,-0.77444 -1.640625,-1.12305 -0.32048,-0.34859 -0.76696,-1.07424 -0.992187,-1.61328 l -0.410157,-0.98047 0.0078,-0.86718 0.0059,-0.86915 0.488281,-1.05859 c 0.26865,-0.58208 0.772494,-1.32014 1.121094,-1.64062 0.34861,-0.32048 1.076185,-0.76696 1.615235,-0.99219 0.539037,-0.22522 1.251884,-0.40902 1.583984,-0.4082 z M 217.54537,663.335 v 0.17578 c 0,0.0962 0.6611,1.11482 1.4707,2.26367 l 1.47266,2.08789 -0.20117,0.33398 c -0.11014,0.18299 -0.77124,1.12364 -1.4707,2.08985 -0.69949,0.96622 -1.27149,1.82917 -1.27149,1.91797 0,0.0889 0.38644,0.15829 0.85938,0.15429 l 0.85937,-0.008 1.54102,-2.24805 1.54297,-2.25 -1.55274,-2.17578 -1.55469,-2.17578 -0.84765,-0.082 z m -4.00586,0.0352 0.59961,0.85938 c 0.33008,0.47295 1.05964,1.48852 1.6211,2.25781 l 1.02148,1.39844 -0.99609,1.38086 c -0.54768,0.75869 -1.28938,1.77458 -1.64844,2.25781 l -0.65235,0.87891 1.00586,-0.0859 1.00586,-0.084 1.53711,-2.16211 1.53516,-2.16211 -1.58399,-2.26953 -1.58398,-2.26953 h -0.92969 z m -38.07031,0.79297 -0.99023,0.90625 -0.98829,0.9043 v 1.36523 1.36328 l 1.02539,0.93946 1.0254,0.93945 1.52734,-0.13867 1.5293,-0.13867 1.00586,1.03125 c 0.55358,0.56695 1.08238,1.02929 1.17578,1.02929 0.0934,0 0.36525,-0.21523 0.60351,-0.47851 l 0.4336,-0.47852 -1.16602,-1.14453 -1.16602,-1.14453 0.24415,-0.64258 c 0.13448,-0.35378 0.24414,-0.93922 0.24414,-1.30078 0,-0.36155 -0.17968,-1.00672 -0.40039,-1.43359 l -0.40235,-0.77539 -0.77539,-0.40235 -0.77539,-0.40039 h -1.07617 z m -127.78711,0.40234 v 3.30274 3.30078 l 1.650391,-1.65039 1.652343,-1.65039 -1.652343,-1.65234 z m 121.17969,0.12696 v 0.66211 0.66015 h 1.71875 1.7207 v -0.66015 -0.66211 h -1.7207 z m 8.15234,0.74804 0.55078,0.29493 0.55078,0.29492 0.16407,0.6543 0.16406,0.65429 -0.1543,0.61524 -0.15429,0.61523 -0.68165,0.31055 c -0.37414,0.17047 -0.77743,0.31054 -0.89648,0.31054 -0.11905,0 -0.53064,-0.24722 -0.91406,-0.54882 l -0.69531,-0.54883 v -0.75586 -0.75391 l 0.41406,-0.41601 c 0.22846,-0.22846 0.69313,-0.48502 1.0332,-0.57032 z m -89.132811,1.63282 -0.152344,0.39648 -0.152344,0.39649 0.152344,0.39648 0.152344,0.39648 h 3.183594 3.183593 v -0.79296 -0.79297 H 91.064903 Z M 256.34811,667.337 c -0.15951,0 -0.91896,0.6199 -1.6875,1.37891 -0.76856,0.75898 -1.39649,1.5002 -1.39649,1.64648 0,0.14627 0.67358,0.94807 1.49805,1.78125 l 1.5,1.51562 0.48437,-0.25976 c 0.26692,-0.14286 0.48633,-0.39954 0.48633,-0.56836 0,-0.16882 -0.31991,-0.64069 -0.71094,-1.04883 l -0.71093,-0.74219 h 4.81054 4.8125 v -0.66015 -0.66211 h -4.8125 -4.81054 l 0.75,-0.7832 0.75195,-0.78516 -0.33789,-0.40625 c -0.18553,-0.22354 -0.46744,-0.40625 -0.62695,-0.40625 z m -87.48633,0.5293 v 0.66211 0.66015 h 1.71875 1.7207 v -0.66015 -0.66211 h -1.7207 z m 0,3.17578 v 0.66015 0.66211 h 3.30664 3.30664 v -0.66211 -0.66015 h -3.30664 z" /></g></svg>
