<svg
   viewBox="0 0 1337.5646 2438.002"
   fill="none"
   version="1.1"
   id="svg11"
   xmlns="http://www.w3.org/2000/svg"
   xmlns:svg="http://www.w3.org/2000/svg">
   <path
      d="m 0,1698.0338 h 241.6452 c 54.8156,0 101.10315,8.3529 138.86905,25.0645 38.1039,16.7116 67.0156,41.4438 86.7349,74.1967 20.0516,32.4207 30.0773,72.3607 30.0773,119.82 0,33.4232 -6.8489,64.0019 -20.5529,91.7418 -13.3717,27.4078 -32.7528,50.8053 -58.1554,70.1925 -25.0705,19.0489 -55.1478,33.2541 -90.244,42.6095 l -27.06955,10.5271 H 74.1967 l -1.0025,-78.7083 H 244.653 c 34.758,0 63.6696,-6.0155 86.72875,-18.0464 23.0655,-12.3692 40.4415,-28.9117 52.1401,-49.6336 11.6988,-20.722 17.5512,-43.6182 17.5512,-68.6826 0,-28.0721 -5.5202,-52.6414 -16.5485,-73.6954 -11.0284,-21.0542 -28.4044,-37.2645 -52.1401,-48.6311 -23.39145,-11.6987 -53.63785,-17.5451 -90.73925,-17.5451 H 96.7608 v 650.7328 H 0 Z m 426.63875,729.9424 -177.47415,-330.8805 100.77095,-0.5013 179.9807,325.3663 v 6.0155 z m 292.7826,-542.4424 v 542.4424 h -93.2517 v -542.4424 z m -100.2697,-143.8879 c 0,-15.0387 4.5116,-27.74 13.5348,-38.0979 9.3614,-10.364 23.0653,-15.546 41.1117,-15.546 17.7142,0 31.2489,5.182 40.6043,15.546 9.6936,10.3579 14.5434,23.0592 14.5434,38.0979 0,14.3743 -4.8498,26.7374 -14.5434,37.1014 -9.3554,10.0258 -22.8901,15.0386 -40.6043,15.0386 -18.0464,0 -31.7503,-5.0128 -41.1117,-15.0386 -9.0232,-10.364 -13.5348,-22.7271 -13.5348,-37.1014 z m 224.5953,421.1246 v -11.5297 c 0,-39.1065 5.6834,-75.3683 17.0499,-108.7916 11.3605,-33.7554 27.7399,-62.9993 49.1323,-87.7315 21.3863,-25.0705 47.2902,-44.4516 77.7057,-58.1556 30.41555,-14.0361 64.50305,-21.0601 102.26905,-21.0601 38.104,0 72.3606,7.024 102.7762,21.0601 30.7476,13.704 56.8146,33.0851 78.2071,58.1556 21.7245,24.7322 38.267,53.9761 49.6335,87.7315 11.3606,33.4233 17.0439,69.6851 17.0439,108.7916 v 11.5297 c 0,39.1005 -5.6833,75.3684 -17.0439,108.7916 -11.3666,33.4173 -27.9091,62.6672 -49.6335,87.7316 -21.3925,24.7323 -47.2903,44.1194 -77.7058,58.1555 -30.0834,13.7039 -64.171,20.5528 -102.2749,20.5528 -38.0981,0 -72.3548,-6.8489 -102.77035,-20.5528 -30.4155,-14.0361 -56.4825,-33.4232 -78.207,-58.1555 -21.3924,-25.0644 -37.7718,-54.3143 -49.1323,-87.7316 -11.3665,-33.4232 -17.0499,-69.6911 -17.0499,-108.7916 z m 92.7505,-11.5297 v 11.5297 c 0,27.0696 3.1768,52.6413 9.5245,76.7032 6.3476,23.7297 15.8781,44.7837 28.5794,63.1684 13.0335,18.3846 29.24385,32.9219 48.62495,43.6181 19.3872,10.358 41.9453,15.5399 67.6802,15.5399 25.4026,0 47.6284,-5.1819 66.6774,-15.5399 19.3872,-10.6962 35.4284,-25.2335 48.1297,-43.6181 12.7013,-18.3847 22.2258,-39.4387 28.5794,-63.1684 6.6799,-24.0619 10.0258,-49.6336 10.0258,-76.7032 v -11.5297 c 0,-26.7374 -3.3459,-51.9708 -10.0258,-75.7005 -6.3536,-24.0679 -16.0472,-45.2912 -29.0807,-63.6697 -12.7013,-18.7168 -28.7425,-33.4232 -48.1297,-44.1195 -19.0489,-10.6961 -41.4439,-16.0412 -67.1786,-16.0412 -25.3967,0 -47.7918,5.3451 -67.1789,16.0412 -19.0489,10.6963 -35.09025,25.4027 -48.12375,44.1195 -12.7013,18.3785 -22.2318,39.6018 -28.5794,63.6697 -6.3477,23.7297 -9.5245,48.9631 -9.5245,75.7005 z"
      fill="#5e32ae"
      id="path1"
      style="stroke-width:1.63333" />
   <g
      id="g11"
      style="stroke-width:1.63333"
      transform="matrix(0.61224615,0,0,0.61224484,-182.64704,-375.30615)">
      <path
         d="M 2058.85,3053.25 1390.67,2721.8 796.727,2427.3 c -296.969,-147.31 -296.969,-441.93 0,-589.24 l 1262.123,625.95 c 148.48,73.66 148.48,110.48 148.48,184.14 v 294.62 c 0,73.09 -74.24,147.31 -148.48,110.48 z"
         fill="url(#paint0_linear_435_3308)"
         id="path2"
         style="fill:url(#paint0_linear_435_3308);stroke-width:1.63333" />
      <path
         d="M 722.485,622.749 1390.67,954.196 1984.6,1248.7 c 296.97,147.31 296.97,441.93 0,589.24 L 722.485,1211.99 C 574,1138.33 574,1101.51 574,1027.85 V 733.231 c 0,-73.088 74.242,-147.309 148.485,-110.482 z"
         fill="url(#paint1_linear_435_3308)"
         id="path3"
         style="fill:url(#paint1_linear_435_3308);stroke-width:1.63333" />
      <path
         d="m 1390.67,1543.32 c 296.97,-147.3 296.97,-441.92 0,-589.234 l 593.93,294.624 c 296.97,147.31 296.97,441.92 0,589.23 l -593.93,294.62 c -296.97,147.31 -296.97,441.93 0,589.24 L 796.727,2427.18 c -296.969,-147.31 -296.969,-441.93 0,-589.24 z"
         fill="url(#paint2_linear_435_3308)"
         id="path4"
         style="fill:url(#paint2_linear_435_3308);stroke-width:1.63333" />
      <path
         d="m 1390.66,1543.32 v 589.24 l 593.94,-294.62 z"
         fill="#00c6e4"
         id="path5"
         style="stroke-width:1.63333" />
      <path
         d="m 1390.66,1543.32 v 589.24 L 796.719,1837.94 Z"
         fill="#7941e1"
         id="path6"
         style="stroke-width:1.63333" />
   </g>
   <defs
      id="defs11">
      <linearGradient
         id="paint0_linear_435_3308"
         x1="1972.2"
         y1="2796.1101"
         x2="739.80798"
         y2="2082.4199"
         gradientUnits="userSpaceOnUse">
         <stop
            stop-color="#02DFFE"
            id="stop6" />
         <stop
            offset="1"
            stop-color="#5E32AE"
            id="stop7" />
      </linearGradient>
      <linearGradient
         id="paint1_linear_435_3308"
         x1="809.133"
         y1="879.888"
         x2="2041.52"
         y2="1593.58"
         gradientUnits="userSpaceOnUse">
         <stop
            stop-color="#02DFFE"
            id="stop8" />
         <stop
            offset="1"
            stop-color="#5E32AE"
            id="stop9" />
      </linearGradient>
      <linearGradient
         id="paint2_linear_435_3308"
         x1="1436.17"
         y1="1685.84"
         x2="1182.08"
         y2="1975.72"
         gradientUnits="userSpaceOnUse">
         <stop
            stop-color="#02DFFE"
            id="stop10" />
         <stop
            offset="1"
            stop-color="#5E32AE"
            id="stop11" />
      </linearGradient>
   </defs>
</svg>