<?xml version="1.0" encoding="UTF-8" standalone="no"?>
<svg
   viewBox="0 0 10000 1500"
   fill="none"
   version="1.1"
   id="svg11"
   sodipodi:docname="readme_logo.svg"
   width="10000"
   height="1500"
   inkscape:version="1.3.2 (091e20ef0f, 2023-11-25, custom)"
   inkscape:export-filename="./readme_logo.png"
   inkscape:export-xdpi="32.768002"
   inkscape:export-ydpi="32.768002"
   xmlns:inkscape="http://www.inkscape.org/namespaces/inkscape"
   xmlns:sodipodi="http://sodipodi.sourceforge.net/DTD/sodipodi-0.dtd"
   xmlns="http://www.w3.org/2000/svg"
   xmlns:svg="http://www.w3.org/2000/svg">
  <sodipodi:namedview
     id="namedview1"
     pagecolor="#ffffff"
     bordercolor="#666666"
     borderopacity="1.0"
     inkscape:showpageshadow="2"
     inkscape:pageopacity="0.0"
     inkscape:pagecheckerboard="0"
     inkscape:deskcolor="#d1d1d1"
     inkscape:zoom="0.15733333"
     inkscape:cx="6044.4917"
     inkscape:cy="826.2712"
     inkscape:window-width="3840"
     inkscape:window-height="2078"
     inkscape:window-x="1920"
     inkscape:window-y="45"
     inkscape:window-maximized="1"
     inkscape:current-layer="svg11" />
  <g
     id="g1"
     transform="translate(3643.7167)">
    <path
       d="m 1375.002,385.03182 h 241.6452 c 54.8156,0 101.1032,8.35283 138.8691,25.06444 38.1039,16.71162 67.0156,41.44383 86.7349,74.19676 20.0516,32.42067 30.0773,72.36063 30.0773,119.81996 0,33.42322 -6.8489,64.00187 -20.5529,91.74183 -13.3717,27.40783 -32.7528,50.80525 -58.1554,70.19247 -25.0705,19.04895 -55.1478,33.25414 -90.244,42.60955 l -27.0696,10.52702 h -227.1079 l -1.0025,-78.70827 h 171.4588 c 34.758,0 63.6696,-6.01551 86.7288,-18.04641 23.0655,-12.36917 40.4415,-28.9117 52.1401,-49.63362 11.6988,-20.72191 17.5512,-43.61811 17.5512,-68.68257 0,-28.07211 -5.5202,-52.64136 -16.5485,-73.69542 -11.0284,-21.05416 -28.4044,-37.26446 -52.1401,-48.63107 -23.3915,-11.69866 -53.6379,-17.54508 -90.7393,-17.54508 h -144.8844 v 650.73279 h -96.7608 z m 426.6388,729.94238 -177.4742,-330.88052 100.771,-0.50132 179.9807,325.36634 v 6.0155 z m 292.7826,-542.44242 v 542.44242 h -93.2517 V 572.53178 Z M 1994.1537,428.64389 c 0,-15.03865 4.5116,-27.73996 13.5348,-38.09791 9.3614,-10.36398 23.0653,-15.54597 41.1117,-15.54597 17.7142,0 31.2489,5.18199 40.6043,15.54597 9.6936,10.35795 14.5434,23.05926 14.5434,38.09791 0,14.37428 -4.8498,26.73742 -14.5434,37.10139 -9.3554,10.0258 -22.8901,15.03866 -40.6043,15.03866 -18.0464,0 -31.7503,-5.01286 -41.1117,-15.03866 -9.0232,-10.36397 -13.5348,-22.72711 -13.5348,-37.10139 z M 2218.749,849.7685 v -11.52967 c 0,-39.10649 5.6834,-75.36838 17.0499,-108.79161 11.3605,-33.75547 27.7399,-62.99932 49.1323,-87.73154 21.3863,-25.07047 47.2902,-44.45158 77.7057,-58.15554 30.4155,-14.0361 64.5031,-21.06017 102.269,-21.06017 38.1039,0 72.3606,7.02407 102.7761,21.06017 30.7477,13.70396 56.8146,33.08507 78.2071,58.15554 21.7245,24.73222 38.267,53.97607 49.6335,87.73154 11.3606,33.42323 17.0439,69.68512 17.0439,108.79161 v 11.52967 c 0,39.10048 -5.6833,75.36838 -17.0439,108.79162 -11.3665,33.41725 -27.909,62.66718 -49.6335,87.73158 -21.3925,24.7323 -47.2903,44.1194 -77.7058,58.1555 -30.0834,13.7039 -64.171,20.5528 -102.2749,20.5528 -38.098,0 -72.3547,-6.8489 -102.7702,-20.5528 -30.4155,-14.0361 -56.4825,-33.4232 -78.207,-58.1555 -21.3924,-25.0644 -37.7718,-54.31433 -49.1323,-87.73158 -11.3665,-33.42324 -17.0499,-69.69114 -17.0499,-108.79162 z m 92.7505,-11.52967 v 11.52967 c 0,27.06956 3.1768,52.64128 9.5245,76.70319 6.3476,23.72966 15.8781,44.78372 28.5794,63.16839 13.0335,18.38462 29.2438,32.92192 48.6249,43.61812 19.3872,10.358 41.9453,15.5399 67.6801,15.5399 25.4026,0 47.6284,-5.1819 66.6774,-15.5399 19.3872,-10.6962 35.4284,-25.2335 48.1297,-43.61812 12.7013,-18.38467 22.2258,-39.43873 28.5794,-63.16839 6.6799,-24.06191 10.0258,-49.63363 10.0258,-76.70319 v -11.52967 c 0,-26.73742 -3.3459,-51.97086 -10.0258,-75.70053 -6.3536,-24.06792 -16.0472,-45.29116 -29.0807,-63.66972 -12.7013,-18.71681 -28.7425,-33.42323 -48.1297,-44.11944 -19.0489,-10.69611 -41.4439,-16.04121 -67.1786,-16.04121 -25.3966,0 -47.7917,5.3451 -67.1788,16.04121 -19.0489,10.69621 -35.0902,25.40263 -48.1237,44.11944 -12.7013,18.37856 -22.2318,39.6018 -28.5794,63.66972 -6.3477,23.72967 -9.5245,48.96311 -9.5245,75.70053 z"
       fill="#5e32ae"
       id="path1"
       style="stroke-width:1.63333" />
    <g
       id="g11"
       style="stroke-width:1.63333"
       transform="matrix(0.61224615,0,0,0.61224484,-351.42929,-375.30615)">
      <path
         d="M 2058.85,3053.25 1390.67,2721.8 796.727,2427.3 c -296.969,-147.31 -296.969,-441.93 0,-589.24 l 1262.123,625.95 c 148.48,73.66 148.48,110.48 148.48,184.14 v 294.62 c 0,73.09 -74.24,147.31 -148.48,110.48 z"
         fill="url(#paint0_linear_435_3308)"
         id="path2"
         style="fill:url(#paint0_linear_435_3308);stroke-width:1.63333" />
      <path
         d="M 722.485,622.749 1390.67,954.196 1984.6,1248.7 c 296.97,147.31 296.97,441.93 0,589.24 L 722.485,1211.99 C 574,1138.33 574,1101.51 574,1027.85 V 733.231 c 0,-73.088 74.242,-147.309 148.485,-110.482 z"
         fill="url(#paint1_linear_435_3308)"
         id="path3"
         style="fill:url(#paint1_linear_435_3308);stroke-width:1.63333" />
      <path
         d="m 1390.67,1543.32 c 296.97,-147.3 296.97,-441.92 0,-589.234 l 593.93,294.624 c 296.97,147.31 296.97,441.92 0,589.23 l -593.93,294.62 c -296.97,147.31 -296.97,441.93 0,589.24 L 796.727,2427.18 c -296.969,-147.31 -296.969,-441.93 0,-589.24 z"
         fill="url(#paint2_linear_435_3308)"
         id="path4"
         style="fill:url(#paint2_linear_435_3308);stroke-width:1.63333" />
      <path
         d="m 1390.66,1543.32 v 589.24 l 593.94,-294.62 z"
         fill="#00c6e4"
         id="path5"
         style="stroke-width:1.63333" />
      <path
         d="m 1390.66,1543.32 v 589.24 L 796.719,1837.94 Z"
         fill="#7941e1"
         id="path6"
         style="stroke-width:1.63333" />
    </g>
  </g>
  <defs
     id="defs11">
    <linearGradient
       id="paint0_linear_435_3308"
       x1="1972.2"
       y1="2796.1101"
       x2="739.80798"
       y2="2082.4199"
       gradientUnits="userSpaceOnUse">
      <stop
         stop-color="#02DFFE"
         id="stop6" />
      <stop
         offset="1"
         stop-color="#5E32AE"
         id="stop7" />
    </linearGradient>
    <linearGradient
       id="paint1_linear_435_3308"
       x1="809.133"
       y1="879.888"
       x2="2041.52"
       y2="1593.58"
       gradientUnits="userSpaceOnUse">
      <stop
         stop-color="#02DFFE"
         id="stop8" />
      <stop
         offset="1"
         stop-color="#5E32AE"
         id="stop9" />
    </linearGradient>
    <linearGradient
       id="paint2_linear_435_3308"
       x1="1436.17"
       y1="1685.84"
       x2="1182.08"
       y2="1975.72"
       gradientUnits="userSpaceOnUse">
      <stop
         stop-color="#02DFFE"
         id="stop10" />
      <stop
         offset="1"
         stop-color="#5E32AE"
         id="stop11" />
    </linearGradient>
  </defs>
</svg>
