<svg width="800" height="500" viewBox="0 0 800 500" fill="none" xmlns="http://www.w3.org/2000/svg">
<rect width="800" height="500" fill="url(#paint0_linear_515_17133)"/>
<g clip-path="url(#clip0_515_17133)">
<mask id="mask0_515_17133" style="mask-type:luminance" maskUnits="userSpaceOnUse" x="-717" y="52" width="2290" height="1185">
<path d="M1572.33 52H-717V1236.67H1572.33V52Z" fill="white"/>
</mask>
<g mask="url(#mask0_515_17133)">
<mask id="mask1_515_17133" style="mask-type:luminance" maskUnits="userSpaceOnUse" x="-717" y="52" width="2211" height="1185">
<path d="M1493.67 52H-717V1236.67H1493.67V52Z" fill="white"/>
</mask>
<g mask="url(#mask1_515_17133)">
<mask id="mask2_515_17133" style="mask-type:luminance" maskUnits="userSpaceOnUse" x="300" y="84" width="177" height="57">
<path d="M476.336 84H300.336V140.667H476.336V84Z" fill="white"/>
</mask>
<g mask="url(#mask2_515_17133)">
<path d="M338.055 118.523V120.68C338.055 123.242 337.734 125.539 337.094 127.57C336.453 129.602 335.531 131.328 334.328 132.75C333.125 134.172 331.68 135.258 329.992 136.008C328.32 136.758 326.445 137.133 324.367 137.133C322.352 137.133 320.5 136.758 318.812 136.008C317.141 135.258 315.688 134.172 314.453 132.75C313.234 131.328 312.289 129.602 311.617 127.57C310.945 125.539 310.609 123.242 310.609 120.68V118.523C310.609 115.961 310.938 113.672 311.594 111.656C312.266 109.625 313.211 107.898 314.43 106.477C315.648 105.039 317.094 103.945 318.766 103.195C320.453 102.445 322.305 102.07 324.32 102.07C326.398 102.07 328.273 102.445 329.945 103.195C331.633 103.945 333.078 105.039 334.281 106.477C335.5 107.898 336.43 109.625 337.07 111.656C337.727 113.672 338.055 115.961 338.055 118.523ZM333.578 120.68V118.477C333.578 116.445 333.367 114.648 332.945 113.086C332.539 111.523 331.938 110.211 331.141 109.148C330.344 108.086 329.367 107.281 328.211 106.734C327.07 106.188 325.773 105.914 324.32 105.914C322.914 105.914 321.641 106.188 320.5 106.734C319.375 107.281 318.406 108.086 317.594 109.148C316.797 110.211 316.18 111.523 315.742 113.086C315.305 114.648 315.086 116.445 315.086 118.477V120.68C315.086 122.727 315.305 124.539 315.742 126.117C316.18 127.68 316.805 129 317.617 130.078C318.445 131.141 319.422 131.945 320.547 132.492C321.688 133.039 322.961 133.312 324.367 133.312C325.836 133.312 327.141 133.039 328.281 132.492C329.422 131.945 330.383 131.141 331.164 130.078C331.961 129 332.562 127.68 332.969 126.117C333.375 124.539 333.578 122.727 333.578 120.68ZM346.82 100.664V103.242L346.328 111.867H343.305L343.328 103.641V100.664H346.82ZM365.453 129.938C365.453 129.312 365.312 128.734 365.031 128.203C364.766 127.656 364.211 127.164 363.367 126.727C362.539 126.273 361.289 125.883 359.617 125.555C358.211 125.258 356.938 124.906 355.797 124.5C354.672 124.094 353.711 123.602 352.914 123.023C352.133 122.445 351.531 121.766 351.109 120.984C350.688 120.203 350.477 119.289 350.477 118.242C350.477 117.242 350.695 116.297 351.133 115.406C351.586 114.516 352.219 113.727 353.031 113.039C353.859 112.352 354.852 111.812 356.008 111.422C357.164 111.031 358.453 110.836 359.875 110.836C361.906 110.836 363.641 111.195 365.078 111.914C366.516 112.633 367.617 113.594 368.383 114.797C369.148 115.984 369.531 117.305 369.531 118.758H365.195C365.195 118.055 364.984 117.375 364.562 116.719C364.156 116.047 363.555 115.492 362.758 115.055C361.977 114.617 361.016 114.398 359.875 114.398C358.672 114.398 357.695 114.586 356.945 114.961C356.211 115.32 355.672 115.781 355.328 116.344C355 116.906 354.836 117.5 354.836 118.125C354.836 118.594 354.914 119.016 355.07 119.391C355.242 119.75 355.539 120.086 355.961 120.398C356.383 120.695 356.977 120.977 357.742 121.242C358.508 121.508 359.484 121.773 360.672 122.039C362.75 122.508 364.461 123.07 365.805 123.727C367.148 124.383 368.148 125.188 368.805 126.141C369.461 127.094 369.789 128.25 369.789 129.609C369.789 130.719 369.555 131.734 369.086 132.656C368.633 133.578 367.969 134.375 367.094 135.047C366.234 135.703 365.203 136.219 364 136.594C362.812 136.953 361.477 137.133 359.992 137.133C357.758 137.133 355.867 136.734 354.32 135.938C352.773 135.141 351.602 134.109 350.805 132.844C350.008 131.578 349.609 130.242 349.609 128.836H353.969C354.031 130.023 354.375 130.969 355 131.672C355.625 132.359 356.391 132.852 357.297 133.148C358.203 133.43 359.102 133.57 359.992 133.57C361.18 133.57 362.172 133.414 362.969 133.102C363.781 132.789 364.398 132.359 364.82 131.812C365.242 131.266 365.453 130.641 365.453 129.938ZM398.008 111.305V114.633H384.297V111.305H398.008ZM388.938 105.141H393.273V130.383C393.273 131.242 393.406 131.891 393.672 132.328C393.938 132.766 394.281 133.055 394.703 133.195C395.125 133.336 395.578 133.406 396.062 133.406C396.422 133.406 396.797 133.375 397.188 133.312C397.594 133.234 397.898 133.172 398.102 133.125L398.125 136.664C397.781 136.773 397.328 136.875 396.766 136.969C396.219 137.078 395.555 137.133 394.773 137.133C393.711 137.133 392.734 136.922 391.844 136.5C390.953 136.078 390.242 135.375 389.711 134.391C389.195 133.391 388.938 132.047 388.938 130.359V105.141ZM418.609 130.805V111.305H422.969V136.664H418.82L418.609 130.805ZM419.43 125.461L421.234 125.414C421.234 127.102 421.055 128.664 420.695 130.102C420.352 131.523 419.789 132.758 419.008 133.805C418.227 134.852 417.203 135.672 415.938 136.266C414.672 136.844 413.133 137.133 411.32 137.133C410.086 137.133 408.953 136.953 407.922 136.594C406.906 136.234 406.031 135.68 405.297 134.93C404.562 134.18 403.992 133.203 403.586 132C403.195 130.797 403 129.352 403 127.664V111.305H407.336V127.711C407.336 128.852 407.461 129.797 407.711 130.547C407.977 131.281 408.328 131.867 408.766 132.305C409.219 132.727 409.719 133.023 410.266 133.195C410.828 133.367 411.406 133.453 412 133.453C413.844 133.453 415.305 133.102 416.383 132.398C417.461 131.68 418.234 130.719 418.703 129.516C419.188 128.297 419.43 126.945 419.43 125.461ZM433.914 115.289V136.664H429.578V111.305H433.797L433.914 115.289ZM441.836 111.164L441.812 115.195C441.453 115.117 441.109 115.07 440.781 115.055C440.469 115.023 440.109 115.008 439.703 115.008C438.703 115.008 437.82 115.164 437.055 115.477C436.289 115.789 435.641 116.227 435.109 116.789C434.578 117.352 434.156 118.023 433.844 118.805C433.547 119.57 433.352 120.414 433.258 121.336L432.039 122.039C432.039 120.508 432.188 119.07 432.484 117.727C432.797 116.383 433.273 115.195 433.914 114.164C434.555 113.117 435.367 112.305 436.352 111.727C437.352 111.133 438.539 110.836 439.914 110.836C440.227 110.836 440.586 110.875 440.992 110.953C441.398 111.016 441.68 111.086 441.836 111.164ZM450.18 116.719V136.664H445.844V111.305H449.945L450.18 116.719ZM449.148 123.023L447.344 122.953C447.359 121.219 447.617 119.617 448.117 118.148C448.617 116.664 449.32 115.375 450.227 114.281C451.133 113.188 452.211 112.344 453.461 111.75C454.727 111.141 456.125 110.836 457.656 110.836C458.906 110.836 460.031 111.008 461.031 111.352C462.031 111.68 462.883 112.211 463.586 112.945C464.305 113.68 464.852 114.633 465.227 115.805C465.602 116.961 465.789 118.375 465.789 120.047V136.664H461.43V120C461.43 118.672 461.234 117.609 460.844 116.812C460.453 116 459.883 115.414 459.133 115.055C458.383 114.68 457.461 114.492 456.367 114.492C455.289 114.492 454.305 114.719 453.414 115.172C452.539 115.625 451.781 116.25 451.141 117.047C450.516 117.844 450.023 118.758 449.664 119.789C449.32 120.805 449.148 121.883 449.148 123.023Z" fill="white"/>
</g>
<mask id="mask3_515_17133" style="mask-type:luminance" maskUnits="userSpaceOnUse" x="300" y="172" width="49" height="49">
<path d="M348.336 172.664H300.336V220.664H348.336V172.664Z" fill="white"/>
</mask>
<g mask="url(#mask3_515_17133)">
<path d="M324.331 199.054L313.975 209.411C313.635 209.751 313.237 209.921 312.781 209.921C312.326 209.921 311.928 209.751 311.588 209.411C311.248 209.071 311.078 208.673 311.078 208.217C311.078 207.762 311.248 207.364 311.588 207.024L321.944 196.667L311.588 186.311C311.248 185.971 311.078 185.573 311.078 185.117C311.078 184.662 311.248 184.264 311.588 183.924C311.928 183.584 312.326 183.414 312.781 183.414C313.237 183.414 313.635 183.584 313.975 183.924L324.331 194.28L334.688 183.924C335.028 183.584 335.426 183.414 335.881 183.414C336.337 183.414 336.735 183.584 337.075 183.924C337.415 184.264 337.585 184.662 337.585 185.117C337.585 185.573 337.415 185.971 337.075 186.311L326.718 196.667L337.075 207.024C337.415 207.364 337.585 207.762 337.585 208.217C337.585 208.673 337.415 209.071 337.075 209.411C336.735 209.751 336.337 209.921 335.881 209.921C335.426 209.921 335.028 209.751 334.688 209.411L324.331 199.054Z" fill="#FF0000"/>
</g>
<path d="M389.936 172.664H386.736C374.365 172.664 364.336 182.693 364.336 195.064V198.264C364.336 210.635 374.365 220.664 386.736 220.664H389.936C402.307 220.664 412.336 210.635 412.336 198.264V195.064C412.336 182.693 402.307 172.664 389.936 172.664Z" fill="#DCFAFE"/>
<path d="M453.936 172.664H450.736C438.365 172.664 428.336 182.693 428.336 195.064V198.264C428.336 210.635 438.365 220.664 450.736 220.664H453.936C466.307 220.664 476.336 210.635 476.336 198.264V195.064C476.336 182.693 466.307 172.664 453.936 172.664Z" fill="#DCFAFE"/>
<mask id="mask4_515_17133" style="mask-type:luminance" maskUnits="userSpaceOnUse" x="300" y="236" width="49" height="49">
<path d="M348.336 236.664H300.336V284.664H348.336V236.664Z" fill="white"/>
</mask>
<g mask="url(#mask4_515_17133)">
<path d="M324.332 280.961C321.55 280.961 318.924 280.43 316.455 279.367C313.986 278.305 311.829 276.852 309.985 275.008C308.141 273.164 306.688 271.008 305.625 268.54C304.563 266.072 304.031 263.446 304.031 260.664C304.031 257.849 304.563 255.206 305.625 252.737C306.688 250.268 308.14 248.12 309.983 246.292C311.826 244.464 313.982 243.017 316.45 241.951C318.919 240.885 321.545 240.352 324.327 240.352C327.144 240.352 329.787 240.884 332.257 241.95C334.727 243.016 336.876 244.462 338.703 246.288C340.53 248.115 341.976 250.263 343.042 252.733C344.108 255.202 344.641 257.845 344.641 260.662C344.641 263.446 344.108 266.072 343.042 268.541C341.976 271.01 340.529 273.166 338.701 275.009C336.873 276.852 334.725 278.305 332.257 279.367C329.789 280.43 327.147 280.961 324.332 280.961V280.961ZM324.33 277.555C329.032 277.555 333.022 275.909 336.302 272.617C339.583 269.326 341.223 265.341 341.223 260.662C341.223 255.961 339.583 251.97 336.302 248.69C333.022 245.41 329.03 243.77 324.324 243.77C319.652 243.77 315.67 245.41 312.377 248.69C309.084 251.97 307.438 255.963 307.438 260.668C307.438 265.341 309.084 269.323 312.375 272.616C315.667 275.908 319.652 277.555 324.33 277.555Z" fill="#0000FF"/>
</g>
<mask id="mask5_515_17133" style="mask-type:luminance" maskUnits="userSpaceOnUse" x="364" y="236" width="49" height="49">
<path d="M412.336 236.664H364.336V284.664H412.336V236.664Z" fill="white"/>
</mask>
<g mask="url(#mask5_515_17133)">
<path d="M388.331 263.054L377.975 273.411C377.635 273.751 377.237 273.921 376.781 273.921C376.326 273.921 375.928 273.751 375.588 273.411C375.248 273.071 375.078 272.673 375.078 272.217C375.078 271.762 375.248 271.364 375.588 271.024L385.944 260.667L375.588 250.311C375.248 249.971 375.078 249.573 375.078 249.117C375.078 248.662 375.248 248.264 375.588 247.924C375.928 247.584 376.326 247.414 376.781 247.414C377.237 247.414 377.635 247.584 377.975 247.924L388.331 258.28L398.688 247.924C399.028 247.584 399.426 247.414 399.881 247.414C400.337 247.414 400.735 247.584 401.075 247.924C401.415 248.264 401.585 248.662 401.585 249.117C401.585 249.573 401.415 249.971 401.075 250.311L390.718 260.667L401.075 271.024C401.415 271.364 401.585 271.762 401.585 272.217C401.585 272.673 401.415 273.071 401.075 273.411C400.735 273.751 400.337 273.921 399.881 273.921C399.426 273.921 399.028 273.751 398.688 273.411L388.331 263.054Z" fill="#FF0000"/>
</g>
<mask id="mask6_515_17133" style="mask-type:luminance" maskUnits="userSpaceOnUse" x="428" y="236" width="49" height="49">
<path d="M476.336 236.664H428.336V284.664H476.336V236.664Z" fill="white"/>
</mask>
<g mask="url(#mask6_515_17133)">
<path d="M452.332 280.961C449.55 280.961 446.924 280.43 444.455 279.367C441.986 278.305 439.829 276.852 437.985 275.008C436.141 273.164 434.688 271.008 433.625 268.54C432.563 266.072 432.031 263.446 432.031 260.664C432.031 257.849 432.563 255.206 433.625 252.737C434.688 250.268 436.14 248.12 437.983 246.292C439.826 244.464 441.982 243.017 444.45 241.951C446.919 240.885 449.545 240.352 452.327 240.352C455.144 240.352 457.787 240.884 460.257 241.95C462.727 243.016 464.876 244.462 466.703 246.288C468.53 248.115 469.976 250.263 471.042 252.733C472.108 255.202 472.641 257.845 472.641 260.662C472.641 263.446 472.108 266.072 471.042 268.541C469.976 271.01 468.529 273.166 466.701 275.009C464.873 276.852 462.725 278.305 460.257 279.367C457.789 280.43 455.147 280.961 452.332 280.961V280.961ZM452.33 277.555C457.032 277.555 461.022 275.909 464.302 272.617C467.583 269.326 469.223 265.341 469.223 260.662C469.223 255.961 467.583 251.97 464.302 248.69C461.022 245.41 457.03 243.77 452.324 243.77C447.652 243.77 443.67 245.41 440.377 248.69C437.084 251.97 435.438 255.963 435.438 260.668C435.438 265.341 437.084 269.323 440.375 272.616C443.667 275.908 447.652 277.555 452.33 277.555Z" fill="#0000FF"/>
</g>
<mask id="mask7_515_17133" style="mask-type:luminance" maskUnits="userSpaceOnUse" x="300" y="300" width="49" height="49">
<path d="M348.336 300.664H300.336V348.664H348.336V300.664Z" fill="white"/>
</mask>
<g mask="url(#mask7_515_17133)">
<path d="M324.331 327.054L313.975 337.411C313.635 337.751 313.237 337.921 312.781 337.921C312.326 337.921 311.928 337.751 311.588 337.411C311.248 337.071 311.078 336.673 311.078 336.217C311.078 335.762 311.248 335.364 311.588 335.024L321.944 324.667L311.588 314.311C311.248 313.971 311.078 313.573 311.078 313.117C311.078 312.662 311.248 312.264 311.588 311.924C311.928 311.584 312.326 311.414 312.781 311.414C313.237 311.414 313.635 311.584 313.975 311.924L324.331 322.28L334.688 311.924C335.028 311.584 335.426 311.414 335.881 311.414C336.337 311.414 336.735 311.584 337.075 311.924C337.415 312.264 337.585 312.662 337.585 313.117C337.585 313.573 337.415 313.971 337.075 314.311L326.718 324.667L337.075 335.024C337.415 335.364 337.585 335.762 337.585 336.217C337.585 336.673 337.415 337.071 337.075 337.411C336.735 337.751 336.337 337.921 335.881 337.921C335.426 337.921 335.028 337.751 334.688 337.411L324.331 327.054Z" fill="#FF0000"/>
</g>
<path d="M389.936 300.664H386.736C374.365 300.664 364.336 310.693 364.336 323.064V326.264C364.336 338.635 374.365 348.664 386.736 348.664H389.936C402.307 348.664 412.336 338.635 412.336 326.264V323.064C412.336 310.693 402.307 300.664 389.936 300.664Z" fill="#DCFAFE"/>
<path d="M453.936 300.664H450.736C438.365 300.664 428.336 310.693 428.336 323.064V326.264C428.336 338.635 438.365 348.664 450.736 348.664H453.936C466.307 348.664 476.336 338.635 476.336 326.264V323.064C476.336 310.693 466.307 300.664 453.936 300.664Z" fill="#DCFAFE"/>
<mask id="mask8_515_17133" style="mask-type:luminance" maskUnits="userSpaceOnUse" x="70" y="334" width="636" height="128">
<path d="M476.336 380.664H300.336V415.864H476.336V380.664Z" fill="white"/>
<path d="M705.952 334.75H70.7188V461.8H705.952V334.75Z" fill="white"/>
<path d="M476.336 380.664H300.336V415.864H476.336V380.664Z" fill="white"/>
</mask>
<g mask="url(#mask8_515_17133)">
<mask id="mask9_515_17133" style="mask-type:luminance" maskUnits="userSpaceOnUse" x="352" y="387" width="23" height="23">
<path d="M374.58 387.07H352.18V409.47H374.58V387.07Z" fill="white"/>
</mask>
<g mask="url(#mask9_515_17133)">
<path d="M363.355 405.88C361.249 405.88 359.455 405.139 357.973 403.657C356.491 402.174 355.75 400.381 355.75 398.275C355.75 396.169 356.491 394.374 357.973 392.89C359.455 391.406 361.249 390.664 363.355 390.664C364.699 390.664 365.88 390.936 366.895 391.48C367.911 392.024 368.79 392.774 369.532 393.729V391.397C369.532 391.186 369.601 391.011 369.738 390.872C369.875 390.734 370.051 390.664 370.266 390.664C370.477 390.664 370.652 390.734 370.791 390.872C370.93 391.011 370.999 391.186 370.999 391.397V396.002C370.999 396.23 370.923 396.419 370.77 396.57C370.618 396.721 370.427 396.796 370.199 396.796H365.589C365.38 396.796 365.206 396.727 365.068 396.588C364.93 396.449 364.861 396.274 364.861 396.063C364.861 395.853 364.931 395.68 365.07 395.542C365.209 395.404 365.384 395.335 365.595 395.335H368.759C368.164 394.417 367.415 393.675 366.512 393.108C365.609 392.542 364.556 392.259 363.355 392.259C361.675 392.259 360.252 392.842 359.087 394.007C357.922 395.172 357.339 396.594 357.339 398.275C357.339 399.955 357.922 401.378 359.087 402.543C360.252 403.708 361.675 404.29 363.355 404.29C364.492 404.29 365.555 403.994 366.543 403.402C367.532 402.81 368.277 402.01 368.778 401.001C368.877 400.811 369.028 400.67 369.232 400.58C369.436 400.489 369.636 400.488 369.832 400.577C370.042 400.662 370.183 400.803 370.257 401.001C370.33 401.198 370.322 401.398 370.233 401.599C369.608 402.909 368.678 403.95 367.442 404.722C366.206 405.494 364.844 405.88 363.355 405.88Z" fill="white"/>
</g>
<mask id="mask10_515_17133" style="mask-type:luminance" maskUnits="userSpaceOnUse" x="384" y="388" width="41" height="20">
<path d="M424.48 388.602H384.18V407.935H424.48V388.602Z" fill="white"/>
</mask>
<g mask="url(#mask10_515_17133)">
<path d="M385.5 395.562H389.266C390.12 395.562 390.841 395.693 391.43 395.953C392.023 396.214 392.474 396.599 392.781 397.109C393.094 397.615 393.25 398.237 393.25 398.977C393.25 399.497 393.143 399.974 392.93 400.406C392.721 400.833 392.419 401.198 392.023 401.5C391.633 401.797 391.164 402.018 390.617 402.164L390.195 402.328H386.656L386.641 401.102H389.312C389.854 401.102 390.305 401.008 390.664 400.82C391.023 400.628 391.294 400.37 391.477 400.047C391.659 399.724 391.75 399.367 391.75 398.977C391.75 398.539 391.664 398.156 391.492 397.828C391.32 397.5 391.049 397.247 390.68 397.07C390.315 396.888 389.844 396.797 389.266 396.797H387.008V406.938H385.5V395.562ZM392.148 406.938L389.383 401.781L390.953 401.773L393.758 406.844V406.938H392.148ZM398.648 407.094C398.06 407.094 397.526 406.995 397.047 406.797C396.573 406.594 396.164 406.31 395.82 405.945C395.482 405.581 395.221 405.148 395.039 404.648C394.857 404.148 394.766 403.602 394.766 403.008V402.68C394.766 401.992 394.867 401.38 395.07 400.844C395.273 400.302 395.549 399.844 395.898 399.469C396.247 399.094 396.643 398.81 397.086 398.617C397.529 398.424 397.987 398.328 398.461 398.328C399.065 398.328 399.586 398.432 400.023 398.641C400.466 398.849 400.828 399.141 401.109 399.516C401.391 399.885 401.599 400.323 401.734 400.828C401.87 401.328 401.938 401.875 401.938 402.469V403.117H395.625V401.938H400.492V401.828C400.471 401.453 400.393 401.089 400.258 400.734C400.128 400.38 399.919 400.089 399.633 399.859C399.346 399.63 398.956 399.516 398.461 399.516C398.133 399.516 397.831 399.586 397.555 399.727C397.279 399.862 397.042 400.065 396.844 400.336C396.646 400.607 396.492 400.938 396.383 401.328C396.273 401.719 396.219 402.169 396.219 402.68V403.008C396.219 403.409 396.273 403.786 396.383 404.141C396.497 404.49 396.661 404.797 396.875 405.062C397.094 405.328 397.357 405.536 397.664 405.688C397.977 405.839 398.331 405.914 398.727 405.914C399.237 405.914 399.669 405.81 400.023 405.602C400.378 405.393 400.688 405.115 400.953 404.766L401.828 405.461C401.646 405.737 401.414 406 401.133 406.25C400.852 406.5 400.505 406.703 400.094 406.859C399.688 407.016 399.206 407.094 398.648 407.094ZM408.547 404.695C408.547 404.487 408.5 404.294 408.406 404.117C408.318 403.935 408.133 403.771 407.852 403.625C407.576 403.474 407.159 403.344 406.602 403.234C406.133 403.135 405.708 403.018 405.328 402.883C404.953 402.747 404.633 402.583 404.367 402.391C404.107 402.198 403.906 401.971 403.766 401.711C403.625 401.451 403.555 401.146 403.555 400.797C403.555 400.464 403.628 400.148 403.773 399.852C403.924 399.555 404.135 399.292 404.406 399.062C404.682 398.833 405.013 398.654 405.398 398.523C405.784 398.393 406.214 398.328 406.688 398.328C407.365 398.328 407.943 398.448 408.422 398.688C408.901 398.927 409.268 399.247 409.523 399.648C409.779 400.044 409.906 400.484 409.906 400.969H408.461C408.461 400.734 408.391 400.508 408.25 400.289C408.115 400.065 407.914 399.88 407.648 399.734C407.388 399.589 407.068 399.516 406.688 399.516C406.286 399.516 405.961 399.578 405.711 399.703C405.466 399.823 405.286 399.977 405.172 400.164C405.062 400.352 405.008 400.549 405.008 400.758C405.008 400.914 405.034 401.055 405.086 401.18C405.143 401.299 405.242 401.411 405.383 401.516C405.523 401.615 405.721 401.708 405.977 401.797C406.232 401.885 406.557 401.974 406.953 402.062C407.646 402.219 408.216 402.406 408.664 402.625C409.112 402.844 409.445 403.112 409.664 403.43C409.883 403.747 409.992 404.133 409.992 404.586C409.992 404.956 409.914 405.294 409.758 405.602C409.607 405.909 409.385 406.174 409.094 406.398C408.807 406.617 408.464 406.789 408.062 406.914C407.667 407.034 407.221 407.094 406.727 407.094C405.982 407.094 405.352 406.961 404.836 406.695C404.32 406.43 403.93 406.086 403.664 405.664C403.398 405.242 403.266 404.797 403.266 404.328H404.719C404.74 404.724 404.854 405.039 405.062 405.273C405.271 405.503 405.526 405.667 405.828 405.766C406.13 405.859 406.43 405.906 406.727 405.906C407.122 405.906 407.453 405.854 407.719 405.75C407.99 405.646 408.195 405.503 408.336 405.32C408.477 405.138 408.547 404.93 408.547 404.695ZM415.398 407.094C414.81 407.094 414.276 406.995 413.797 406.797C413.323 406.594 412.914 406.31 412.57 405.945C412.232 405.581 411.971 405.148 411.789 404.648C411.607 404.148 411.516 403.602 411.516 403.008V402.68C411.516 401.992 411.617 401.38 411.82 400.844C412.023 400.302 412.299 399.844 412.648 399.469C412.997 399.094 413.393 398.81 413.836 398.617C414.279 398.424 414.737 398.328 415.211 398.328C415.815 398.328 416.336 398.432 416.773 398.641C417.216 398.849 417.578 399.141 417.859 399.516C418.141 399.885 418.349 400.323 418.484 400.828C418.62 401.328 418.688 401.875 418.688 402.469V403.117H412.375V401.938H417.242V401.828C417.221 401.453 417.143 401.089 417.008 400.734C416.878 400.38 416.669 400.089 416.383 399.859C416.096 399.63 415.706 399.516 415.211 399.516C414.883 399.516 414.581 399.586 414.305 399.727C414.029 399.862 413.792 400.065 413.594 400.336C413.396 400.607 413.242 400.938 413.133 401.328C413.023 401.719 412.969 402.169 412.969 402.68V403.008C412.969 403.409 413.023 403.786 413.133 404.141C413.247 404.49 413.411 404.797 413.625 405.062C413.844 405.328 414.107 405.536 414.414 405.688C414.727 405.839 415.081 405.914 415.477 405.914C415.987 405.914 416.419 405.81 416.773 405.602C417.128 405.393 417.438 405.115 417.703 404.766L418.578 405.461C418.396 405.737 418.164 406 417.883 406.25C417.602 406.5 417.255 406.703 416.844 406.859C416.438 407.016 415.956 407.094 415.398 407.094ZM423.914 398.484V399.594H419.344V398.484H423.914ZM420.891 396.43H422.336V404.844C422.336 405.13 422.38 405.346 422.469 405.492C422.557 405.638 422.672 405.734 422.812 405.781C422.953 405.828 423.104 405.852 423.266 405.852C423.385 405.852 423.51 405.841 423.641 405.82C423.776 405.794 423.878 405.773 423.945 405.758L423.953 406.938C423.839 406.974 423.688 407.008 423.5 407.039C423.318 407.076 423.096 407.094 422.836 407.094C422.482 407.094 422.156 407.023 421.859 406.883C421.562 406.742 421.326 406.508 421.148 406.18C420.977 405.846 420.891 405.398 420.891 404.836V396.43Z" fill="white"/>
</g>
</g>
</g>
</g>
</g>
<defs>
<linearGradient id="paint0_linear_515_17133" x1="4.74873" y1="7.39654e-06" x2="779.078" y2="523.904" gradientUnits="userSpaceOnUse">
<stop offset="0.147399" stop-color="#00C6E4"/>
<stop offset="1" stop-color="#553FB3"/>
</linearGradient>
<clipPath id="clip0_515_17133">
<rect width="472" height="421" fill="white" transform="translate(164 59)"/>
</clipPath>
</defs>
</svg>
