<svg width="800" height="450" viewBox="0 0 800 450" fill="none" xmlns="http://www.w3.org/2000/svg">
<rect width="800" height="450" fill="url(#paint0_linear_515_17133)"/>
<g clip-path="url(#clip0_515_17133)">
<mask id="mask0_515_17133" style="mask-type:luminance" maskUnits="userSpaceOnUse" x="-717" y="22" width="2290" height="1185">
<path d="M1572.33 22H-717V1206.67H1572.33V22Z" fill="white"/>
</mask>
<g mask="url(#mask0_515_17133)">
<mask id="mask1_515_17133" style="mask-type:luminance" maskUnits="userSpaceOnUse" x="-717" y="22" width="2211" height="1185">
<path d="M1493.67 22H-717V1206.67H1493.67V22Z" fill="white"/>
</mask>
<g mask="url(#mask1_515_17133)">
<mask id="mask2_515_17133" style="mask-type:luminance" maskUnits="userSpaceOnUse" x="300" y="54" width="177" height="57">
<path d="M476.336 54H300.336V110.667H476.336V54Z" fill="white"/>
</mask>
<g mask="url(#mask2_515_17133)">
<path d="M338.055 88.5234V90.6797C338.055 93.2422 337.734 95.5391 337.094 97.5703C336.453 99.6016 335.531 101.328 334.328 102.75C333.125 104.172 331.68 105.258 329.992 106.008C328.32 106.758 326.445 107.133 324.367 107.133C322.352 107.133 320.5 106.758 318.812 106.008C317.141 105.258 315.688 104.172 314.453 102.75C313.234 101.328 312.289 99.6016 311.617 97.5703C310.945 95.5391 310.609 93.2422 310.609 90.6797V88.5234C310.609 85.9609 310.938 83.6719 311.594 81.6562C312.266 79.625 313.211 77.8984 314.43 76.4766C315.648 75.0391 317.094 73.9453 318.766 73.1953C320.453 72.4453 322.305 72.0703 324.32 72.0703C326.398 72.0703 328.273 72.4453 329.945 73.1953C331.633 73.9453 333.078 75.0391 334.281 76.4766C335.5 77.8984 336.43 79.625 337.07 81.6562C337.727 83.6719 338.055 85.9609 338.055 88.5234ZM333.578 90.6797V88.4766C333.578 86.4453 333.367 84.6484 332.945 83.0859C332.539 81.5234 331.938 80.2109 331.141 79.1484C330.344 78.0859 329.367 77.2812 328.211 76.7344C327.07 76.1875 325.773 75.9141 324.32 75.9141C322.914 75.9141 321.641 76.1875 320.5 76.7344C319.375 77.2812 318.406 78.0859 317.594 79.1484C316.797 80.2109 316.18 81.5234 315.742 83.0859C315.305 84.6484 315.086 86.4453 315.086 88.4766V90.6797C315.086 92.7266 315.305 94.5391 315.742 96.1172C316.18 97.6797 316.805 99 317.617 100.078C318.445 101.141 319.422 101.945 320.547 102.492C321.688 103.039 322.961 103.312 324.367 103.312C325.836 103.312 327.141 103.039 328.281 102.492C329.422 101.945 330.383 101.141 331.164 100.078C331.961 99 332.562 97.6797 332.969 96.1172C333.375 94.5391 333.578 92.7266 333.578 90.6797ZM346.82 70.6641V73.2422L346.328 81.8672H343.305L343.328 73.6406V70.6641H346.82ZM365.453 99.9375C365.453 99.3125 365.312 98.7344 365.031 98.2031C364.766 97.6562 364.211 97.1641 363.367 96.7266C362.539 96.2734 361.289 95.8828 359.617 95.5547C358.211 95.2578 356.938 94.9062 355.797 94.5C354.672 94.0938 353.711 93.6016 352.914 93.0234C352.133 92.4453 351.531 91.7656 351.109 90.9844C350.688 90.2031 350.477 89.2891 350.477 88.2422C350.477 87.2422 350.695 86.2969 351.133 85.4062C351.586 84.5156 352.219 83.7266 353.031 83.0391C353.859 82.3516 354.852 81.8125 356.008 81.4219C357.164 81.0312 358.453 80.8359 359.875 80.8359C361.906 80.8359 363.641 81.1953 365.078 81.9141C366.516 82.6328 367.617 83.5938 368.383 84.7969C369.148 85.9844 369.531 87.3047 369.531 88.7578H365.195C365.195 88.0547 364.984 87.375 364.562 86.7188C364.156 86.0469 363.555 85.4922 362.758 85.0547C361.977 84.6172 361.016 84.3984 359.875 84.3984C358.672 84.3984 357.695 84.5859 356.945 84.9609C356.211 85.3203 355.672 85.7812 355.328 86.3438C355 86.9062 354.836 87.5 354.836 88.125C354.836 88.5938 354.914 89.0156 355.07 89.3906C355.242 89.75 355.539 90.0859 355.961 90.3984C356.383 90.6953 356.977 90.9766 357.742 91.2422C358.508 91.5078 359.484 91.7734 360.672 92.0391C362.75 92.5078 364.461 93.0703 365.805 93.7266C367.148 94.3828 368.148 95.1875 368.805 96.1406C369.461 97.0938 369.789 98.25 369.789 99.6094C369.789 100.719 369.555 101.734 369.086 102.656C368.633 103.578 367.969 104.375 367.094 105.047C366.234 105.703 365.203 106.219 364 106.594C362.812 106.953 361.477 107.133 359.992 107.133C357.758 107.133 355.867 106.734 354.32 105.938C352.773 105.141 351.602 104.109 350.805 102.844C350.008 101.578 349.609 100.242 349.609 98.8359H353.969C354.031 100.023 354.375 100.969 355 101.672C355.625 102.359 356.391 102.852 357.297 103.148C358.203 103.43 359.102 103.57 359.992 103.57C361.18 103.57 362.172 103.414 362.969 103.102C363.781 102.789 364.398 102.359 364.82 101.812C365.242 101.266 365.453 100.641 365.453 99.9375ZM398.008 81.3047V84.6328H384.297V81.3047H398.008ZM388.938 75.1406H393.273V100.383C393.273 101.242 393.406 101.891 393.672 102.328C393.938 102.766 394.281 103.055 394.703 103.195C395.125 103.336 395.578 103.406 396.062 103.406C396.422 103.406 396.797 103.375 397.188 103.312C397.594 103.234 397.898 103.172 398.102 103.125L398.125 106.664C397.781 106.773 397.328 106.875 396.766 106.969C396.219 107.078 395.555 107.133 394.773 107.133C393.711 107.133 392.734 106.922 391.844 106.5C390.953 106.078 390.242 105.375 389.711 104.391C389.195 103.391 388.938 102.047 388.938 100.359V75.1406ZM418.609 100.805V81.3047H422.969V106.664H418.82L418.609 100.805ZM419.43 95.4609L421.234 95.4141C421.234 97.1016 421.055 98.6641 420.695 100.102C420.352 101.523 419.789 102.758 419.008 103.805C418.227 104.852 417.203 105.672 415.938 106.266C414.672 106.844 413.133 107.133 411.32 107.133C410.086 107.133 408.953 106.953 407.922 106.594C406.906 106.234 406.031 105.68 405.297 104.93C404.562 104.18 403.992 103.203 403.586 102C403.195 100.797 403 99.3516 403 97.6641V81.3047H407.336V97.7109C407.336 98.8516 407.461 99.7969 407.711 100.547C407.977 101.281 408.328 101.867 408.766 102.305C409.219 102.727 409.719 103.023 410.266 103.195C410.828 103.367 411.406 103.453 412 103.453C413.844 103.453 415.305 103.102 416.383 102.398C417.461 101.68 418.234 100.719 418.703 99.5156C419.188 98.2969 419.43 96.9453 419.43 95.4609ZM433.914 85.2891V106.664H429.578V81.3047H433.797L433.914 85.2891ZM441.836 81.1641L441.812 85.1953C441.453 85.1172 441.109 85.0703 440.781 85.0547C440.469 85.0234 440.109 85.0078 439.703 85.0078C438.703 85.0078 437.82 85.1641 437.055 85.4766C436.289 85.7891 435.641 86.2266 435.109 86.7891C434.578 87.3516 434.156 88.0234 433.844 88.8047C433.547 89.5703 433.352 90.4141 433.258 91.3359L432.039 92.0391C432.039 90.5078 432.188 89.0703 432.484 87.7266C432.797 86.3828 433.273 85.1953 433.914 84.1641C434.555 83.1172 435.367 82.3047 436.352 81.7266C437.352 81.1328 438.539 80.8359 439.914 80.8359C440.227 80.8359 440.586 80.875 440.992 80.9531C441.398 81.0156 441.68 81.0859 441.836 81.1641ZM450.18 86.7188V106.664H445.844V81.3047H449.945L450.18 86.7188ZM449.148 93.0234L447.344 92.9531C447.359 91.2188 447.617 89.6172 448.117 88.1484C448.617 86.6641 449.32 85.375 450.227 84.2812C451.133 83.1875 452.211 82.3438 453.461 81.75C454.727 81.1406 456.125 80.8359 457.656 80.8359C458.906 80.8359 460.031 81.0078 461.031 81.3516C462.031 81.6797 462.883 82.2109 463.586 82.9453C464.305 83.6797 464.852 84.6328 465.227 85.8047C465.602 86.9609 465.789 88.375 465.789 90.0469V106.664H461.43V90C461.43 88.6719 461.234 87.6094 460.844 86.8125C460.453 86 459.883 85.4141 459.133 85.0547C458.383 84.6797 457.461 84.4922 456.367 84.4922C455.289 84.4922 454.305 84.7188 453.414 85.1719C452.539 85.625 451.781 86.25 451.141 87.0469C450.516 87.8438 450.023 88.7578 449.664 89.7891C449.32 90.8047 449.148 91.8828 449.148 93.0234Z" fill="white"/>
</g>
<mask id="mask3_515_17133" style="mask-type:luminance" maskUnits="userSpaceOnUse" x="300" y="142" width="49" height="49">
<path d="M348.336 142.664H300.336V190.664H348.336V142.664Z" fill="white"/>
</mask>
<g mask="url(#mask3_515_17133)">
<path d="M324.331 169.054L313.975 179.411C313.635 179.751 313.237 179.921 312.781 179.921C312.326 179.921 311.928 179.751 311.588 179.411C311.248 179.071 311.078 178.673 311.078 178.217C311.078 177.762 311.248 177.364 311.588 177.024L321.944 166.667L311.588 156.311C311.248 155.971 311.078 155.573 311.078 155.117C311.078 154.662 311.248 154.264 311.588 153.924C311.928 153.584 312.326 153.414 312.781 153.414C313.237 153.414 313.635 153.584 313.975 153.924L324.331 164.28L334.688 153.924C335.028 153.584 335.426 153.414 335.881 153.414C336.337 153.414 336.735 153.584 337.075 153.924C337.415 154.264 337.585 154.662 337.585 155.117C337.585 155.573 337.415 155.971 337.075 156.311L326.718 166.667L337.075 177.024C337.415 177.364 337.585 177.762 337.585 178.217C337.585 178.673 337.415 179.071 337.075 179.411C336.735 179.751 336.337 179.921 335.881 179.921C335.426 179.921 335.028 179.751 334.688 179.411L324.331 169.054Z" fill="#FF0000"/>
</g>
<path d="M389.936 142.664H386.736C374.365 142.664 364.336 152.693 364.336 165.064V168.264C364.336 180.635 374.365 190.664 386.736 190.664H389.936C402.307 190.664 412.336 180.635 412.336 168.264V165.064C412.336 152.693 402.307 142.664 389.936 142.664Z" fill="#DCFAFE"/>
<path d="M453.936 142.664H450.736C438.365 142.664 428.336 152.693 428.336 165.064V168.264C428.336 180.635 438.365 190.664 450.736 190.664H453.936C466.307 190.664 476.336 180.635 476.336 168.264V165.064C476.336 152.693 466.307 142.664 453.936 142.664Z" fill="#DCFAFE"/>
<mask id="mask4_515_17133" style="mask-type:luminance" maskUnits="userSpaceOnUse" x="300" y="206" width="49" height="49">
<path d="M348.336 206.664H300.336V254.664H348.336V206.664Z" fill="white"/>
</mask>
<g mask="url(#mask4_515_17133)">
<path d="M324.332 250.961C321.55 250.961 318.924 250.43 316.455 249.367C313.986 248.305 311.829 246.852 309.985 245.008C308.141 243.164 306.688 241.008 305.625 238.54C304.563 236.072 304.031 233.446 304.031 230.664C304.031 227.849 304.563 225.206 305.625 222.737C306.688 220.268 308.14 218.12 309.983 216.292C311.826 214.464 313.982 213.017 316.45 211.951C318.919 210.885 321.545 210.352 324.327 210.352C327.144 210.352 329.787 210.884 332.257 211.95C334.727 213.016 336.876 214.462 338.703 216.288C340.53 218.115 341.976 220.263 343.042 222.733C344.108 225.202 344.641 227.845 344.641 230.662C344.641 233.446 344.108 236.072 343.042 238.541C341.976 241.01 340.529 243.166 338.701 245.009C336.873 246.852 334.725 248.305 332.257 249.367C329.789 250.43 327.147 250.961 324.332 250.961V250.961ZM324.33 247.555C329.032 247.555 333.022 245.909 336.302 242.617C339.583 239.326 341.223 235.341 341.223 230.662C341.223 225.961 339.583 221.97 336.302 218.69C333.022 215.41 329.03 213.77 324.324 213.77C319.652 213.77 315.67 215.41 312.377 218.69C309.084 221.97 307.438 225.963 307.438 230.668C307.438 235.341 309.084 239.323 312.375 242.616C315.667 245.908 319.652 247.555 324.33 247.555Z" fill="#0000FF"/>
</g>
<mask id="mask5_515_17133" style="mask-type:luminance" maskUnits="userSpaceOnUse" x="364" y="206" width="49" height="49">
<path d="M412.336 206.664H364.336V254.664H412.336V206.664Z" fill="white"/>
</mask>
<g mask="url(#mask5_515_17133)">
<path d="M388.331 233.054L377.975 243.411C377.635 243.751 377.237 243.921 376.781 243.921C376.326 243.921 375.928 243.751 375.588 243.411C375.248 243.071 375.078 242.673 375.078 242.217C375.078 241.762 375.248 241.364 375.588 241.024L385.944 230.667L375.588 220.311C375.248 219.971 375.078 219.573 375.078 219.117C375.078 218.662 375.248 218.264 375.588 217.924C375.928 217.584 376.326 217.414 376.781 217.414C377.237 217.414 377.635 217.584 377.975 217.924L388.331 228.28L398.688 217.924C399.028 217.584 399.426 217.414 399.881 217.414C400.337 217.414 400.735 217.584 401.075 217.924C401.415 218.264 401.585 218.662 401.585 219.117C401.585 219.573 401.415 219.971 401.075 220.311L390.718 230.667L401.075 241.024C401.415 241.364 401.585 241.762 401.585 242.217C401.585 242.673 401.415 243.071 401.075 243.411C400.735 243.751 400.337 243.921 399.881 243.921C399.426 243.921 399.028 243.751 398.688 243.411L388.331 233.054Z" fill="#FF0000"/>
</g>
<mask id="mask6_515_17133" style="mask-type:luminance" maskUnits="userSpaceOnUse" x="428" y="206" width="49" height="49">
<path d="M476.336 206.664H428.336V254.664H476.336V206.664Z" fill="white"/>
</mask>
<g mask="url(#mask6_515_17133)">
<path d="M452.332 250.961C449.55 250.961 446.924 250.43 444.455 249.367C441.986 248.305 439.829 246.852 437.985 245.008C436.141 243.164 434.688 241.008 433.625 238.54C432.563 236.072 432.031 233.446 432.031 230.664C432.031 227.849 432.563 225.206 433.625 222.737C434.688 220.268 436.14 218.12 437.983 216.292C439.826 214.464 441.982 213.017 444.45 211.951C446.919 210.885 449.545 210.352 452.327 210.352C455.144 210.352 457.787 210.884 460.257 211.95C462.727 213.016 464.876 214.462 466.703 216.288C468.53 218.115 469.976 220.263 471.042 222.733C472.108 225.202 472.641 227.845 472.641 230.662C472.641 233.446 472.108 236.072 471.042 238.541C469.976 241.01 468.529 243.166 466.701 245.009C464.873 246.852 462.725 248.305 460.257 249.367C457.789 250.43 455.147 250.961 452.332 250.961V250.961ZM452.33 247.555C457.032 247.555 461.022 245.909 464.302 242.617C467.583 239.326 469.223 235.341 469.223 230.662C469.223 225.961 467.583 221.97 464.302 218.69C461.022 215.41 457.03 213.77 452.324 213.77C447.652 213.77 443.67 215.41 440.377 218.69C437.084 221.97 435.438 225.963 435.438 230.668C435.438 235.341 437.084 239.323 440.375 242.616C443.667 245.908 447.652 247.555 452.33 247.555Z" fill="#0000FF"/>
</g>
<mask id="mask7_515_17133" style="mask-type:luminance" maskUnits="userSpaceOnUse" x="300" y="270" width="49" height="49">
<path d="M348.336 270.664H300.336V318.664H348.336V270.664Z" fill="white"/>
</mask>
<g mask="url(#mask7_515_17133)">
<path d="M324.331 297.054L313.975 307.411C313.635 307.751 313.237 307.921 312.781 307.921C312.326 307.921 311.928 307.751 311.588 307.411C311.248 307.071 311.078 306.673 311.078 306.217C311.078 305.762 311.248 305.364 311.588 305.024L321.944 294.667L311.588 284.311C311.248 283.971 311.078 283.573 311.078 283.117C311.078 282.662 311.248 282.264 311.588 281.924C311.928 281.584 312.326 281.414 312.781 281.414C313.237 281.414 313.635 281.584 313.975 281.924L324.331 292.28L334.688 281.924C335.028 281.584 335.426 281.414 335.881 281.414C336.337 281.414 336.735 281.584 337.075 281.924C337.415 282.264 337.585 282.662 337.585 283.117C337.585 283.573 337.415 283.971 337.075 284.311L326.718 294.667L337.075 305.024C337.415 305.364 337.585 305.762 337.585 306.217C337.585 306.673 337.415 307.071 337.075 307.411C336.735 307.751 336.337 307.921 335.881 307.921C335.426 307.921 335.028 307.751 334.688 307.411L324.331 297.054Z" fill="#FF0000"/>
</g>
<path d="M389.936 270.664H386.736C374.365 270.664 364.336 280.693 364.336 293.064V296.264C364.336 308.635 374.365 318.664 386.736 318.664H389.936C402.307 318.664 412.336 308.635 412.336 296.264V293.064C412.336 280.693 402.307 270.664 389.936 270.664Z" fill="#DCFAFE"/>
<path d="M453.936 270.664H450.736C438.365 270.664 428.336 280.693 428.336 293.064V296.264C428.336 308.635 438.365 318.664 450.736 318.664H453.936C466.307 318.664 476.336 308.635 476.336 296.264V293.064C476.336 280.693 466.307 270.664 453.936 270.664Z" fill="#DCFAFE"/>
<mask id="mask8_515_17133" style="mask-type:luminance" maskUnits="userSpaceOnUse" x="70" y="304" width="636" height="128">
<path d="M476.336 350.664H300.336V385.864H476.336V350.664Z" fill="white"/>
<path d="M705.952 304.75H70.7188V431.8H705.952V304.75Z" fill="white"/>
<path d="M476.336 350.664H300.336V385.864H476.336V350.664Z" fill="white"/>
</mask>
<g mask="url(#mask8_515_17133)">
<mask id="mask9_515_17133" style="mask-type:luminance" maskUnits="userSpaceOnUse" x="352" y="357" width="23" height="23">
<path d="M374.58 357.07H352.18V379.47H374.58V357.07Z" fill="white"/>
</mask>
<g mask="url(#mask9_515_17133)">
<path d="M363.355 375.88C361.249 375.88 359.455 375.139 357.973 373.657C356.491 372.174 355.75 370.381 355.75 368.275C355.75 366.169 356.491 364.374 357.973 362.89C359.455 361.406 361.249 360.664 363.355 360.664C364.699 360.664 365.88 360.936 366.895 361.48C367.911 362.024 368.79 362.774 369.532 363.729V361.397C369.532 361.186 369.601 361.011 369.738 360.872C369.875 360.734 370.051 360.664 370.266 360.664C370.477 360.664 370.652 360.734 370.791 360.872C370.93 361.011 370.999 361.186 370.999 361.397V366.002C370.999 366.23 370.923 366.419 370.77 366.57C370.618 366.721 370.427 366.796 370.199 366.796H365.589C365.38 366.796 365.206 366.727 365.068 366.588C364.93 366.449 364.861 366.274 364.861 366.063C364.861 365.853 364.931 365.68 365.07 365.542C365.209 365.404 365.384 365.335 365.595 365.335H368.759C368.164 364.417 367.415 363.675 366.512 363.108C365.609 362.542 364.556 362.259 363.355 362.259C361.675 362.259 360.252 362.842 359.087 364.007C357.922 365.172 357.339 366.594 357.339 368.275C357.339 369.955 357.922 371.378 359.087 372.543C360.252 373.708 361.675 374.29 363.355 374.29C364.492 374.29 365.555 373.994 366.543 373.402C367.532 372.81 368.277 372.01 368.778 371.001C368.877 370.811 369.028 370.67 369.232 370.58C369.436 370.489 369.636 370.488 369.832 370.577C370.042 370.662 370.183 370.803 370.257 371.001C370.33 371.198 370.322 371.398 370.233 371.599C369.608 372.909 368.678 373.95 367.442 374.722C366.206 375.494 364.844 375.88 363.355 375.88Z" fill="white"/>
</g>
<mask id="mask10_515_17133" style="mask-type:luminance" maskUnits="userSpaceOnUse" x="384" y="358" width="41" height="20">
<path d="M424.48 358.602H384.18V377.935H424.48V358.602Z" fill="white"/>
</mask>
<g mask="url(#mask10_515_17133)">
<path d="M385.5 365.562H389.266C390.12 365.562 390.841 365.693 391.43 365.953C392.023 366.214 392.474 366.599 392.781 367.109C393.094 367.615 393.25 368.237 393.25 368.977C393.25 369.497 393.143 369.974 392.93 370.406C392.721 370.833 392.419 371.198 392.023 371.5C391.633 371.797 391.164 372.018 390.617 372.164L390.195 372.328H386.656L386.641 371.102H389.312C389.854 371.102 390.305 371.008 390.664 370.82C391.023 370.628 391.294 370.37 391.477 370.047C391.659 369.724 391.75 369.367 391.75 368.977C391.75 368.539 391.664 368.156 391.492 367.828C391.32 367.5 391.049 367.247 390.68 367.07C390.315 366.888 389.844 366.797 389.266 366.797H387.008V376.938H385.5V365.562ZM392.148 376.938L389.383 371.781L390.953 371.773L393.758 376.844V376.938H392.148ZM398.648 377.094C398.06 377.094 397.526 376.995 397.047 376.797C396.573 376.594 396.164 376.31 395.82 375.945C395.482 375.581 395.221 375.148 395.039 374.648C394.857 374.148 394.766 373.602 394.766 373.008V372.68C394.766 371.992 394.867 371.38 395.07 370.844C395.273 370.302 395.549 369.844 395.898 369.469C396.247 369.094 396.643 368.81 397.086 368.617C397.529 368.424 397.987 368.328 398.461 368.328C399.065 368.328 399.586 368.432 400.023 368.641C400.466 368.849 400.828 369.141 401.109 369.516C401.391 369.885 401.599 370.323 401.734 370.828C401.87 371.328 401.938 371.875 401.938 372.469V373.117H395.625V371.938H400.492V371.828C400.471 371.453 400.393 371.089 400.258 370.734C400.128 370.38 399.919 370.089 399.633 369.859C399.346 369.63 398.956 369.516 398.461 369.516C398.133 369.516 397.831 369.586 397.555 369.727C397.279 369.862 397.042 370.065 396.844 370.336C396.646 370.607 396.492 370.938 396.383 371.328C396.273 371.719 396.219 372.169 396.219 372.68V373.008C396.219 373.409 396.273 373.786 396.383 374.141C396.497 374.49 396.661 374.797 396.875 375.062C397.094 375.328 397.357 375.536 397.664 375.688C397.977 375.839 398.331 375.914 398.727 375.914C399.237 375.914 399.669 375.81 400.023 375.602C400.378 375.393 400.688 375.115 400.953 374.766L401.828 375.461C401.646 375.737 401.414 376 401.133 376.25C400.852 376.5 400.505 376.703 400.094 376.859C399.688 377.016 399.206 377.094 398.648 377.094ZM408.547 374.695C408.547 374.487 408.5 374.294 408.406 374.117C408.318 373.935 408.133 373.771 407.852 373.625C407.576 373.474 407.159 373.344 406.602 373.234C406.133 373.135 405.708 373.018 405.328 372.883C404.953 372.747 404.633 372.583 404.367 372.391C404.107 372.198 403.906 371.971 403.766 371.711C403.625 371.451 403.555 371.146 403.555 370.797C403.555 370.464 403.628 370.148 403.773 369.852C403.924 369.555 404.135 369.292 404.406 369.062C404.682 368.833 405.013 368.654 405.398 368.523C405.784 368.393 406.214 368.328 406.688 368.328C407.365 368.328 407.943 368.448 408.422 368.688C408.901 368.927 409.268 369.247 409.523 369.648C409.779 370.044 409.906 370.484 409.906 370.969H408.461C408.461 370.734 408.391 370.508 408.25 370.289C408.115 370.065 407.914 369.88 407.648 369.734C407.388 369.589 407.068 369.516 406.688 369.516C406.286 369.516 405.961 369.578 405.711 369.703C405.466 369.823 405.286 369.977 405.172 370.164C405.062 370.352 405.008 370.549 405.008 370.758C405.008 370.914 405.034 371.055 405.086 371.18C405.143 371.299 405.242 371.411 405.383 371.516C405.523 371.615 405.721 371.708 405.977 371.797C406.232 371.885 406.557 371.974 406.953 372.062C407.646 372.219 408.216 372.406 408.664 372.625C409.112 372.844 409.445 373.112 409.664 373.43C409.883 373.747 409.992 374.133 409.992 374.586C409.992 374.956 409.914 375.294 409.758 375.602C409.607 375.909 409.385 376.174 409.094 376.398C408.807 376.617 408.464 376.789 408.062 376.914C407.667 377.034 407.221 377.094 406.727 377.094C405.982 377.094 405.352 376.961 404.836 376.695C404.32 376.43 403.93 376.086 403.664 375.664C403.398 375.242 403.266 374.797 403.266 374.328H404.719C404.74 374.724 404.854 375.039 405.062 375.273C405.271 375.503 405.526 375.667 405.828 375.766C406.13 375.859 406.43 375.906 406.727 375.906C407.122 375.906 407.453 375.854 407.719 375.75C407.99 375.646 408.195 375.503 408.336 375.32C408.477 375.138 408.547 374.93 408.547 374.695ZM415.398 377.094C414.81 377.094 414.276 376.995 413.797 376.797C413.323 376.594 412.914 376.31 412.57 375.945C412.232 375.581 411.971 375.148 411.789 374.648C411.607 374.148 411.516 373.602 411.516 373.008V372.68C411.516 371.992 411.617 371.38 411.82 370.844C412.023 370.302 412.299 369.844 412.648 369.469C412.997 369.094 413.393 368.81 413.836 368.617C414.279 368.424 414.737 368.328 415.211 368.328C415.815 368.328 416.336 368.432 416.773 368.641C417.216 368.849 417.578 369.141 417.859 369.516C418.141 369.885 418.349 370.323 418.484 370.828C418.62 371.328 418.688 371.875 418.688 372.469V373.117H412.375V371.938H417.242V371.828C417.221 371.453 417.143 371.089 417.008 370.734C416.878 370.38 416.669 370.089 416.383 369.859C416.096 369.63 415.706 369.516 415.211 369.516C414.883 369.516 414.581 369.586 414.305 369.727C414.029 369.862 413.792 370.065 413.594 370.336C413.396 370.607 413.242 370.938 413.133 371.328C413.023 371.719 412.969 372.169 412.969 372.68V373.008C412.969 373.409 413.023 373.786 413.133 374.141C413.247 374.49 413.411 374.797 413.625 375.062C413.844 375.328 414.107 375.536 414.414 375.688C414.727 375.839 415.081 375.914 415.477 375.914C415.987 375.914 416.419 375.81 416.773 375.602C417.128 375.393 417.438 375.115 417.703 374.766L418.578 375.461C418.396 375.737 418.164 376 417.883 376.25C417.602 376.5 417.255 376.703 416.844 376.859C416.438 377.016 415.956 377.094 415.398 377.094ZM423.914 368.484V369.594H419.344V368.484H423.914ZM420.891 366.43H422.336V374.844C422.336 375.13 422.38 375.346 422.469 375.492C422.557 375.638 422.672 375.734 422.812 375.781C422.953 375.828 423.104 375.852 423.266 375.852C423.385 375.852 423.51 375.841 423.641 375.82C423.776 375.794 423.878 375.773 423.945 375.758L423.953 376.938C423.839 376.974 423.688 377.008 423.5 377.039C423.318 377.076 423.096 377.094 422.836 377.094C422.482 377.094 422.156 377.023 421.859 376.883C421.562 376.742 421.326 376.508 421.148 376.18C420.977 375.846 420.891 375.398 420.891 374.836V366.43Z" fill="white"/>
</g>
</g>
</g>
</g>
</g>
<defs>
<linearGradient id="paint0_linear_515_17133" x1="4.74873" y1="6.65689e-06" x2="725.955" y2="542.179" gradientUnits="userSpaceOnUse">
<stop offset="0.147399" stop-color="#00C6E4"/>
<stop offset="1" stop-color="#553FB3"/>
</linearGradient>
<clipPath id="clip0_515_17133">
<rect width="472" height="421" fill="white" transform="translate(164 29)"/>
</clipPath>
</defs>
</svg>
