<svg
   viewBox="0 0 45 45"
   version="1.1"
   xmlns="http://www.w3.org/2000/svg"
   xmlns:svg="http://www.w3.org/2000/svg">
   <path
      d="m 36.832463,29.015099 c -7.86e-4,4.382757 -3.554485,7.935693 -7.937241,7.936468 4.382756,7.71e-4 7.936463,3.553709 7.937241,7.936467 7.86e-4,-4.382758 3.552937,-7.935693 7.935693,-7.936467 -4.382756,-7.72e-4 -7.934923,-3.553711 -7.935693,-7.936468 z m 0,-28.90313293 C 36.831677,4.4947232 33.277978,8.0476596 28.895222,8.048434 c 4.382756,7.713e-4 7.936463,3.55371 7.937241,7.936468 C 36.833249,11.602144 40.3854,8.0492086 44.768156,8.048434 40.3854,8.0476626 36.833233,4.4947232 36.832463,0.11196607 Z M 16.387965,6.3454514 C 16.386397,15.26648 9.1528714,22.498423 0.2318442,22.499999 c 8.9210272,0.0016 16.1545378,7.233518 16.1561208,16.15455 0.0016,-8.921032 7.231944,-16.152973 16.152971,-16.15455 C 23.619909,22.498431 16.389532,15.26648 16.387965,6.3454514 Z" />
</svg>