<svg
   viewBox="0 0 2712.5664 1500"
   version="1.1"
   xmlns="http://www.w3.org/2000/svg"
   xmlns:svg="http://www.w3.org/2000/svg">
  <path
     d="M 112.55469 0.005859375 C 109.98829 0.044559336 107.66583 0.15146335 105.08203 0.37695312 C 102.21223 0.62248288 99.586907 0.97841106 96.724609 1.4628906 C 93.871112 1.9694901 91.28725 2.5181339 88.501953 3.2519531 C 85.213256 4.1164023 81.921888 5.154318 78.837891 6.3105469 C 73.383196 8.3431148 68.097632 10.849604 63.023438 13.744141 C 62.561838 14.01167 61.538427 14.622625 60.861328 15.021484 C 40.824248 27.128982 24.610077 45.48481 13.804688 66.599609 C 4.747197 84.351842 -0.027893718 104.38208 0.00390625 124.43945 C 0.017906236 182.2012 -0.019421838 239.96295 0.017578125 297.72461 C 0.057578085 312.29751 1.1328037 327.15315 4.8125 341.37695 C 6.5189983 348.02236 8.7624813 354.52355 11.580078 360.75586 C 12.115478 361.93515 12.85016 363.48149 13.505859 364.78125 C 19.349954 376.32796 27.176315 386.73998 36.066406 395.96094 C 44.754598 404.93605 54.75202 412.80143 64.912109 419.6582 C 87.240487 434.66807 111.46926 446.26493 135.21094 458.63477 C 215.98356 500.26226 296.75668 541.8894 377.5293 583.51758 C 301.65927 622.6364 225.77193 661.72233 149.91211 700.86133 C 113.51855 719.86708 79.932786 745.26435 53.320312 777.29688 C 35.61253 798.62526 21.137313 822.95707 11.794922 849.37695 C 11.506622 850.20411 11.06555 851.50351 10.71875 852.51172 C 4.5838565 870.73894 0.95531484 889.87585 0.16601562 909.1582 C 0.14101565 909.8758 0.10617185 911.11821 0.076171875 912.03711 C -0.064427984 916.5405 0.003015788 921.04703 0.16601562 925.54883 C 0.21001558 926.26563 0.2672063 927.50768 0.31640625 928.42578 C 1.3757052 947.84296 5.3628068 967.05844 11.8125 985.32422 C 12.119 986.14462 12.582219 987.43485 12.949219 988.43555 C 25.423306 1022.0803 46.172491 1052.0526 71.259766 1076.9492 C 95.593041 1101.1114 123.98705 1120.6968 154.26172 1136.041 C 382.98649 1253.9369 611.70368 1371.8496 840.43555 1489.7305 C 858.50123 1498.9343 879.29847 1501.7743 899.18555 1498.9609 C 905.16054 1498.1324 911.07016 1496.8053 916.84766 1495.0312 C 917.86746 1494.7158 919.29619 1494.2509 920.46289 1493.8516 C 930.27808 1490.452 939.68059 1485.7261 948.20508 1479.6543 C 949.15118 1478.9579 950.43884 1478.0298 951.49023 1477.1973 C 962.47272 1468.471 972.08282 1457.8963 979.79102 1446.0117 C 981.12281 1443.9401 982.56633 1441.57 983.82812 1439.3105 C 990.69452 1427.1094 995.47866 1413.6756 997.93945 1399.8008 C 998.23805 1398.1191 998.56209 1396.0653 998.80469 1394.2285 C 999.94539 1386.1546 1000.0559 1377.9831 999.98047 1369.8398 C 999.96547 1314.3298 1000.0058 1258.8204 999.96484 1203.3105 C 999.92584 1197.3144 999.78122 1191.6341 999.32422 1185.668 C 998.18442 1170.0145 994.88454 1154.3985 988.40234 1140.1367 C 987.32684 1137.7548 986.0285 1135.1456 984.7168 1132.7539 C 983.7368 1130.9541 982.57762 1128.9844 981.57422 1127.3789 C 972.54723 1112.9292 960.69964 1100.5003 947.41016 1090.1836 C 930.32117 1076.874 911.35913 1066.4281 892.31055 1056.457 C 802.35244 1010.063 712.37672 963.70292 622.41211 917.32227 C 698.25343 878.21948 774.11154 839.1472 849.94336 800.02539 C 886.38682 781.01156 920.01674 755.59286 946.66211 723.52344 C 957.3894 710.5863 966.92785 696.58396 974.87305 681.6582 C 975.31965 680.78129 975.99685 679.49805 976.53125 678.46484 C 980.99995 669.74133 984.89925 660.70681 988.18555 651.44141 C 988.47355 650.61417 988.91502 649.31491 989.26172 648.30664 C 995.40141 630.08215 999.02555 610.94733 999.81445 591.66602 C 999.84145 590.94837 999.8763 589.70404 999.9043 588.78516 C 1000.0511 584.28078 999.97745 579.77226 999.81445 575.26953 C 999.77045 574.55266 999.71326 573.31255 999.66406 572.39453 C 998.03426 542.13346 989.23837 512.47574 975.17578 485.92383 C 960.7927 458.66174 941.10322 434.5917 918.49805 414.18945 C 917.30555 413.14833 915.86003 411.82741 914.54883 410.69922 C 906.55794 403.74142 898.21499 397.21552 889.5918 391.11328 C 887.9138 389.94391 885.97171 388.56621 884.16211 387.35938 C 871.04872 378.43576 857.27721 370.58174 843.16992 363.46289 C 737.80783 309.15345 632.44598 254.84459 527.08398 200.53516 C 525.19739 199.70978 523.19447 198.5507 521.26367 197.59766 C 400.56129 135.38832 279.87024 73.152202 159.16016 10.958984 C 144.70897 3.7292117 128.63387 -0.17021045 112.55469 0.005859375 z M 114.09375 113.92969 C 114.85995 114.32414 115.62618 114.71882 116.39258 115.11328 L 116.39453 115.11328 C 235.89951 176.71232 355.40518 238.31305 474.91016 299.91211 C 476.62635 300.63943 478.4591 301.71939 480.2207 302.58203 C 587.1418 357.70472 694.07764 412.7997 800.99023 467.93945 C 821.17961 478.52767 840.48728 491.38826 856.60547 507.91406 C 869.82236 521.46736 880.77691 537.79086 886.37891 556.24805 C 891.0377 571.37454 891.77814 587.7682 888.33984 603.24805 C 884.26245 622.01202 874.46798 639.04517 862.02539 653.20508 C 847.27111 670.03294 829.06895 683.279 809.88477 694.20312 C 800.10278 699.74104 790.00433 704.64993 780.05664 709.85938 C 645.89527 779.01388 511.73373 848.1677 377.57227 917.32227 C 532.24421 997.05609 686.92655 1076.7678 841.5918 1156.5156 C 855.23608 1163.6785 868.68243 1171.4012 880.98242 1180.8457 C 884.05942 1183.3026 887.18221 1185.7628 889.78711 1188.7617 C 890.66971 1190.8009 890.29179 1193.1147 890.43359 1195.2852 C 890.55149 1221.0753 890.46028 1246.8658 890.48828 1272.6562 L 890.48828 1376.6328 C 889.75298 1379.8611 888.07474 1382.7679 886.52734 1385.6445 C 886.16124 1386.6017 885.71639 1387.286 884.80469 1386.4023 C 656.45822 1268.6909 428.09928 1151.001 199.75781 1033.2812 C 179.41343 1022.6823 159.94877 1009.7984 143.67969 993.21875 C 130.4052 979.66716 119.36676 963.35268 113.69727 944.87109 C 108.85867 929.34411 108.15704 912.46237 111.86914 896.59766 C 116.01334 878.40207 125.53783 861.88222 137.57422 848.05664 C 152.265 831.16626 170.43738 817.86487 189.60156 806.90039 C 199.40965 801.31239 209.55743 796.39287 219.54492 791.16016 C 353.82659 721.94279 488.10886 652.72516 622.39062 583.50781 C 467.79678 503.8356 313.20282 424.16458 158.60938 344.49219 C 144.78689 337.21291 131.1092 329.40218 118.66602 319.76953 C 115.70662 317.40556 112.71699 315.01857 110.21289 312.13477 C 109.32639 310.19892 109.70114 307.96927 109.55664 305.89453 C 109.43884 280.93875 109.53 255.98148 109.5 231.02539 L 109.5 124.33398 C 110.1434 120.5329 112.02055 117.09184 114.09375 113.92969 z M 2048.8008 375 C 2030.7544 375 2017.0508 380.18291 2007.6895 390.54688 C 1998.6663 400.90481 1994.1543 413.6059 1994.1543 428.64453 C 1994.1543 443.0188 1998.6663 455.38213 2007.6895 465.74609 C 2017.0508 475.77188 2030.7544 480.7832 2048.8008 480.7832 C 2066.515 480.7832 2080.0489 475.77188 2089.4043 465.74609 C 2099.0979 455.38213 2103.9473 443.0188 2103.9473 428.64453 C 2103.9473 413.6059 2099.0979 400.90481 2089.4043 390.54688 C 2080.0489 380.18291 2066.515 375 2048.8008 375 z M 1375.002 385.03125 L 1375.002 1114.9746 L 1471.7637 1114.9746 L 1471.7637 819.18359 L 1642.9863 819.18359 L 1801.6406 1114.9746 L 1904.918 1114.9746 L 1904.918 1108.959 L 1733.3613 798.82227 C 1755.8617 790.23133 1776.046 779.40072 1793.6211 766.04688 C 1819.0237 746.65967 1838.4037 723.26327 1851.7754 695.85547 C 1865.4794 668.11554 1872.3281 637.53647 1872.3281 604.11328 C 1872.3281 556.654 1862.3035 516.71361 1842.252 484.29297 C 1822.5327 451.54007 1793.6195 426.80731 1755.5156 410.0957 C 1717.7498 393.38411 1671.462 385.03125 1616.6465 385.03125 L 1375.002 385.03125 z M 1471.7637 464.24219 L 1616.6465 464.24219 C 1653.7478 464.24219 1683.9952 470.08846 1707.3867 481.78711 C 1731.1224 493.15371 1748.499 509.36383 1759.5273 530.41797 C 1770.5556 551.47201 1776.0742 576.0412 1776.0742 604.11328 C 1776.0742 629.17772 1770.2222 652.07303 1758.5234 672.79492 C 1746.8248 693.51682 1729.4502 710.06053 1706.3848 722.42969 C 1683.3256 734.46058 1654.4123 740.47461 1619.6543 740.47461 L 1471.7637 740.47461 L 1471.7637 464.24219 z M 2464.9062 562.5 C 2427.1404 562.5 2393.0522 569.52446 2362.6367 583.56055 C 2332.2212 597.26449 2306.3179 616.6444 2284.9316 641.71484 C 2263.5393 666.44704 2247.1593 695.69183 2235.7988 729.44727 C 2224.4323 762.87046 2218.748 799.13183 2218.748 838.23828 L 2218.748 849.76758 C 2218.748 888.86802 2224.4323 925.13734 2235.7988 958.56055 C 2247.1593 991.97776 2263.5393 1021.2266 2284.9316 1046.291 C 2306.6561 1071.0233 2332.7232 1090.4112 2363.1387 1104.4473 C 2393.5541 1118.1512 2427.8102 1125 2465.9082 1125 C 2504.0121 1125 2538.1002 1118.1512 2568.1836 1104.4473 C 2598.5991 1090.4112 2624.4962 1071.0233 2645.8887 1046.291 C 2667.6132 1021.2266 2684.1569 991.97776 2695.5234 958.56055 C 2706.884 925.13734 2712.5664 888.86802 2712.5664 849.76758 L 2712.5664 838.23828 C 2712.5664 799.13183 2706.884 762.87046 2695.5234 729.44727 C 2684.1569 695.69183 2667.6132 666.44704 2645.8887 641.71484 C 2624.4962 616.6444 2598.4293 597.26449 2567.6816 583.56055 C 2537.2662 569.52446 2503.0101 562.5 2464.9062 562.5 z M 2001.1719 572.53125 L 2001.1719 1114.9746 L 2094.4238 1114.9746 L 2094.4238 572.53125 L 2001.1719 572.53125 z M 2464.9062 638.70703 C 2490.6409 638.70703 2513.0351 644.0539 2532.084 654.75 C 2551.4712 665.4462 2567.5136 680.15235 2580.2148 698.86914 C 2593.2483 717.24768 2602.9413 738.47117 2609.2949 762.53906 C 2615.9748 786.26871 2619.3203 811.50089 2619.3203 838.23828 L 2619.3203 849.76758 C 2619.3203 876.83711 2615.9748 902.41077 2609.2949 926.47266 C 2602.9413 950.20229 2593.4161 971.25597 2580.7148 989.64062 C 2568.0136 1008.0252 2551.9731 1022.5616 2532.5859 1033.2578 C 2513.537 1043.6158 2491.3108 1048.7988 2465.9082 1048.7988 C 2440.1734 1048.7988 2417.6157 1043.6158 2398.2285 1033.2578 C 2378.8474 1022.5616 2362.637 1008.0252 2349.6035 989.64062 C 2336.9022 971.25597 2327.371 950.20229 2321.0234 926.47266 C 2314.6757 902.41077 2311.5 876.83711 2311.5 849.76758 L 2311.5 838.23828 C 2311.5 811.50089 2314.6757 786.26871 2321.0234 762.53906 C 2327.371 738.47117 2336.9022 717.24768 2349.6035 698.86914 C 2362.637 680.15235 2378.6777 665.4462 2397.7266 654.75 C 2417.1136 644.0539 2439.5097 638.70703 2464.9062 638.70703 z " />
</svg>
