<svg
   viewBox="0 0 1337.5646 2438.002"
   version="1.1"
   xmlns="http://www.w3.org/2000/svg"
   xmlns:svg="http://www.w3.org/2000/svg">
   <path
      d="M 281.33594 0.005859375 C 278.77034 0.044585262 276.44836 0.15152214 273.86523 0.37695312 C 270.99544 0.62248288 268.36816 0.97841106 265.50586 1.4628906 C 262.65236 1.9694901 260.07045 2.5181339 257.28516 3.2519531 C 253.99646 4.1164023 250.70314 5.154318 247.61914 6.3105469 C 242.16445 8.3431148 236.88084 10.849604 231.80664 13.744141 C 231.34504 14.01167 230.31968 14.622625 229.64258 15.021484 C 209.6055 27.128982 193.39328 45.48481 182.58789 66.599609 C 173.5304 84.351842 168.75336 104.38208 168.78516 124.43945 C 168.79916 182.2012 168.76378 239.96295 168.80078 297.72461 C 168.84078 312.29751 169.91601 327.15315 173.5957 341.37695 C 175.3022 348.02236 177.54568 354.52355 180.36328 360.75586 C 180.89868 361.93515 181.63336 363.48149 182.28906 364.78125 C 188.13316 376.32796 195.95757 386.73998 204.84766 395.96094 C 213.53585 404.93605 223.53327 412.80143 233.69336 419.6582 C 256.02174 434.66807 280.25051 446.26493 303.99219 458.63477 C 384.76481 500.26226 465.53793 541.8894 546.31055 583.51758 C 470.44052 622.6364 394.55514 661.72233 318.69531 700.86133 C 282.30175 719.86708 248.71599 745.26435 222.10352 777.29688 C 204.39573 798.62526 189.92052 822.95707 180.57812 849.37695 C 180.28983 850.20411 179.8468 851.50351 179.5 852.51172 C 173.36511 870.73894 169.73656 889.87585 168.94727 909.1582 C 168.92227 909.8758 168.88937 911.11821 168.85938 912.03711 C 168.71878 916.5405 168.78427 921.04703 168.94727 925.54883 C 168.99127 926.26563 169.04846 927.50768 169.09766 928.42578 C 170.15696 947.84296 174.14406 967.05844 180.59375 985.32422 C 180.90025 986.14462 181.36347 987.43485 181.73047 988.43555 C 194.20456 1022.0803 214.95374 1052.0526 240.04102 1076.9492 C 264.37429 1101.1114 292.7683 1120.6968 323.04297 1136.041 C 551.76774 1253.9369 780.48685 1371.8496 1009.2188 1489.7305 C 1027.2844 1498.9343 1048.0817 1501.7743 1067.9688 1498.9609 C 1073.9437 1498.1324 1079.8514 1496.8053 1085.6289 1495.0312 C 1086.6487 1494.7158 1088.0794 1494.2509 1089.2461 1493.8516 C 1099.0613 1490.452 1108.4618 1485.7261 1116.9863 1479.6543 C 1117.9324 1478.9579 1119.2201 1478.0298 1120.2715 1477.1973 C 1131.254 1468.471 1140.8641 1457.8963 1148.5723 1446.0117 C 1149.9041 1443.9401 1151.3476 1441.57 1152.6094 1439.3105 C 1159.4758 1427.1094 1164.2619 1413.6756 1166.7227 1399.8008 C 1167.0213 1398.1191 1167.3433 1396.0653 1167.5859 1394.2285 C 1168.7266 1386.1546 1168.8392 1377.9831 1168.7637 1369.8398 C 1168.7487 1314.3298 1168.7871 1258.8204 1168.7461 1203.3105 C 1168.7071 1197.3144 1168.5644 1191.6341 1168.1074 1185.668 C 1166.9676 1170.0145 1163.6677 1154.3985 1157.1855 1140.1367 C 1156.11 1137.7548 1154.8117 1135.1456 1153.5 1132.7539 C 1152.52 1130.9541 1151.3608 1128.9844 1150.3574 1127.3789 C 1141.3304 1112.9292 1129.4828 1100.5003 1116.1934 1090.1836 C 1099.1044 1076.874 1080.1423 1066.4281 1061.0938 1056.457 C 971.13561 1010.063 881.15992 963.70292 791.19531 917.32227 C 867.03664 878.21948 942.89276 839.1472 1018.7246 800.02539 C 1055.1681 781.01156 1088.798 755.59286 1115.4434 723.52344 C 1126.1706 710.5863 1135.7111 696.58396 1143.6562 681.6582 C 1144.1028 680.78129 1144.7781 679.49805 1145.3125 678.46484 C 1149.7812 669.74133 1153.6825 660.70681 1156.9688 651.44141 C 1157.2567 650.61417 1157.6963 649.31491 1158.043 648.30664 C 1164.1827 630.08215 1167.8088 610.94733 1168.5977 591.66602 C 1168.6247 590.94837 1168.6575 589.70404 1168.6855 588.78516 C 1168.8323 584.28078 1168.7607 579.77226 1168.5977 575.26953 C 1168.5537 574.55266 1168.4965 573.31255 1168.4473 572.39453 C 1166.8175 542.13346 1158.0216 512.47574 1143.959 485.92383 C 1129.5759 458.66174 1109.8845 434.5917 1087.2793 414.18945 C 1086.0868 413.14833 1084.6413 411.82741 1083.3301 410.69922 C 1075.3392 403.74142 1066.9962 397.21552 1058.373 391.11328 C 1056.695 389.94391 1054.753 388.56621 1052.9434 387.35938 C 1039.83 378.43576 1026.0604 370.58174 1011.9531 363.46289 C 906.591 309.15345 801.22723 254.84459 695.86523 200.53516 C 693.97864 199.70978 691.97767 198.5507 690.04688 197.59766 C 569.3445 135.38832 448.65344 73.152202 327.94336 10.958984 C 313.49276 3.7295042 297.41642 -0.16987344 281.33789 0.005859375 L 281.33594 0.005859375 z M 282.87695 113.92969 C 283.64315 114.32414 284.40743 114.71882 285.17383 115.11328 L 285.17578 115.11328 C 404.68076 176.71232 524.18643 238.31305 643.69141 299.91211 C 645.4076 300.63943 647.24231 301.71939 649.00391 302.58203 C 755.925 357.70472 862.86084 412.7997 969.77344 467.93945 C 989.96282 478.52767 1009.2705 491.38826 1025.3887 507.91406 C 1038.6056 521.46736 1049.5601 537.79086 1055.1621 556.24805 C 1059.8209 571.37454 1060.5594 587.7682 1057.1211 603.24805 C 1053.0437 622.01202 1043.2492 639.04517 1030.8066 653.20508 C 1016.0524 670.03294 997.85215 683.279 978.66797 694.20312 C 968.88598 699.74104 958.78558 704.64993 948.83789 709.85938 C 814.67652 779.01388 680.51498 848.1677 546.35352 917.32227 C 701.02546 997.05609 855.70972 1076.7678 1010.375 1156.5156 C 1024.0193 1163.6785 1037.4656 1171.4012 1049.7656 1180.8457 C 1052.8426 1183.3026 1055.9635 1185.7628 1058.5684 1188.7617 C 1059.451 1190.8009 1059.073 1193.1147 1059.2148 1195.2852 C 1059.3327 1221.0753 1059.2415 1246.8658 1059.2695 1272.6562 L 1059.2695 1376.6328 C 1058.5342 1379.8611 1056.8579 1382.7679 1055.3105 1385.6445 C 1054.9444 1386.6017 1054.4976 1387.286 1053.5859 1386.4023 C 825.23944 1268.6909 596.88053 1151.001 368.53906 1033.2812 C 348.19468 1022.6823 328.73197 1009.7984 312.46289 993.21875 C 299.1884 979.66716 288.14801 963.35268 282.47852 944.87109 C 277.63992 929.34411 276.93829 912.46237 280.65039 896.59766 C 284.79459 878.40207 294.31908 861.88222 306.35547 848.05664 C 321.04625 831.16626 339.22058 817.86487 358.38477 806.90039 C 368.19286 801.31239 378.33868 796.39287 388.32617 791.16016 C 522.60784 721.94279 656.89011 652.72516 791.17188 583.50781 C 636.57803 503.8356 481.98407 424.16458 327.39062 344.49219 C 313.56814 337.21291 299.89045 329.40218 287.44727 319.76953 C 284.48787 317.40556 281.50019 315.01857 278.99609 312.13477 C 278.10959 310.19892 278.48434 307.96927 278.33984 305.89453 C 278.22204 280.93875 278.31125 255.98148 278.28125 231.02539 L 278.28125 124.33398 C 278.92465 120.5329 280.80376 117.09184 282.87695 113.92969 z M 673.79883 1688.002 C 655.75245 1688.002 642.04694 1693.1848 632.68555 1703.5488 C 623.66236 1713.9067 619.15234 1726.6078 619.15234 1741.6465 C 619.15234 1756.0208 623.66236 1768.3841 632.68555 1778.748 C 642.04694 1788.7738 655.75245 1793.7852 673.79883 1793.7852 C 691.51301 1793.7852 705.04695 1788.7738 714.40234 1778.748 C 724.09593 1768.3841 728.94531 1756.0208 728.94531 1741.6465 C 728.94531 1726.6078 724.09593 1713.9067 714.40234 1703.5488 C 705.04695 1693.1848 691.51301 1688.002 673.79883 1688.002 z M 0 1698.0332 L 0 2427.9766 L 96.761719 2427.9766 L 96.761719 2132.1855 L 267.98438 2132.1855 L 426.63867 2427.9766 L 529.91602 2427.9766 L 529.91602 2421.9609 L 358.35938 2111.8242 C 380.85976 2103.2333 401.04206 2092.4026 418.61719 2079.0488 C 444.01976 2059.6616 463.40175 2036.2652 476.77344 2008.8574 C 490.47742 1981.1175 497.32617 1950.5384 497.32617 1917.1152 C 497.32617 1869.656 487.30158 1829.7156 467.25 1797.2949 C 447.53072 1764.5421 418.61753 1739.8092 380.51367 1723.0977 C 342.74781 1706.3861 296.46008 1698.0332 241.64453 1698.0332 L 0 1698.0332 z M 96.761719 1777.2441 L 241.64453 1777.2441 C 278.74589 1777.2441 308.99334 1783.0904 332.38477 1794.7891 C 356.12044 1806.1557 373.497 1822.3657 384.52539 1843.4199 C 395.55368 1864.4739 401.07227 1889.0432 401.07227 1917.1152 C 401.07227 1942.1796 395.22027 1965.0749 383.52148 1985.7969 C 371.8229 2006.5188 354.44634 2023.0625 331.38086 2035.4316 C 308.32173 2047.4625 279.41031 2053.4785 244.65234 2053.4785 L 96.761719 2053.4785 L 96.761719 1777.2441 z M 1089.9043 1875.502 C 1052.1383 1875.502 1018.0503 1882.5264 987.63477 1896.5625 C 957.2193 1910.2665 931.31597 1929.6463 909.92969 1954.7168 C 888.53731 1979.449 872.15736 2008.6939 860.79688 2042.4492 C 849.43039 2075.8725 843.74609 2112.1338 843.74609 2151.2402 L 843.74609 2162.7695 C 843.74609 2201.87 849.43039 2238.1393 860.79688 2271.5625 C 872.15736 2304.9798 888.53731 2334.2286 909.92969 2359.293 C 931.65417 2384.0252 957.72125 2403.4131 988.13672 2417.4492 C 1018.5522 2431.1531 1052.8082 2438.002 1090.9062 2438.002 C 1129.0101 2438.002 1163.0983 2431.1531 1193.1816 2417.4492 C 1223.5971 2403.4131 1249.4942 2384.0252 1270.8867 2359.293 C 1292.6111 2334.2286 1309.1549 2304.9798 1320.5215 2271.5625 C 1331.8821 2238.1393 1337.5645 2201.87 1337.5645 2162.7695 L 1337.5645 2151.2402 C 1337.5645 2112.1338 1331.8821 2075.8725 1320.5215 2042.4492 C 1309.155 2008.6939 1292.6112 1979.449 1270.8867 1954.7168 C 1249.4942 1929.6463 1223.4273 1910.2665 1192.6797 1896.5625 C 1162.2641 1882.5264 1128.0083 1875.502 1089.9043 1875.502 z M 626.16992 1885.5332 L 626.16992 2427.9766 L 719.42188 2427.9766 L 719.42188 1885.5332 L 626.16992 1885.5332 z M 1089.9043 1951.709 C 1115.639 1951.709 1138.0332 1957.0559 1157.082 1967.752 C 1176.4692 1978.4482 1192.5116 1993.1543 1205.2129 2011.8711 C 1218.2464 2030.2496 1227.9394 2051.4731 1234.293 2075.541 C 1240.9729 2099.2707 1244.3184 2124.5029 1244.3184 2151.2402 L 1244.3184 2162.7695 C 1244.3184 2189.8391 1240.9729 2215.4127 1234.293 2239.4746 C 1227.9394 2263.2043 1218.4142 2284.2579 1205.7129 2302.6426 C 1193.0116 2321.0272 1176.9712 2335.5636 1157.584 2346.2598 C 1138.535 2356.6178 1116.3088 2361.8008 1090.9062 2361.8008 C 1065.1714 2361.8008 1042.6137 2356.6178 1023.2266 2346.2598 C 1003.8455 2335.5636 987.63505 2321.0272 974.60156 2302.6426 C 961.90028 2284.2579 952.36908 2263.2043 946.02148 2239.4746 C 939.67379 2215.4127 936.49805 2189.8391 936.49805 2162.7695 L 936.49805 2151.2402 C 936.49805 2124.5029 939.67379 2099.2707 946.02148 2075.541 C 952.36908 2051.4731 961.90028 2030.2496 974.60156 2011.8711 C 987.63505 1993.1543 1003.6757 1978.4482 1022.7246 1967.752 C 1042.1117 1957.0559 1064.5076 1951.709 1089.9043 1951.709 z " />
</svg>