<svg
  viewBox="0 0 45 45"
  version="1.1"
  xmlns="http://www.w3.org/2000/svg"
  xmlns:svg="http://www.w3.org/2000/svg">
     <path
     d="M 36.832031 0.11132812 C 36.831245 4.4940809 33.277283 8.0480537 28.894531 8.0488281 C 33.277283 8.0495994 36.831253 11.601621 36.832031 15.984375 C 36.832817 11.601621 40.384827 8.0496027 44.767578 8.0488281 C 40.384827 8.0480567 36.832801 4.4940809 36.832031 0.11132812 z M 16.388672 6.3457031 C 16.387104 15.266723 9.1534402 22.498424 0.23242188 22.5 C 9.1534402 22.5016 16.387089 29.733274 16.388672 38.654297 C 16.390272 29.733274 23.619998 22.501577 32.541016 22.5 C 23.619998 22.498432 16.390239 15.266723 16.388672 6.3457031 z M 16.388672 18.390625 C 17.550901 19.948674 18.940557 21.337135 20.498047 22.5 C 18.939649 23.663276 17.549983 25.052915 16.386719 26.611328 C 15.224684 25.051816 13.834404 23.662613 12.275391 22.5 C 13.824931 21.351039 15.196206 19.967089 16.359375 18.429688 L 16.388672 18.390625 z M 36.832031 29.015625 C 36.831245 33.398378 33.277283 36.950397 28.894531 36.951172 C 33.277283 36.951943 36.831253 40.505918 36.832031 44.888672 C 36.832817 40.505918 40.384827 36.951946 44.767578 36.951172 C 40.384827 36.9504 36.832801 33.398378 36.832031 29.015625 z " /></svg>