<svg width="1400" height="788" viewBox="0 0 1400 788" fill="none" xmlns="http://www.w3.org/2000/svg">
<g clip-path="url(#clip0_637_15964)">
<rect width="1400" height="787.5" fill="url(#paint0_linear_637_15964)"/>
<path d="M1400 658H-144V788H1400V658Z" fill="#0B1C3F"/>
</g>
<g clip-path="url(#clip1_637_15964)">
<path d="M852.906 211.406H532.906C524.07 211.406 516.906 218.57 516.906 227.406V514.594C516.906 523.43 524.07 530.594 532.906 530.594H852.906C861.743 530.594 868.906 523.43 868.906 514.594V227.406C868.906 218.57 861.743 211.406 852.906 211.406Z" fill="#E0FBFE"/>
<path d="M828.906 335.406H556.906C552.488 335.406 548.906 338.988 548.906 343.406V375.406C548.906 379.825 552.488 383.406 556.906 383.406H828.906C833.325 383.406 836.906 379.825 836.906 375.406V343.406C836.906 338.988 833.325 335.406 828.906 335.406Z" fill="#C7F7FE"/>
<mask id="mask0_637_15964" style="mask-type:luminance" maskUnits="userSpaceOnUse" x="564" y="335" width="257" height="65">
<path d="M820.922 335.406H564.891V383.406H820.922V335.406Z" fill="white"/>
<path d="M637.438 348.406H564.891V367.406H637.438V348.406Z" fill="white"/>
<path d="M820.922 335.406H564.891V399.406H820.922V335.406Z" fill="white"/>
</mask>
<g mask="url(#mask0_637_15964)">
<g opacity="0.5">
<path d="M573.936 354.77H575.345V362.474C575.345 363.27 575.158 363.98 574.783 364.605C574.411 365.226 573.887 365.717 573.209 366.077C572.531 366.433 571.735 366.611 570.822 366.611C569.91 366.611 569.114 366.433 568.436 366.077C567.758 365.717 567.232 365.226 566.857 364.605C566.485 363.98 566.3 363.27 566.3 362.474V354.77H567.709V362.361C567.709 362.929 567.834 363.435 568.084 363.878C568.334 364.317 568.69 364.664 569.152 364.918C569.618 365.168 570.175 365.293 570.822 365.293C571.47 365.293 572.027 365.168 572.493 364.918C572.959 364.664 573.315 364.317 573.561 363.878C573.811 363.435 573.936 362.929 573.936 362.361V354.77ZM584.159 359.634L582.955 359.974C582.879 359.774 582.767 359.579 582.619 359.389C582.475 359.196 582.278 359.037 582.028 358.912C581.778 358.787 581.458 358.724 581.068 358.724C580.534 358.724 580.089 358.848 579.733 359.094C579.381 359.336 579.205 359.645 579.205 360.02C579.205 360.353 579.326 360.616 579.568 360.81C579.811 361.003 580.189 361.164 580.705 361.293L582 361.611C582.78 361.8 583.362 362.09 583.744 362.48C584.127 362.866 584.318 363.365 584.318 363.974C584.318 364.474 584.174 364.921 583.886 365.315C583.602 365.709 583.205 366.02 582.693 366.247C582.182 366.474 581.587 366.588 580.909 366.588C580.019 366.588 579.282 366.395 578.699 366.009C578.116 365.622 577.746 365.058 577.591 364.315L578.864 363.997C578.985 364.467 579.214 364.819 579.551 365.054C579.892 365.289 580.337 365.406 580.886 365.406C581.511 365.406 582.008 365.274 582.375 365.009C582.746 364.74 582.932 364.418 582.932 364.043C582.932 363.74 582.826 363.486 582.614 363.281C582.402 363.073 582.076 362.918 581.636 362.815L580.182 362.474C579.383 362.285 578.795 361.991 578.42 361.594C578.049 361.192 577.864 360.69 577.864 360.088C577.864 359.596 578.002 359.16 578.278 358.781C578.559 358.402 578.939 358.105 579.42 357.889C579.905 357.673 580.455 357.565 581.068 357.565C581.932 357.565 582.61 357.755 583.102 358.134C583.598 358.512 583.951 359.012 584.159 359.634ZM589.996 366.588C589.155 366.588 588.429 366.402 587.82 366.031C587.214 365.656 586.746 365.134 586.416 364.463C586.09 363.789 585.928 363.005 585.928 362.111C585.928 361.217 586.09 360.429 586.416 359.747C586.746 359.062 587.204 358.527 587.791 358.145C588.382 357.759 589.071 357.565 589.859 357.565C590.314 357.565 590.763 357.641 591.206 357.793C591.649 357.944 592.053 358.19 592.416 358.531C592.78 358.868 593.07 359.315 593.286 359.872C593.501 360.429 593.609 361.115 593.609 361.929V362.497H586.882V361.338H592.246C592.246 360.846 592.147 360.406 591.95 360.02C591.757 359.634 591.481 359.329 591.121 359.105C590.765 358.882 590.344 358.77 589.859 358.77C589.325 358.77 588.863 358.902 588.473 359.168C588.087 359.429 587.789 359.77 587.581 360.19C587.373 360.611 587.268 361.062 587.268 361.543V362.315C587.268 362.974 587.382 363.533 587.609 363.991C587.84 364.446 588.161 364.793 588.57 365.031C588.979 365.266 589.454 365.384 589.996 365.384C590.348 365.384 590.666 365.334 590.95 365.236C591.238 365.134 591.486 364.982 591.695 364.781C591.903 364.577 592.064 364.323 592.178 364.02L593.473 364.384C593.337 364.823 593.107 365.209 592.786 365.543C592.464 365.872 592.066 366.13 591.592 366.315C591.119 366.497 590.587 366.588 589.996 366.588ZM595.649 366.406V357.679H596.945V358.997H597.036C597.195 358.565 597.482 358.215 597.899 357.946C598.316 357.677 598.786 357.543 599.308 357.543C599.407 357.543 599.53 357.545 599.678 357.548C599.825 357.552 599.937 357.558 600.013 357.565V358.929C599.967 358.918 599.863 358.901 599.7 358.878C599.541 358.851 599.373 358.838 599.195 358.838C598.77 358.838 598.392 358.927 598.058 359.105C597.729 359.279 597.467 359.522 597.274 359.832C597.085 360.139 596.99 360.49 596.99 360.884V366.406H595.649ZM602.943 361.156V366.406H601.602V357.679H602.898V359.043H603.011C603.216 358.599 603.527 358.243 603.943 357.974C604.36 357.702 604.898 357.565 605.557 357.565C606.148 357.565 606.665 357.687 607.108 357.929C607.551 358.168 607.896 358.531 608.142 359.02C608.388 359.505 608.511 360.118 608.511 360.861V366.406H607.17V360.952C607.17 360.266 606.992 359.732 606.636 359.349C606.28 358.963 605.792 358.77 605.17 358.77C604.742 358.77 604.36 358.863 604.023 359.048C603.689 359.234 603.426 359.505 603.233 359.861C603.04 360.217 602.943 360.649 602.943 361.156ZM613.53 366.611C612.977 366.611 612.475 366.507 612.024 366.298C611.573 366.086 611.215 365.781 610.95 365.384C610.685 364.982 610.553 364.497 610.553 363.929C610.553 363.429 610.651 363.024 610.848 362.713C611.045 362.399 611.308 362.152 611.638 361.974C611.967 361.796 612.331 361.664 612.729 361.577C613.13 361.486 613.534 361.414 613.939 361.361C614.469 361.293 614.899 361.241 615.229 361.207C615.562 361.17 615.804 361.107 615.956 361.02C616.111 360.933 616.189 360.781 616.189 360.565V360.52C616.189 359.959 616.036 359.524 615.729 359.213C615.426 358.902 614.965 358.747 614.348 358.747C613.708 358.747 613.206 358.887 612.842 359.168C612.479 359.448 612.223 359.747 612.075 360.065L610.803 359.611C611.03 359.08 611.333 358.668 611.712 358.372C612.094 358.073 612.511 357.865 612.962 357.747C613.416 357.626 613.863 357.565 614.303 357.565C614.583 357.565 614.905 357.599 615.268 357.668C615.636 357.732 615.99 357.866 616.331 358.071C616.676 358.276 616.962 358.584 617.189 358.997C617.416 359.41 617.53 359.963 617.53 360.656V366.406H616.189V365.224H616.121C616.03 365.414 615.878 365.616 615.666 365.832C615.454 366.048 615.172 366.232 614.82 366.384C614.467 366.535 614.037 366.611 613.53 366.611ZM613.734 365.406C614.265 365.406 614.712 365.302 615.075 365.094C615.443 364.885 615.719 364.616 615.905 364.287C616.094 363.957 616.189 363.611 616.189 363.247V362.02C616.132 362.088 616.007 362.151 615.814 362.207C615.625 362.26 615.405 362.308 615.155 362.349C614.909 362.387 614.668 362.421 614.433 362.452C614.202 362.478 614.015 362.501 613.871 362.52C613.522 362.565 613.196 362.639 612.893 362.741C612.594 362.84 612.352 362.99 612.166 363.19C611.984 363.387 611.893 363.656 611.893 363.997C611.893 364.463 612.066 364.815 612.411 365.054C612.759 365.289 613.2 365.406 613.734 365.406ZM619.977 366.406V357.679H621.273V359.043H621.386C621.568 358.577 621.862 358.215 622.267 357.957C622.672 357.696 623.159 357.565 623.727 357.565C624.303 357.565 624.782 357.696 625.165 357.957C625.551 358.215 625.852 358.577 626.068 359.043H626.159C626.383 358.592 626.718 358.234 627.165 357.969C627.612 357.7 628.148 357.565 628.773 357.565C629.553 357.565 630.191 357.81 630.688 358.298C631.184 358.783 631.432 359.539 631.432 360.565V366.406H630.091V360.565C630.091 359.921 629.915 359.461 629.562 359.185C629.21 358.908 628.795 358.77 628.318 358.77C627.705 358.77 627.229 358.955 626.892 359.327C626.555 359.694 626.386 360.16 626.386 360.724V366.406H625.023V360.429C625.023 359.933 624.862 359.533 624.54 359.23C624.218 358.923 623.803 358.77 623.295 358.77C622.947 358.77 622.621 358.863 622.318 359.048C622.019 359.234 621.777 359.491 621.591 359.821C621.409 360.147 621.318 360.524 621.318 360.952V366.406H619.977ZM637.543 366.588C636.702 366.588 635.976 366.402 635.366 366.031C634.76 365.656 634.293 365.134 633.963 364.463C633.637 363.789 633.474 363.005 633.474 362.111C633.474 361.217 633.637 360.429 633.963 359.747C634.293 359.062 634.751 358.527 635.338 358.145C635.929 357.759 636.618 357.565 637.406 357.565C637.861 357.565 638.31 357.641 638.753 357.793C639.196 357.944 639.599 358.19 639.963 358.531C640.327 358.868 640.616 359.315 640.832 359.872C641.048 360.429 641.156 361.115 641.156 361.929V362.497H634.429V361.338H639.793C639.793 360.846 639.694 360.406 639.497 360.02C639.304 359.634 639.027 359.329 638.668 359.105C638.312 358.882 637.891 358.77 637.406 358.77C636.872 358.77 636.41 358.902 636.02 359.168C635.634 359.429 635.336 359.77 635.128 360.19C634.92 360.611 634.815 361.062 634.815 361.543V362.315C634.815 362.974 634.929 363.533 635.156 363.991C635.387 364.446 635.707 364.793 636.116 365.031C636.526 365.266 637.001 365.384 637.543 365.384C637.895 365.384 638.213 365.334 638.497 365.236C638.785 365.134 639.033 364.982 639.241 364.781C639.45 364.577 639.611 364.323 639.724 364.02L641.02 364.384C640.884 364.823 640.654 365.209 640.332 365.543C640.01 365.872 639.613 366.13 639.139 366.315C638.666 366.497 638.134 366.588 637.543 366.588Z" fill="#333333"/>
</g>
</g>
<g opacity="0.15">
<path d="M836.906 381.5H548.906V383.406H836.906V381.5Z" fill="#333333"/>
</g>
<path d="M828.906 399.406H556.906C552.488 399.406 548.906 402.988 548.906 407.406V439.406C548.906 443.825 552.488 447.406 556.906 447.406H828.906C833.325 447.406 836.906 443.825 836.906 439.406V407.406C836.906 402.988 833.325 399.406 828.906 399.406Z" fill="#C7F7FE"/>
<mask id="mask1_637_15964" style="mask-type:luminance" maskUnits="userSpaceOnUse" x="564" y="399" width="257" height="65">
<path d="M820.922 399.406H564.891V447.406H820.922V399.406Z" fill="white"/>
<path d="M635.547 412.406H564.891V431.406H635.547V412.406Z" fill="white"/>
<path d="M820.922 399.406H564.891V463.406H820.922V399.406Z" fill="white"/>
</mask>
<g mask="url(#mask1_637_15964)">
<g opacity="0.5">
<path d="M566.3 430.406V418.77H570.232C571.144 418.77 571.891 418.935 572.47 419.264C573.054 419.59 573.485 420.031 573.766 420.588C574.046 421.145 574.186 421.766 574.186 422.452C574.186 423.137 574.046 423.76 573.766 424.321C573.489 424.882 573.061 425.329 572.482 425.662C571.902 425.991 571.16 426.156 570.254 426.156H567.436V424.906H570.209C570.834 424.906 571.336 424.798 571.714 424.582C572.093 424.366 572.368 424.075 572.538 423.707C572.713 423.336 572.8 422.918 572.8 422.452C572.8 421.986 572.713 421.569 572.538 421.202C572.368 420.834 572.091 420.546 571.709 420.338C571.326 420.126 570.819 420.02 570.186 420.02H567.709V430.406H566.3ZM578.842 430.611C578.289 430.611 577.787 430.507 577.337 430.298C576.886 430.086 576.528 429.781 576.263 429.384C575.998 428.982 575.865 428.497 575.865 427.929C575.865 427.429 575.964 427.024 576.161 426.713C576.357 426.399 576.621 426.152 576.95 425.974C577.28 425.796 577.643 425.664 578.041 425.577C578.443 425.486 578.846 425.414 579.251 425.361C579.782 425.293 580.212 425.241 580.541 425.207C580.875 425.17 581.117 425.107 581.268 425.02C581.424 424.933 581.501 424.781 581.501 424.565V424.52C581.501 423.959 581.348 423.524 581.041 423.213C580.738 422.902 580.278 422.747 579.661 422.747C579.02 422.747 578.518 422.887 578.155 423.168C577.791 423.448 577.536 423.747 577.388 424.065L576.115 423.611C576.342 423.08 576.645 422.668 577.024 422.372C577.407 422.073 577.823 421.865 578.274 421.747C578.729 421.626 579.176 421.565 579.615 421.565C579.895 421.565 580.217 421.599 580.581 421.668C580.948 421.732 581.303 421.866 581.643 422.071C581.988 422.276 582.274 422.584 582.501 422.997C582.729 423.41 582.842 423.963 582.842 424.656V430.406H581.501V429.224H581.433C581.342 429.414 581.191 429.616 580.979 429.832C580.767 430.048 580.484 430.232 580.132 430.384C579.78 430.535 579.35 430.611 578.842 430.611ZM579.047 429.406C579.577 429.406 580.024 429.302 580.388 429.094C580.755 428.885 581.032 428.616 581.217 428.287C581.407 427.957 581.501 427.611 581.501 427.247V426.02C581.445 426.088 581.32 426.151 581.126 426.207C580.937 426.26 580.717 426.308 580.467 426.349C580.221 426.387 579.981 426.421 579.746 426.452C579.515 426.478 579.327 426.501 579.183 426.52C578.835 426.565 578.509 426.639 578.206 426.741C577.907 426.84 577.664 426.99 577.479 427.19C577.297 427.387 577.206 427.656 577.206 427.997C577.206 428.463 577.378 428.815 577.723 429.054C578.071 429.289 578.513 429.406 579.047 429.406ZM591.472 423.634L590.267 423.974C590.191 423.774 590.08 423.579 589.932 423.389C589.788 423.196 589.591 423.037 589.341 422.912C589.091 422.787 588.771 422.724 588.381 422.724C587.847 422.724 587.402 422.848 587.045 423.094C586.693 423.336 586.517 423.645 586.517 424.02C586.517 424.353 586.638 424.616 586.881 424.81C587.123 425.003 587.502 425.164 588.017 425.293L589.312 425.611C590.093 425.8 590.674 426.09 591.057 426.48C591.439 426.866 591.631 427.365 591.631 427.974C591.631 428.474 591.487 428.921 591.199 429.315C590.915 429.709 590.517 430.02 590.006 430.247C589.494 430.474 588.9 430.588 588.222 430.588C587.331 430.588 586.595 430.395 586.011 430.009C585.428 429.622 585.059 429.058 584.903 428.315L586.176 427.997C586.297 428.467 586.527 428.819 586.864 429.054C587.205 429.289 587.65 429.406 588.199 429.406C588.824 429.406 589.32 429.274 589.688 429.009C590.059 428.74 590.244 428.418 590.244 428.043C590.244 427.74 590.138 427.486 589.926 427.281C589.714 427.073 589.388 426.918 588.949 426.815L587.494 426.474C586.695 426.285 586.108 425.991 585.733 425.594C585.362 425.192 585.176 424.69 585.176 424.088C585.176 423.596 585.314 423.16 585.591 422.781C585.871 422.402 586.252 422.105 586.733 421.889C587.218 421.673 587.767 421.565 588.381 421.565C589.244 421.565 589.922 421.755 590.415 422.134C590.911 422.512 591.263 423.012 591.472 423.634ZM599.831 423.634L598.626 423.974C598.551 423.774 598.439 423.579 598.291 423.389C598.147 423.196 597.95 423.037 597.7 422.912C597.45 422.787 597.13 422.724 596.74 422.724C596.206 422.724 595.761 422.848 595.405 423.094C595.053 423.336 594.876 423.645 594.876 424.02C594.876 424.353 594.998 424.616 595.24 424.81C595.482 425.003 595.861 425.164 596.376 425.293L597.672 425.611C598.452 425.8 599.034 426.09 599.416 426.48C599.799 426.866 599.99 427.365 599.99 427.974C599.99 428.474 599.846 428.921 599.558 429.315C599.274 429.709 598.876 430.02 598.365 430.247C597.854 430.474 597.259 430.588 596.581 430.588C595.691 430.588 594.954 430.395 594.371 430.009C593.787 429.622 593.418 429.058 593.263 428.315L594.536 427.997C594.657 428.467 594.886 428.819 595.223 429.054C595.564 429.289 596.009 429.406 596.558 429.406C597.183 429.406 597.679 429.274 598.047 429.009C598.418 428.74 598.604 428.418 598.604 428.043C598.604 427.74 598.498 427.486 598.286 427.281C598.073 427.073 597.748 426.918 597.308 426.815L595.854 426.474C595.054 426.285 594.467 425.991 594.092 425.594C593.721 425.192 593.536 424.69 593.536 424.088C593.536 423.596 593.674 423.16 593.95 422.781C594.231 422.402 594.611 422.105 595.092 421.889C595.577 421.673 596.126 421.565 596.74 421.565C597.604 421.565 598.282 421.755 598.774 422.134C599.27 422.512 599.623 423.012 599.831 423.634ZM603.986 430.406L601.327 421.679H602.736L604.622 428.361H604.713L606.577 421.679H608.009L609.849 428.338H609.94L611.827 421.679H613.236L610.577 430.406H609.259L607.349 423.702H607.213L605.304 430.406H603.986ZM618.257 430.588C617.469 430.588 616.778 430.401 616.183 430.026C615.592 429.651 615.13 429.126 614.797 428.452C614.467 427.777 614.303 426.99 614.303 426.088C614.303 425.179 614.467 424.385 614.797 423.707C615.13 423.029 615.592 422.503 616.183 422.128C616.778 421.753 617.469 421.565 618.257 421.565C619.045 421.565 619.734 421.753 620.325 422.128C620.92 422.503 621.382 423.029 621.712 423.707C622.045 424.385 622.212 425.179 622.212 426.088C622.212 426.99 622.045 427.777 621.712 428.452C621.382 429.126 620.92 429.651 620.325 430.026C619.734 430.401 619.045 430.588 618.257 430.588ZM618.257 429.384C618.856 429.384 619.348 429.23 619.734 428.923C620.121 428.616 620.407 428.213 620.592 427.713C620.778 427.213 620.871 426.671 620.871 426.088C620.871 425.505 620.778 424.961 620.592 424.457C620.407 423.954 620.121 423.546 619.734 423.236C619.348 422.925 618.856 422.77 618.257 422.77C617.659 422.77 617.166 422.925 616.78 423.236C616.393 423.546 616.107 423.954 615.922 424.457C615.736 424.961 615.643 425.505 615.643 426.088C615.643 426.671 615.736 427.213 615.922 427.713C616.107 428.213 616.393 428.616 616.78 428.923C617.166 429.23 617.659 429.384 618.257 429.384ZM624.259 430.406V421.679H625.554V422.997H625.645C625.804 422.565 626.092 422.215 626.509 421.946C626.925 421.677 627.395 421.543 627.918 421.543C628.016 421.543 628.139 421.545 628.287 421.548C628.435 421.552 628.546 421.558 628.622 421.565V422.929C628.577 422.918 628.473 422.901 628.31 422.878C628.151 422.851 627.982 422.838 627.804 422.838C627.38 422.838 627.001 422.927 626.668 423.105C626.338 423.279 626.077 423.522 625.884 423.832C625.694 424.139 625.599 424.49 625.599 424.884V430.406H624.259ZM633.241 430.588C632.514 430.588 631.872 430.404 631.315 430.037C630.759 429.666 630.323 429.143 630.009 428.469C629.694 427.791 629.537 426.99 629.537 426.065C629.537 425.149 629.694 424.353 630.009 423.679C630.323 423.005 630.76 422.484 631.321 422.116C631.882 421.749 632.529 421.565 633.264 421.565C633.832 421.565 634.281 421.66 634.611 421.849C634.944 422.035 635.198 422.247 635.372 422.486C635.55 422.721 635.688 422.914 635.787 423.065H635.901V418.77H637.241V430.406H635.946V429.065H635.787C635.688 429.224 635.548 429.425 635.366 429.668C635.185 429.906 634.925 430.12 634.588 430.31C634.251 430.495 633.802 430.588 633.241 430.588ZM633.423 429.384C633.961 429.384 634.416 429.243 634.787 428.963C635.158 428.679 635.44 428.287 635.634 427.787C635.827 427.283 635.923 426.702 635.923 426.043C635.923 425.391 635.829 424.821 635.639 424.332C635.45 423.84 635.17 423.457 634.798 423.185C634.427 422.908 633.969 422.77 633.423 422.77C632.855 422.77 632.382 422.916 632.003 423.207C631.628 423.495 631.346 423.887 631.156 424.384C630.971 424.876 630.878 425.429 630.878 426.043C630.878 426.664 630.973 427.228 631.162 427.736C631.355 428.24 631.639 428.641 632.014 428.94C632.393 429.236 632.863 429.384 633.423 429.384Z" fill="#333333"/>
</g>
</g>
<g opacity="0.15">
<path d="M836.906 445.5H548.906V447.406H836.906V445.5Z" fill="#333333"/>
</g>
<path d="M659.312 463.406H566.5C556.783 463.406 548.906 471.283 548.906 481C548.906 490.717 556.783 498.594 566.5 498.594H659.312C669.029 498.594 676.906 490.717 676.906 481C676.906 471.283 669.029 463.406 659.312 463.406Z" fill="#0083FF"/>
<path d="M819.312 463.406H726.5C716.783 463.406 708.906 471.283 708.906 481C708.906 490.717 716.783 498.594 726.5 498.594H819.312C829.029 498.594 836.906 490.717 836.906 481C836.906 471.283 829.029 463.406 819.312 463.406Z" fill="#0083FF"/>
<path d="M1242.78 24H147.222C137.71 24 130 31.1634 130 40V80C130 88.8366 137.71 96 147.222 96H1242.78C1252.29 96 1260 88.8366 1260 80V40C1260 31.1634 1252.29 24 1242.78 24Z" fill="#E0FBFE"/>
<mask id="mask2_637_15964" style="mask-type:luminance" maskUnits="userSpaceOnUse" x="153" y="46" width="31" height="28">
<path d="M183.802 46H153.664V74H183.802V46Z" fill="white"/>
</mask>
<g mask="url(#mask2_637_15964)">
<path d="M160.941 46.0001C160.89 46.0008 160.843 46.0028 160.791 46.0071C160.733 46.0116 160.681 46.0182 160.623 46.0273C160.566 46.0367 160.514 46.047 160.458 46.0607C160.392 46.0768 160.326 46.0962 160.264 46.1178C160.154 46.1557 160.048 46.2025 159.946 46.2565C159.937 46.2615 159.916 46.2729 159.903 46.2804C159.5 46.5064 159.174 46.849 158.957 47.2432C158.775 47.5746 158.679 47.9485 158.68 48.3229C158.68 49.4011 158.679 50.4793 158.68 51.5575C158.681 51.8296 158.702 52.1069 158.776 52.3724C158.811 52.4964 158.856 52.6178 158.912 52.7341C158.923 52.7562 158.938 52.785 158.951 52.8093C159.069 53.0248 159.226 53.2192 159.404 53.3913C159.579 53.5588 159.78 53.7056 159.984 53.8336C160.433 54.1138 160.919 54.3303 161.396 54.5612C163.019 55.3382 164.642 56.1153 166.265 56.8923C164.741 57.6225 163.216 58.3522 161.692 59.0828C160.961 59.4375 160.286 59.9116 159.751 60.5096C159.395 60.9077 159.104 61.3619 158.917 61.8551C158.911 61.8705 158.902 61.8948 158.895 61.9136C158.772 62.2538 158.699 62.611 158.683 62.971C158.683 62.9844 158.682 63.0076 158.681 63.0247C158.678 63.1088 158.68 63.1929 158.683 63.277C158.684 63.2903 158.685 63.3135 158.686 63.3307C158.707 63.6931 158.787 64.0518 158.917 64.3927C158.923 64.4081 158.933 64.4321 158.94 64.4508C159.191 65.0789 159.607 65.6384 160.111 66.1031C160.6 66.5541 161.171 66.9197 161.779 67.2061C166.375 69.4069 170.97 71.6079 175.566 73.8083C175.929 73.9802 176.347 74.0332 176.746 73.9806C176.866 73.9652 176.985 73.9404 177.101 73.9073C177.122 73.9014 177.15 73.8927 177.174 73.8853C177.371 73.8218 177.56 73.7336 177.731 73.6203C177.75 73.6073 177.776 73.59 177.797 73.5744C178.018 73.4115 178.211 73.2141 178.366 72.9923C178.393 72.9536 178.422 72.9094 178.447 72.8672C178.585 72.6394 178.681 72.3886 178.73 72.1296C178.736 72.0983 178.743 72.0599 178.748 72.0257C178.771 71.8749 178.773 71.7224 178.772 71.5704C178.771 70.5342 178.772 69.498 178.771 68.4618C178.77 68.3499 178.767 68.2439 178.758 68.1325C178.735 67.8403 178.669 67.5488 178.539 67.2826C178.517 67.2381 178.491 67.1894 178.465 67.1448C178.445 67.1112 178.422 67.0744 178.402 67.0444C178.22 66.7747 177.982 66.5427 177.715 66.3501C177.372 66.1017 176.991 65.9067 176.608 65.7206C174.801 64.8546 172.993 63.9892 171.185 63.1234C172.709 62.3935 174.233 61.6641 175.757 60.9339C176.489 60.5789 177.165 60.1044 177.7 59.5058C177.916 59.2643 178.107 59.0029 178.267 58.7243C178.276 58.7079 178.29 58.684 178.3 58.6647C178.39 58.5018 178.468 58.3332 178.535 58.1603C178.54 58.1448 178.549 58.1206 178.556 58.1018C178.679 57.7616 178.752 57.4044 178.768 57.0444C178.769 57.031 178.769 57.0078 178.77 56.9907C178.773 56.9066 178.771 56.8225 178.768 56.7384C178.767 56.725 178.766 56.7018 178.765 56.6847C178.732 56.1198 178.556 55.5662 178.273 55.0706C177.984 54.5617 177.589 54.1124 177.134 53.7315C177.11 53.7121 177.081 53.6875 177.055 53.6664C176.894 53.5365 176.727 53.4147 176.554 53.3008C176.52 53.279 176.481 53.2533 176.444 53.2307C176.181 53.0642 175.904 52.9175 175.621 52.7847C173.504 51.7709 171.387 50.7571 169.27 49.7433C169.232 49.7279 169.192 49.7063 169.153 49.6885C166.728 48.5273 164.303 47.3655 161.878 46.2046C161.587 46.0696 161.264 45.9968 160.941 46.0001ZM161.018 48.1488C163.419 49.2986 165.821 50.4485 168.222 51.5984C168.256 51.6119 168.293 51.6321 168.328 51.6482C170.477 52.6772 172.625 53.7056 174.773 54.7349C175.179 54.9325 175.567 55.1726 175.891 55.4811C176.156 55.7341 176.376 56.0388 176.489 56.3833C176.583 56.6657 176.597 56.9717 176.528 57.2606C176.446 57.6109 176.25 57.9289 176 58.1932C175.703 58.5073 175.338 58.7546 174.952 58.9585C174.756 59.0619 174.553 59.1535 174.353 59.2507C171.657 60.5416 168.962 61.8325 166.266 63.1234C169.374 64.6118 172.482 66.0997 175.589 67.5883C175.863 67.7221 176.133 67.8662 176.381 68.0425C176.442 68.0884 176.505 68.1343 176.557 68.1903C176.575 68.2283 176.568 68.2715 176.57 68.312C176.573 68.7935 176.571 69.2749 176.572 69.7563C176.572 70.4033 176.572 71.0502 176.572 71.6972C176.557 71.7574 176.523 71.8117 176.492 71.8654C176.485 71.8833 176.476 71.8961 176.457 71.8796C171.869 69.6823 167.281 67.4854 162.693 65.2879C162.285 65.0901 161.893 64.8496 161.567 64.5401C161.3 64.2871 161.078 63.9826 160.964 63.6376C160.867 63.3478 160.853 63.0327 160.927 62.7365C161.011 62.3969 161.202 62.0885 161.444 61.8304C161.739 61.5151 162.104 61.2668 162.489 61.0622C162.686 60.9578 162.89 60.866 163.091 60.7684C165.789 59.4763 168.487 58.1842 171.185 56.8922C168.079 55.4049 164.973 53.9177 161.867 52.4305C161.589 52.2946 161.314 52.1489 161.064 51.9691C161.005 51.9249 160.944 51.8804 160.894 51.8265C160.876 51.7904 160.884 51.7488 160.881 51.71C160.879 51.2442 160.88 50.7783 160.88 50.3125C160.88 49.6486 160.88 48.9848 160.88 48.3209C160.893 48.2499 160.93 48.1857 160.972 48.1267C160.988 48.1341 161.003 48.1414 161.018 48.1488Z" fill="#333333"/>
</g>
<mask id="mask3_637_15964" style="mask-type:luminance" maskUnits="userSpaceOnUse" x="1135" y="48" width="25" height="24">
<path d="M1159.5 48.8047H1135.4V71.1953H1159.5V48.8047Z" fill="white"/>
</mask>
<g mask="url(#mask3_637_15964)">
<path d="M1148.3 68.5384C1148.06 68.5384 1147.85 68.4616 1147.69 68.3082C1147.52 68.1547 1147.44 67.9652 1147.44 67.7398C1147.44 67.5143 1147.52 67.3262 1147.69 67.1755C1147.85 67.0247 1148.06 66.9493 1148.3 66.9493H1154.93V53.0556H1148.3C1148.06 53.0556 1147.85 52.9788 1147.69 52.8253C1147.52 52.6719 1147.44 52.4826 1147.44 52.2574C1147.44 52.0323 1147.52 51.8433 1147.69 51.6904C1147.85 51.5374 1148.06 51.4609 1148.3 51.4609H1154.93C1155.39 51.4609 1155.8 51.619 1156.14 51.9353C1156.48 52.2515 1156.65 52.6249 1156.65 53.0556V66.9493C1156.65 67.3785 1156.48 67.7506 1156.14 68.0657C1155.8 68.3808 1155.39 68.5384 1154.93 68.5384H1148.3ZM1147.23 60.797H1139.12C1138.88 60.797 1138.68 60.7202 1138.51 60.5668C1138.35 60.4133 1138.27 60.2238 1138.27 59.9984C1138.27 59.7729 1138.35 59.5848 1138.51 59.4341C1138.68 59.2833 1138.88 59.2079 1139.12 59.2079H1147.18L1145.25 57.4135C1145.08 57.2542 1145 57.0675 1145.01 56.8534C1145.01 56.6394 1145.1 56.454 1145.27 56.2973C1145.44 56.1369 1145.65 56.0576 1145.88 56.0595C1146.12 56.0614 1146.32 56.1416 1146.49 56.3001L1149.9 59.469C1150.07 59.6289 1150.16 59.8149 1150.16 60.0268C1150.16 60.2387 1150.07 60.424 1149.9 60.5825L1146.52 63.7281C1146.35 63.8867 1146.15 63.9631 1145.92 63.9575C1145.69 63.9518 1145.49 63.8691 1145.32 63.7093C1145.15 63.5532 1145.07 63.3645 1145.07 63.1433C1145.06 62.922 1145.15 62.7322 1145.32 62.5736L1147.23 60.797Z" fill="#333333"/>
</g>
<path d="M1175.3 64.3125V66H1169.59V64.3125H1175.3ZM1170.23 54.625V66H1168.09V54.625H1170.23ZM1176.22 61.8594V61.6953C1176.22 61.0755 1176.31 60.5052 1176.48 59.9844C1176.66 59.4583 1176.92 59.0026 1177.26 58.6172C1177.6 58.2318 1178.01 57.9323 1178.5 57.7188C1178.99 57.5 1179.55 57.3906 1180.17 57.3906C1180.81 57.3906 1181.37 57.5 1181.86 57.7188C1182.35 57.9323 1182.77 58.2318 1183.11 58.6172C1183.45 59.0026 1183.71 59.4583 1183.88 59.9844C1184.06 60.5052 1184.15 61.0755 1184.15 61.6953V61.8594C1184.15 62.474 1184.06 63.0443 1183.88 63.5703C1183.71 64.0911 1183.45 64.5469 1183.11 64.9375C1182.77 65.3229 1182.36 65.6224 1181.87 65.8359C1181.38 66.0495 1180.82 66.1562 1180.19 66.1562C1179.56 66.1562 1179 66.0495 1178.51 65.8359C1178.01 65.6224 1177.6 65.3229 1177.26 64.9375C1176.92 64.5469 1176.66 64.0911 1176.48 63.5703C1176.31 63.0443 1176.22 62.474 1176.22 61.8594ZM1178.28 61.6953V61.8594C1178.28 62.2292 1178.32 62.5755 1178.39 62.8984C1178.46 63.2214 1178.58 63.5052 1178.73 63.75C1178.88 63.9948 1179.07 64.1875 1179.31 64.3281C1179.56 64.4635 1179.85 64.5312 1180.19 64.5312C1180.52 64.5312 1180.81 64.4635 1181.05 64.3281C1181.29 64.1875 1181.48 63.9948 1181.63 63.75C1181.79 63.5052 1181.9 63.2214 1181.98 62.8984C1182.05 62.5755 1182.09 62.2292 1182.09 61.8594V61.6953C1182.09 61.3307 1182.05 60.9896 1181.98 60.6719C1181.9 60.349 1181.79 60.0651 1181.63 59.8203C1181.48 59.5703 1181.28 59.375 1181.04 59.2344C1180.8 59.0885 1180.51 59.0156 1180.17 59.0156C1179.84 59.0156 1179.55 59.0885 1179.31 59.2344C1179.07 59.375 1178.88 59.5703 1178.73 59.8203C1178.58 60.0651 1178.46 60.349 1178.39 60.6719C1178.32 60.9896 1178.28 61.3307 1178.28 61.6953ZM1191.02 57.5469H1192.9V65.7422C1192.9 66.5078 1192.73 67.1562 1192.4 67.6875C1192.07 68.224 1191.61 68.6302 1191.02 68.9062C1190.42 69.1875 1189.73 69.3281 1188.95 69.3281C1188.61 69.3281 1188.24 69.2812 1187.84 69.1875C1187.45 69.0938 1187.08 68.9453 1186.71 68.7422C1186.35 68.5443 1186.05 68.2865 1185.81 67.9688L1186.74 66.75C1187.02 67.0781 1187.34 67.3255 1187.7 67.4922C1188.05 67.6641 1188.43 67.75 1188.84 67.75C1189.26 67.75 1189.61 67.6719 1189.91 67.5156C1190.2 67.3646 1190.43 67.1406 1190.59 66.8438C1190.75 66.5521 1190.83 66.1927 1190.83 65.7656V59.4766L1191.02 57.5469ZM1185.31 61.875V61.7109C1185.31 61.0651 1185.39 60.4792 1185.55 59.9531C1185.7 59.4219 1185.93 58.9661 1186.22 58.5859C1186.52 58.2057 1186.87 57.9115 1187.29 57.7031C1187.71 57.4948 1188.18 57.3906 1188.71 57.3906C1189.27 57.3906 1189.74 57.4922 1190.12 57.6953C1190.5 57.8984 1190.82 58.1875 1191.07 58.5625C1191.33 58.9375 1191.52 59.3828 1191.66 59.8984C1191.81 60.4089 1191.92 60.9714 1192 61.5859V62.0312C1191.93 62.6302 1191.81 63.1797 1191.65 63.6797C1191.49 64.1797 1191.28 64.6172 1191.02 64.9922C1190.76 65.362 1190.44 65.6484 1190.05 65.8516C1189.67 66.0547 1189.22 66.1562 1188.7 66.1562C1188.17 66.1562 1187.71 66.0495 1187.29 65.8359C1186.87 65.6224 1186.52 65.3229 1186.22 64.9375C1185.93 64.5521 1185.7 64.099 1185.55 63.5781C1185.39 63.0573 1185.31 62.4896 1185.31 61.875ZM1187.38 61.7109V61.875C1187.38 62.2396 1187.41 62.5807 1187.48 62.8984C1187.56 63.2161 1187.67 63.4974 1187.82 63.7422C1187.97 63.9818 1188.16 64.1693 1188.39 64.3047C1188.62 64.4401 1188.89 64.5078 1189.21 64.5078C1189.64 64.5078 1189.99 64.4193 1190.26 64.2422C1190.53 64.0599 1190.74 63.8125 1190.88 63.5C1191.03 63.1823 1191.12 62.8255 1191.16 62.4297V61.2031C1191.14 60.8906 1191.08 60.6016 1190.99 60.3359C1190.91 60.0703 1190.79 59.8411 1190.64 59.6484C1190.49 59.4557 1190.3 59.3047 1190.06 59.1953C1189.83 59.0859 1189.55 59.0312 1189.23 59.0312C1188.91 59.0312 1188.64 59.1016 1188.41 59.2422C1188.17 59.3776 1187.98 59.5677 1187.83 59.8125C1187.68 60.0573 1187.56 60.3411 1187.48 60.6641C1187.41 60.987 1187.38 61.3359 1187.38 61.7109ZM1196.95 57.5469V66H1194.88V57.5469H1196.95ZM1194.73 55.3359C1194.73 55.0286 1194.84 54.7734 1195.05 54.5703C1195.26 54.3672 1195.55 54.2656 1195.91 54.2656C1196.27 54.2656 1196.55 54.3672 1196.76 54.5703C1196.97 54.7734 1197.08 55.0286 1197.08 55.3359C1197.08 55.638 1196.97 55.8906 1196.76 56.0938C1196.55 56.2969 1196.27 56.3984 1195.91 56.3984C1195.55 56.3984 1195.26 56.2969 1195.05 56.0938C1194.84 55.8906 1194.73 55.638 1194.73 55.3359ZM1200.94 59.3516V66H1198.88V57.5469H1200.81L1200.94 59.3516ZM1200.61 61.4688H1200C1200.01 60.8542 1200.09 60.2969 1200.25 59.7969C1200.41 59.2969 1200.64 58.8672 1200.93 58.5078C1201.23 58.1484 1201.58 57.8724 1201.98 57.6797C1202.39 57.487 1202.84 57.3906 1203.34 57.3906C1203.75 57.3906 1204.12 57.4479 1204.45 57.5625C1204.77 57.6771 1205.05 57.8594 1205.29 58.1094C1205.53 58.3594 1205.71 58.6875 1205.84 59.0938C1205.97 59.4948 1206.03 59.9896 1206.03 60.5781V66H1203.95V60.5625C1203.95 60.1771 1203.9 59.8724 1203.78 59.6484C1203.67 59.4245 1203.51 59.2656 1203.3 59.1719C1203.09 59.0781 1202.83 59.0312 1202.52 59.0312C1202.21 59.0312 1201.93 59.0964 1201.69 59.2266C1201.45 59.3516 1201.26 59.526 1201.09 59.75C1200.94 59.974 1200.82 60.2318 1200.73 60.5234C1200.65 60.8151 1200.61 61.1302 1200.61 61.4688Z" fill="black"/>
<path d="M657.656 289.32V293H640.594V289.32H657.656ZM641.484 258.875V293H636.961V258.875H641.484ZM661.031 280.602V280.062C661.031 278.234 661.297 276.539 661.828 274.977C662.359 273.398 663.125 272.031 664.125 270.875C665.125 269.703 666.336 268.797 667.758 268.156C669.18 267.5 670.773 267.172 672.539 267.172C674.32 267.172 675.922 267.5 677.344 268.156C678.781 268.797 680 269.703 681 270.875C682.016 272.031 682.789 273.398 683.32 274.977C683.852 276.539 684.117 278.234 684.117 280.062V280.602C684.117 282.43 683.852 284.125 683.32 285.688C682.789 287.25 682.016 288.617 681 289.789C680 290.945 678.789 291.852 677.367 292.508C675.961 293.148 674.367 293.469 672.586 293.469C670.805 293.469 669.203 293.148 667.781 292.508C666.359 291.852 665.141 290.945 664.125 289.789C663.125 288.617 662.359 287.25 661.828 285.688C661.297 284.125 661.031 282.43 661.031 280.602ZM665.367 280.062V280.602C665.367 281.867 665.516 283.062 665.812 284.188C666.109 285.297 666.555 286.281 667.148 287.141C667.758 288 668.516 288.68 669.422 289.18C670.328 289.664 671.383 289.906 672.586 289.906C673.773 289.906 674.812 289.664 675.703 289.18C676.609 288.68 677.359 288 677.953 287.141C678.547 286.281 678.992 285.297 679.289 284.188C679.602 283.062 679.758 281.867 679.758 280.602V280.062C679.758 278.812 679.602 277.633 679.289 276.523C678.992 275.398 678.539 274.406 677.93 273.547C677.336 272.672 676.586 271.984 675.68 271.484C674.789 270.984 673.742 270.734 672.539 270.734C671.352 270.734 670.305 270.984 669.398 271.484C668.508 271.984 667.758 272.672 667.148 273.547C666.555 274.406 666.109 275.398 665.812 276.523C665.516 277.633 665.367 278.812 665.367 280.062ZM705.984 267.641H709.922V292.461C709.922 294.695 709.469 296.602 708.562 298.18C707.656 299.758 706.391 300.953 704.766 301.766C703.156 302.594 701.297 303.008 699.188 303.008C698.312 303.008 697.281 302.867 696.094 302.586C694.922 302.32 693.766 301.859 692.625 301.203C691.5 300.562 690.555 299.695 689.789 298.602L692.062 296.023C693.125 297.305 694.234 298.195 695.391 298.695C696.562 299.195 697.719 299.445 698.859 299.445C700.234 299.445 701.422 299.188 702.422 298.672C703.422 298.156 704.195 297.391 704.742 296.375C705.305 295.375 705.586 294.141 705.586 292.672V273.219L705.984 267.641ZM688.523 280.602V280.109C688.523 278.172 688.75 276.414 689.203 274.836C689.672 273.242 690.336 271.875 691.195 270.734C692.07 269.594 693.125 268.719 694.359 268.109C695.594 267.484 696.984 267.172 698.531 267.172C700.125 267.172 701.516 267.453 702.703 268.016C703.906 268.562 704.922 269.367 705.75 270.43C706.594 271.477 707.258 272.742 707.742 274.227C708.227 275.711 708.562 277.391 708.75 279.266V281.422C708.578 283.281 708.242 284.953 707.742 286.438C707.258 287.922 706.594 289.188 705.75 290.234C704.922 291.281 703.906 292.086 702.703 292.648C701.5 293.195 700.094 293.469 698.484 293.469C696.969 293.469 695.594 293.148 694.359 292.508C693.141 291.867 692.094 290.969 691.219 289.812C690.344 288.656 689.672 287.297 689.203 285.734C688.75 284.156 688.523 282.445 688.523 280.602ZM692.859 280.109V280.602C692.859 281.867 692.984 283.055 693.234 284.164C693.5 285.273 693.898 286.25 694.43 287.094C694.977 287.938 695.672 288.602 696.516 289.086C697.359 289.555 698.367 289.789 699.539 289.789C700.977 289.789 702.164 289.484 703.102 288.875C704.039 288.266 704.781 287.461 705.328 286.461C705.891 285.461 706.328 284.375 706.641 283.203V277.555C706.469 276.695 706.203 275.867 705.844 275.07C705.5 274.258 705.047 273.539 704.484 272.914C703.938 272.273 703.258 271.766 702.445 271.391C701.633 271.016 700.68 270.828 699.586 270.828C698.398 270.828 697.375 271.078 696.516 271.578C695.672 272.062 694.977 272.734 694.43 273.594C693.898 274.438 693.5 275.422 693.234 276.547C692.984 277.656 692.859 278.844 692.859 280.109ZM721.219 267.641V293H716.859V267.641H721.219ZM716.531 260.914C716.531 260.211 716.742 259.617 717.164 259.133C717.602 258.648 718.242 258.406 719.086 258.406C719.914 258.406 720.547 258.648 720.984 259.133C721.438 259.617 721.664 260.211 721.664 260.914C721.664 261.586 721.438 262.164 720.984 262.648C720.547 263.117 719.914 263.352 719.086 263.352C718.242 263.352 717.602 263.117 717.164 262.648C716.742 262.164 716.531 261.586 716.531 260.914ZM732.516 273.055V293H728.18V267.641H732.281L732.516 273.055ZM731.484 279.359L729.68 279.289C729.695 277.555 729.953 275.953 730.453 274.484C730.953 273 731.656 271.711 732.562 270.617C733.469 269.523 734.547 268.68 735.797 268.086C737.062 267.477 738.461 267.172 739.992 267.172C741.242 267.172 742.367 267.344 743.367 267.688C744.367 268.016 745.219 268.547 745.922 269.281C746.641 270.016 747.188 270.969 747.562 272.141C747.938 273.297 748.125 274.711 748.125 276.383V293H743.766V276.336C743.766 275.008 743.57 273.945 743.18 273.148C742.789 272.336 742.219 271.75 741.469 271.391C740.719 271.016 739.797 270.828 738.703 270.828C737.625 270.828 736.641 271.055 735.75 271.508C734.875 271.961 734.117 272.586 733.477 273.383C732.852 274.18 732.359 275.094 732 276.125C731.656 277.141 731.484 278.219 731.484 279.359Z" fill="black"/>
<path d="M753.504 484.209C753.504 484.019 753.475 483.848 753.416 483.697C753.362 483.541 753.26 483.399 753.108 483.272C752.957 483.14 752.745 483.011 752.471 482.884C752.198 482.757 751.844 482.625 751.409 482.488C750.926 482.332 750.467 482.156 750.032 481.961C749.603 481.766 749.222 481.539 748.89 481.28C748.562 481.016 748.304 480.711 748.113 480.364C747.928 480.018 747.835 479.615 747.835 479.156C747.835 478.711 747.933 478.309 748.128 477.947C748.323 477.581 748.597 477.269 748.948 477.01C749.3 476.746 749.715 476.543 750.193 476.402C750.677 476.26 751.207 476.189 751.783 476.189C752.569 476.189 753.255 476.331 753.841 476.614C754.427 476.897 754.881 477.286 755.203 477.779C755.53 478.272 755.694 478.836 755.694 479.471H753.511C753.511 479.158 753.445 478.885 753.313 478.65C753.187 478.411 752.991 478.223 752.728 478.086C752.469 477.95 752.142 477.881 751.746 477.881C751.365 477.881 751.048 477.94 750.794 478.057C750.54 478.169 750.35 478.323 750.223 478.519C750.096 478.709 750.032 478.924 750.032 479.163C750.032 479.344 750.076 479.507 750.164 479.654C750.257 479.8 750.394 479.937 750.574 480.064C750.755 480.191 750.977 480.311 751.241 480.423C751.504 480.535 751.81 480.645 752.156 480.752C752.737 480.928 753.248 481.126 753.687 481.346C754.131 481.565 754.502 481.812 754.8 482.085C755.098 482.359 755.323 482.669 755.474 483.016C755.625 483.362 755.701 483.755 755.701 484.195C755.701 484.659 755.611 485.074 755.43 485.44C755.25 485.806 754.988 486.116 754.646 486.37C754.305 486.624 753.897 486.817 753.423 486.949C752.95 487.081 752.42 487.146 751.834 487.146C751.307 487.146 750.787 487.078 750.274 486.941C749.761 486.8 749.295 486.587 748.875 486.304C748.46 486.021 748.128 485.66 747.879 485.22C747.63 484.781 747.505 484.261 747.505 483.66H749.71C749.71 483.992 749.761 484.273 749.864 484.502C749.966 484.732 750.11 484.917 750.296 485.059C750.486 485.201 750.711 485.303 750.97 485.367C751.233 485.43 751.521 485.462 751.834 485.462C752.215 485.462 752.527 485.408 752.771 485.301C753.021 485.193 753.204 485.044 753.321 484.854C753.443 484.664 753.504 484.449 753.504 484.209ZM759.29 479.075V487H757.173V479.075H759.29ZM757.042 477.01C757.042 476.702 757.149 476.448 757.364 476.248C757.579 476.048 757.867 475.948 758.228 475.948C758.584 475.948 758.87 476.048 759.085 476.248C759.305 476.448 759.415 476.702 759.415 477.01C759.415 477.317 759.305 477.571 759.085 477.771C758.87 477.972 758.584 478.072 758.228 478.072C757.867 478.072 757.579 477.972 757.364 477.771C757.149 477.571 757.042 477.317 757.042 477.01ZM766.05 479.075H767.962V486.736C767.962 487.459 767.801 488.072 767.479 488.575C767.161 489.083 766.717 489.466 766.146 489.725C765.574 489.988 764.91 490.12 764.153 490.12C763.821 490.12 763.47 490.076 763.099 489.988C762.732 489.9 762.381 489.764 762.044 489.578C761.712 489.393 761.434 489.158 761.209 488.875L762.139 487.63C762.383 487.913 762.667 488.133 762.989 488.289C763.311 488.45 763.667 488.531 764.058 488.531C764.439 488.531 764.761 488.46 765.025 488.318C765.289 488.182 765.491 487.979 765.633 487.71C765.774 487.447 765.845 487.127 765.845 486.751V480.906L766.05 479.075ZM760.718 483.133V482.979C760.718 482.374 760.792 481.824 760.938 481.331C761.089 480.833 761.302 480.406 761.575 480.049C761.854 479.693 762.19 479.417 762.586 479.222C762.981 479.026 763.428 478.929 763.926 478.929C764.454 478.929 764.896 479.026 765.252 479.222C765.608 479.417 765.901 479.695 766.131 480.057C766.36 480.413 766.539 480.835 766.666 481.324C766.797 481.807 766.9 482.337 766.973 482.913V483.25C766.9 483.802 766.79 484.314 766.644 484.788C766.497 485.262 766.304 485.677 766.065 486.033C765.826 486.385 765.528 486.658 765.171 486.854C764.82 487.049 764.4 487.146 763.912 487.146C763.423 487.146 762.981 487.046 762.586 486.846C762.195 486.646 761.861 486.365 761.583 486.004C761.304 485.643 761.089 485.218 760.938 484.729C760.792 484.241 760.718 483.709 760.718 483.133ZM762.828 482.979V483.133C762.828 483.46 762.859 483.765 762.923 484.048C762.986 484.332 763.084 484.583 763.216 484.803C763.353 485.018 763.521 485.186 763.721 485.308C763.926 485.425 764.168 485.484 764.446 485.484C764.832 485.484 765.147 485.403 765.391 485.242C765.635 485.076 765.818 484.849 765.94 484.561C766.062 484.273 766.133 483.941 766.153 483.565V482.605C766.143 482.298 766.102 482.022 766.028 481.778C765.955 481.529 765.853 481.316 765.721 481.141C765.589 480.965 765.418 480.828 765.208 480.73C764.998 480.633 764.749 480.584 764.461 480.584C764.183 480.584 763.941 480.647 763.736 480.774C763.536 480.896 763.367 481.065 763.23 481.28C763.099 481.495 762.999 481.749 762.93 482.042C762.862 482.33 762.828 482.642 762.828 482.979ZM771.668 480.767V487H769.559V479.075H771.536L771.668 480.767ZM771.36 482.759H770.789C770.789 482.173 770.865 481.646 771.016 481.177C771.167 480.704 771.38 480.301 771.653 479.969C771.927 479.632 772.251 479.375 772.627 479.2C773.008 479.019 773.433 478.929 773.902 478.929C774.273 478.929 774.612 478.982 774.92 479.09C775.228 479.197 775.491 479.368 775.711 479.603C775.936 479.837 776.106 480.147 776.224 480.533C776.346 480.918 776.407 481.39 776.407 481.946V487H774.283V481.939C774.283 481.587 774.234 481.314 774.136 481.119C774.039 480.923 773.895 480.787 773.704 480.708C773.519 480.625 773.289 480.584 773.016 480.584C772.732 480.584 772.486 480.64 772.276 480.752C772.071 480.865 771.9 481.021 771.763 481.221C771.631 481.417 771.531 481.646 771.463 481.91C771.395 482.173 771.36 482.457 771.36 482.759ZM786.434 485.103V479.075H788.543V487H786.558L786.434 485.103ZM786.668 483.477L787.291 483.462C787.291 483.99 787.229 484.48 787.107 484.935C786.985 485.384 786.802 485.774 786.558 486.106C786.314 486.434 786.006 486.69 785.635 486.875C785.264 487.056 784.827 487.146 784.324 487.146C783.938 487.146 783.582 487.093 783.255 486.985C782.933 486.873 782.654 486.7 782.42 486.465C782.19 486.226 782.01 485.921 781.878 485.55C781.751 485.174 781.688 484.722 781.688 484.195V479.075H783.797V484.209C783.797 484.444 783.824 484.642 783.877 484.803C783.936 484.964 784.017 485.096 784.119 485.198C784.222 485.301 784.341 485.374 784.478 485.418C784.62 485.462 784.776 485.484 784.947 485.484C785.381 485.484 785.723 485.396 785.972 485.22C786.226 485.044 786.404 484.805 786.507 484.502C786.614 484.195 786.668 483.853 786.668 483.477ZM792.264 480.599V490.047H790.154V479.075H792.11L792.264 480.599ZM797.281 482.95V483.104C797.281 483.68 797.212 484.214 797.076 484.708C796.944 485.201 796.749 485.63 796.49 485.997C796.231 486.358 795.909 486.641 795.523 486.846C795.142 487.046 794.703 487.146 794.205 487.146C793.721 487.146 793.301 487.049 792.945 486.854C792.588 486.658 792.288 486.385 792.044 486.033C791.805 485.677 791.612 485.264 791.465 484.795C791.319 484.327 791.207 483.824 791.128 483.287V482.884C791.207 482.308 791.319 481.78 791.465 481.302C791.612 480.818 791.805 480.401 792.044 480.049C792.288 479.693 792.586 479.417 792.938 479.222C793.294 479.026 793.711 478.929 794.19 478.929C794.693 478.929 795.135 479.024 795.516 479.214C795.901 479.405 796.224 479.678 796.482 480.035C796.746 480.391 796.944 480.816 797.076 481.309C797.212 481.802 797.281 482.349 797.281 482.95ZM795.164 483.104V482.95C795.164 482.613 795.135 482.303 795.076 482.02C795.022 481.731 794.935 481.48 794.812 481.265C794.695 481.05 794.539 480.884 794.344 480.767C794.153 480.645 793.921 480.584 793.648 480.584C793.36 480.584 793.113 480.63 792.908 480.723C792.708 480.816 792.544 480.95 792.417 481.126C792.291 481.302 792.195 481.512 792.132 481.756C792.068 482 792.029 482.276 792.015 482.583V483.602C792.039 483.963 792.107 484.288 792.22 484.576C792.332 484.859 792.505 485.083 792.74 485.25C792.974 485.416 793.282 485.499 793.663 485.499C793.941 485.499 794.175 485.438 794.366 485.315C794.556 485.188 794.71 485.015 794.827 484.795C794.949 484.576 795.035 484.322 795.083 484.034C795.137 483.746 795.164 483.436 795.164 483.104Z" fill="white"/>
<path d="M602.808 485.286V487H597.439V485.286H602.808ZM598.149 476.336V487H595.952V476.336H598.149ZM603.599 483.118V482.964C603.599 482.383 603.682 481.849 603.848 481.36C604.014 480.867 604.255 480.44 604.573 480.079C604.89 479.717 605.281 479.437 605.745 479.236C606.208 479.031 606.741 478.929 607.341 478.929C607.942 478.929 608.477 479.031 608.945 479.236C609.414 479.437 609.807 479.717 610.125 480.079C610.447 480.44 610.691 480.867 610.857 481.36C611.023 481.849 611.106 482.383 611.106 482.964V483.118C611.106 483.694 611.023 484.229 610.857 484.722C610.691 485.21 610.447 485.638 610.125 486.004C609.807 486.365 609.417 486.646 608.953 486.846C608.489 487.046 607.957 487.146 607.356 487.146C606.755 487.146 606.221 487.046 605.752 486.846C605.288 486.646 604.895 486.365 604.573 486.004C604.255 485.638 604.014 485.21 603.848 484.722C603.682 484.229 603.599 483.694 603.599 483.118ZM605.708 482.964V483.118C605.708 483.45 605.737 483.76 605.796 484.048C605.854 484.336 605.947 484.59 606.074 484.81C606.206 485.025 606.377 485.193 606.587 485.315C606.797 485.438 607.053 485.499 607.356 485.499C607.649 485.499 607.9 485.438 608.11 485.315C608.32 485.193 608.489 485.025 608.616 484.81C608.743 484.59 608.835 484.336 608.894 484.048C608.958 483.76 608.989 483.45 608.989 483.118V482.964C608.989 482.642 608.958 482.339 608.894 482.056C608.835 481.768 608.74 481.514 608.608 481.294C608.481 481.07 608.313 480.894 608.103 480.767C607.893 480.64 607.639 480.577 607.341 480.577C607.043 480.577 606.79 480.64 606.58 480.767C606.375 480.894 606.206 481.07 606.074 481.294C605.947 481.514 605.854 481.768 605.796 482.056C605.737 482.339 605.708 482.642 605.708 482.964ZM617.419 479.075H619.331V486.736C619.331 487.459 619.17 488.072 618.848 488.575C618.53 489.083 618.086 489.466 617.515 489.725C616.943 489.988 616.279 490.12 615.522 490.12C615.19 490.12 614.839 490.076 614.468 489.988C614.102 489.9 613.75 489.764 613.413 489.578C613.081 489.393 612.803 489.158 612.578 488.875L613.508 487.63C613.752 487.913 614.036 488.133 614.358 488.289C614.68 488.45 615.037 488.531 615.427 488.531C615.808 488.531 616.13 488.46 616.394 488.318C616.658 488.182 616.86 487.979 617.002 487.71C617.144 487.447 617.214 487.127 617.214 486.751V480.906L617.419 479.075ZM612.087 483.133V482.979C612.087 482.374 612.161 481.824 612.307 481.331C612.458 480.833 612.671 480.406 612.944 480.049C613.223 479.693 613.56 479.417 613.955 479.222C614.351 479.026 614.797 478.929 615.295 478.929C615.823 478.929 616.265 479.026 616.621 479.222C616.978 479.417 617.271 479.695 617.5 480.057C617.729 480.413 617.908 480.835 618.035 481.324C618.167 481.807 618.269 482.337 618.342 482.913V483.25C618.269 483.802 618.159 484.314 618.013 484.788C617.866 485.262 617.673 485.677 617.434 486.033C617.195 486.385 616.897 486.658 616.541 486.854C616.189 487.049 615.769 487.146 615.281 487.146C614.792 487.146 614.351 487.046 613.955 486.846C613.564 486.646 613.23 486.365 612.952 486.004C612.673 485.643 612.458 485.218 612.307 484.729C612.161 484.241 612.087 483.709 612.087 483.133ZM614.197 482.979V483.133C614.197 483.46 614.229 483.765 614.292 484.048C614.355 484.332 614.453 484.583 614.585 484.803C614.722 485.018 614.89 485.186 615.09 485.308C615.295 485.425 615.537 485.484 615.815 485.484C616.201 485.484 616.516 485.403 616.76 485.242C617.004 485.076 617.188 484.849 617.31 484.561C617.432 484.273 617.502 483.941 617.522 483.565V482.605C617.512 482.298 617.471 482.022 617.397 481.778C617.324 481.529 617.222 481.316 617.09 481.141C616.958 480.965 616.787 480.828 616.577 480.73C616.367 480.633 616.118 480.584 615.83 480.584C615.552 480.584 615.31 480.647 615.105 480.774C614.905 480.896 614.736 481.065 614.6 481.28C614.468 481.495 614.368 481.749 614.299 482.042C614.231 482.33 614.197 482.642 614.197 482.979ZM623.198 479.075V487H621.082V479.075H623.198ZM620.95 477.01C620.95 476.702 621.057 476.448 621.272 476.248C621.487 476.048 621.775 475.948 622.136 475.948C622.493 475.948 622.778 476.048 622.993 476.248C623.213 476.448 623.323 476.702 623.323 477.01C623.323 477.317 623.213 477.571 622.993 477.771C622.778 477.972 622.493 478.072 622.136 478.072C621.775 478.072 621.487 477.972 621.272 477.771C621.057 477.571 620.95 477.317 620.95 477.01ZM627.007 480.767V487H624.897V479.075H626.875L627.007 480.767ZM626.699 482.759H626.128C626.128 482.173 626.204 481.646 626.355 481.177C626.506 480.704 626.719 480.301 626.992 479.969C627.266 479.632 627.59 479.375 627.966 479.2C628.347 479.019 628.772 478.929 629.241 478.929C629.612 478.929 629.951 478.982 630.259 479.09C630.566 479.197 630.83 479.368 631.05 479.603C631.274 479.837 631.445 480.147 631.562 480.533C631.685 480.918 631.746 481.39 631.746 481.946V487H629.622V481.939C629.622 481.587 629.573 481.314 629.475 481.119C629.377 480.923 629.233 480.787 629.043 480.708C628.857 480.625 628.628 480.584 628.354 480.584C628.071 480.584 627.825 480.64 627.615 480.752C627.41 480.865 627.239 481.021 627.102 481.221C626.97 481.417 626.87 481.646 626.802 481.91C626.733 482.173 626.699 482.457 626.699 482.759Z" fill="white"/>
<mask id="mask4_637_15964" style="mask-type:luminance" maskUnits="userSpaceOnUse" x="637" y="669" width="148" height="80">
<path d="M784.938 669H637V749H784.938V669Z" fill="white"/>
</mask>
<g mask="url(#mask4_637_15964)">
<path d="M687.806 669C685.905 669.023 684.305 670.987 684.305 672.926V682.546C684.305 684.951 684.305 686.154 689.153 688.559L710.97 699.379L691.577 708.998C683.396 713.057 682.117 720.54 687.742 725.668C687.951 725.858 688.168 726.045 688.396 726.228C688.623 726.411 688.86 726.591 689.106 726.767C689.352 726.943 689.608 727.115 689.873 727.283C690.138 727.451 690.412 727.614 690.696 727.774C690.981 727.933 691.274 728.088 691.577 728.239L710.971 737.859L732.789 748.682C735.214 749.884 737.638 747.461 737.638 745.074V735.454C737.638 733.049 737.638 731.846 732.789 729.441L710.971 718.618L730.365 708.998C735.214 706.593 737.638 702.985 737.638 699.378C737.638 699.152 737.629 698.927 737.61 698.702C737.325 695.324 734.911 692.012 730.365 689.758L710.971 680.137C711.013 680.158 711.05 680.18 711.091 680.201L710.971 680.141L689.153 669.318C688.698 669.093 688.244 668.995 687.805 669H687.806Z" fill="#E6E6E6"/>
</g>
<mask id="mask5_637_15964" style="mask-type:luminance" maskUnits="userSpaceOnUse" x="637" y="753" width="148" height="19">
<path d="M784.938 753H637V772H784.938V753Z" fill="white"/>
</mask>
<g mask="url(#mask5_637_15964)">
<path d="M658.503 771V759.364H662.571C663.382 759.364 664.05 759.504 664.577 759.784C665.103 760.061 665.495 760.434 665.753 760.903C666.01 761.369 666.139 761.886 666.139 762.455C666.139 762.955 666.05 763.367 665.872 763.693C665.698 764.019 665.467 764.277 665.179 764.466C664.895 764.655 664.586 764.795 664.253 764.886V765C664.609 765.023 664.967 765.148 665.327 765.375C665.687 765.602 665.988 765.928 666.23 766.352C666.473 766.777 666.594 767.295 666.594 767.909C666.594 768.492 666.461 769.017 666.196 769.483C665.931 769.949 665.512 770.318 664.94 770.591C664.368 770.864 663.624 771 662.707 771H658.503ZM659.912 769.75H662.707C663.628 769.75 664.281 769.572 664.668 769.216C665.058 768.856 665.253 768.42 665.253 767.909C665.253 767.515 665.152 767.152 664.952 766.818C664.751 766.481 664.465 766.212 664.094 766.011C663.723 765.807 663.283 765.705 662.776 765.705H659.912V769.75ZM659.912 764.477H662.526C662.95 764.477 663.332 764.394 663.673 764.227C664.018 764.061 664.291 763.826 664.491 763.523C664.696 763.22 664.798 762.864 664.798 762.455C664.798 761.943 664.62 761.509 664.264 761.153C663.908 760.794 663.344 760.614 662.571 760.614H659.912V764.477ZM674.227 767.432V762.273H675.568V771H674.227V769.523H674.136C673.932 769.966 673.614 770.343 673.182 770.653C672.75 770.96 672.205 771.114 671.545 771.114C671 771.114 670.515 770.994 670.091 770.756C669.667 770.513 669.333 770.15 669.091 769.665C668.848 769.176 668.727 768.561 668.727 767.818V762.273H670.068V767.727C670.068 768.364 670.246 768.871 670.602 769.25C670.962 769.629 671.42 769.818 671.977 769.818C672.311 769.818 672.65 769.733 672.994 769.562C673.343 769.392 673.634 769.131 673.869 768.778C674.108 768.426 674.227 767.977 674.227 767.432ZM677.774 771V769.977L682.729 763.614V763.523H677.933V762.273H684.456V763.341L679.638 769.659V769.75H684.615V771H677.774ZM686.43 771V769.977L691.385 763.614V763.523H686.589V762.273H693.112V763.341L688.294 769.659V769.75H693.271V771H686.43ZM697.314 771L694.655 762.273H696.064L697.95 768.955H698.041L699.905 762.273H701.337L703.178 768.932H703.268L705.155 762.273H706.564L703.905 771H702.587L700.678 764.295H700.541L698.632 771H697.314ZM711.585 771.182C710.797 771.182 710.106 770.994 709.511 770.619C708.92 770.244 708.458 769.72 708.125 769.045C707.795 768.371 707.631 767.583 707.631 766.682C707.631 765.773 707.795 764.979 708.125 764.301C708.458 763.623 708.92 763.097 709.511 762.722C710.106 762.347 710.797 762.159 711.585 762.159C712.373 762.159 713.063 762.347 713.653 762.722C714.248 763.097 714.71 763.623 715.04 764.301C715.373 764.979 715.54 765.773 715.54 766.682C715.54 767.583 715.373 768.371 715.04 769.045C714.71 769.72 714.248 770.244 713.653 770.619C713.063 770.994 712.373 771.182 711.585 771.182ZM711.585 769.977C712.184 769.977 712.676 769.824 713.062 769.517C713.449 769.21 713.735 768.807 713.92 768.307C714.106 767.807 714.199 767.265 714.199 766.682C714.199 766.098 714.106 765.555 713.92 765.051C713.735 764.547 713.449 764.14 713.062 763.83C712.676 763.519 712.184 763.364 711.585 763.364C710.987 763.364 710.494 763.519 710.108 763.83C709.722 764.14 709.436 764.547 709.25 765.051C709.064 765.555 708.972 766.098 708.972 766.682C708.972 767.265 709.064 767.807 709.25 768.307C709.436 768.807 709.722 769.21 710.108 769.517C710.494 769.824 710.987 769.977 711.585 769.977ZM717.587 771V762.273H718.882V763.591H718.973C719.132 763.159 719.42 762.809 719.837 762.54C720.253 762.271 720.723 762.136 721.246 762.136C721.344 762.136 721.467 762.138 721.615 762.142C721.763 762.146 721.875 762.152 721.95 762.159V763.523C721.905 763.511 721.801 763.494 721.638 763.472C721.479 763.445 721.31 763.432 721.132 763.432C720.708 763.432 720.329 763.521 719.996 763.699C719.666 763.873 719.405 764.116 719.212 764.426C719.022 764.733 718.928 765.083 718.928 765.477V771H717.587ZM726.57 771.182C725.842 771.182 725.2 770.998 724.643 770.631C724.087 770.259 723.651 769.737 723.337 769.062C723.022 768.384 722.865 767.583 722.865 766.659C722.865 765.742 723.022 764.947 723.337 764.273C723.651 763.598 724.089 763.078 724.649 762.71C725.21 762.343 725.857 762.159 726.592 762.159C727.161 762.159 727.609 762.254 727.939 762.443C728.272 762.629 728.526 762.841 728.7 763.08C728.878 763.314 729.017 763.508 729.115 763.659H729.229V759.364H730.57V771H729.274V769.659H729.115C729.017 769.818 728.876 770.019 728.695 770.261C728.513 770.5 728.253 770.714 727.916 770.903C727.579 771.089 727.13 771.182 726.57 771.182ZM726.751 769.977C727.289 769.977 727.744 769.837 728.115 769.557C728.486 769.273 728.768 768.881 728.962 768.381C729.155 767.877 729.251 767.295 729.251 766.636C729.251 765.985 729.157 765.415 728.967 764.926C728.778 764.434 728.498 764.051 728.126 763.778C727.755 763.502 727.297 763.364 726.751 763.364C726.183 763.364 725.71 763.509 725.331 763.801C724.956 764.089 724.674 764.481 724.484 764.977C724.299 765.47 724.206 766.023 724.206 766.636C724.206 767.258 724.301 767.822 724.49 768.33C724.683 768.833 724.967 769.235 725.342 769.534C725.721 769.83 726.191 769.977 726.751 769.977ZM732.962 771V769.977L737.916 763.614V763.523H733.121V762.273H739.643V763.341L734.825 769.659V769.75H739.803V771H732.962ZM747.959 759.364V771H746.55V759.364H747.959ZM751.943 765.75V771H750.602V762.273H751.898V763.636H752.011C752.216 763.193 752.527 762.837 752.943 762.568C753.36 762.295 753.898 762.159 754.557 762.159C755.148 762.159 755.665 762.28 756.108 762.523C756.551 762.761 756.896 763.125 757.142 763.614C757.388 764.098 757.511 764.712 757.511 765.455V771H756.17V765.545C756.17 764.86 755.992 764.326 755.636 763.943C755.28 763.557 754.792 763.364 754.17 763.364C753.742 763.364 753.36 763.456 753.023 763.642C752.689 763.828 752.426 764.098 752.233 764.455C752.04 764.811 751.943 765.242 751.943 765.75ZM763.507 771.182C762.689 771.182 761.984 770.989 761.393 770.602C760.803 770.216 760.348 769.684 760.03 769.006C759.712 768.328 759.553 767.553 759.553 766.682C759.553 765.795 759.715 765.013 760.041 764.335C760.371 763.653 760.829 763.121 761.416 762.739C762.007 762.352 762.696 762.159 763.484 762.159C764.098 762.159 764.651 762.273 765.143 762.5C765.636 762.727 766.039 763.045 766.354 763.455C766.668 763.864 766.863 764.341 766.939 764.886H765.598C765.496 764.489 765.268 764.136 764.916 763.83C764.568 763.519 764.098 763.364 763.507 763.364C762.984 763.364 762.526 763.5 762.132 763.773C761.742 764.042 761.437 764.422 761.217 764.915C761.001 765.403 760.893 765.977 760.893 766.636C760.893 767.311 761 767.898 761.212 768.398C761.428 768.898 761.731 769.286 762.121 769.562C762.515 769.839 762.977 769.977 763.507 769.977C763.856 769.977 764.172 769.917 764.456 769.795C764.74 769.674 764.981 769.5 765.178 769.273C765.375 769.045 765.515 768.773 765.598 768.455H766.939C766.863 768.97 766.676 769.434 766.376 769.847C766.081 770.256 765.689 770.581 765.2 770.824C764.715 771.062 764.151 771.182 763.507 771.182ZM769.876 771.091C769.596 771.091 769.356 770.991 769.155 770.79C768.954 770.589 768.854 770.348 768.854 770.068C768.854 769.788 768.954 769.547 769.155 769.347C769.356 769.146 769.596 769.045 769.876 769.045C770.157 769.045 770.397 769.146 770.598 769.347C770.799 769.547 770.899 769.788 770.899 770.068C770.899 770.254 770.852 770.424 770.757 770.58C770.666 770.735 770.543 770.86 770.388 770.955C770.236 771.045 770.066 771.091 769.876 771.091Z" fill="#E6E6E6"/>
</g>
</g>
<defs>
<linearGradient id="paint0_linear_637_15964" x1="8.31028" y1="1.16496e-05" x2="1270.42" y2="948.812" gradientUnits="userSpaceOnUse">
<stop offset="0.147399" stop-color="#00C6E4"/>
<stop offset="1" stop-color="#553FB3"/>
</linearGradient>
<clipPath id="clip0_637_15964">
<rect width="1400" height="787.5" fill="white"/>
</clipPath>
<clipPath id="clip1_637_15964">
<rect width="1139" height="777" fill="white" transform="translate(130 11)"/>
</clipPath>
</defs>
</svg>
